solid Enclosure 3
facet normal 1.0 1.69197988952872e-14 -1.91011486057419e-28
outer loop
vertex 9.51991174405568 26.3624191122668 1.04098676926468
vertex 9.51991174405575 22.3624191122668 3.04098676926467
vertex 9.51991174405575 22.3624191122668 1.04098676926469
endloop
endfacet
facet normal 1.0 1.69197988952872e-14 -1.91011486057419e-28
outer loop
vertex 9.51991174405575 22.3624191122668 3.04098676926467
vertex 9.51991174405568 26.3624191122668 1.04098676926468
vertex 9.51991174405568 26.3624191122668 3.04098676926467
endloop
endfacet
facet normal -1.0 -1.00265474935038e-14 1.57114799070024e-29
outer loop
vertex 48.4356011901974 2.9514046730157 3.04098676926469
vertex 48.4356011901973 7.45140467301561 1.04098676926469
vertex 48.4356011901974 2.95140467301568 1.04098676926468
endloop
endfacet
facet normal -1.0 -1.00265474935038e-14 1.57114799070024e-29
outer loop
vertex 48.4356011901973 7.45140467301561 1.04098676926469
vertex 48.4356011901974 2.9514046730157 3.04098676926469
vertex 48.4356011901973 7.45140467301562 3.04098676926468
endloop
endfacet
facet normal -1.19024559328321e-14 -1.0 1.95831005732493e-16
outer loop
vertex 48.4356011901973 7.45140467301561 1.04098676926469
vertex 40.2356011901973 7.4514046730157 3.04098676926468
vertex 40.2356011901973 7.4514046730157 1.04098676926468
endloop
endfacet
facet normal -1.19024559328321e-14 -1.0 1.95831005732493e-16
outer loop
vertex 40.2356011901973 7.4514046730157 3.04098676926468
vertex 48.4356011901973 7.45140467301561 1.04098676926469
vertex 48.4356011901973 7.45140467301562 3.04098676926468
endloop
endfacet
facet normal 1.0 -3.04565940481017e-15 3.14728402070116e-17
outer loop
vertex 60.9199117440556 0.86241911226674 1.04098676926468
vertex 60.9199117440556 2.86241911226686 90.6409867692647
vertex 60.9199117440556 0.862419112266733 90.6409867692647
endloop
endfacet
facet normal 1.0 -3.04565940481017e-15 3.14728402070116e-17
outer loop
vertex 60.9199117440556 2.86241911226686 90.6409867692647
vertex 60.9199117440556 0.86241911226674 1.04098676926468
vertex 60.9199117440557 28.3624191122667 1.04098676926467
endloop
endfacet
facet normal 1.0 -3.04565940481017e-15 3.14728402070116e-17
outer loop
vertex 60.9199117440556 2.86241911226686 90.6409867692647
vertex 60.9199117440557 28.3624191122667 1.04098676926467
vertex 60.9199117440557 26.3624191122669 90.6409867692646
endloop
endfacet
facet normal 1.0 -3.04565940481017e-15 3.14728402070116e-17
outer loop
vertex 60.9199117440557 26.3624191122669 90.6409867692646
vertex 60.9199117440557 28.3624191122667 1.04098676926467
vertex 60.9199117440557 28.3624191122669 90.6409867692646
endloop
endfacet
facet normal 1.32185928869432e-15 1.0 -1.95831005732493e-16
outer loop
vertex 20.5199117440557 6.36241911226678 3.04098676926468
vertex 36.9199117440557 6.36241911226676 1.04098676926468
vertex 20.5199117440557 6.36241911226677 1.04098676926468
endloop
endfacet
facet normal 1.32185928869432e-15 1.0 -1.95831005732493e-16
outer loop
vertex 36.9199117440557 6.36241911226676 1.04098676926468
vertex 20.5199117440557 6.36241911226678 3.04098676926468
vertex 36.9199117440557 6.36241911226675 3.04098676926469
endloop
endfacet
facet normal 1.0 -2.25597318603832e-15 1.02470619658165e-30
outer loop
vertex 20.5199117440557 21.3624191122668 1.04098676926468
vertex 20.5199117440557 6.36241911226678 3.04098676926468
vertex 20.5199117440557 6.36241911226677 1.04098676926468
endloop
endfacet
facet normal 1.0 -2.25597318603832e-15 1.02470619658165e-30
outer loop
vertex 20.5199117440557 6.36241911226678 3.04098676926468
vertex 20.5199117440557 21.3624191122668 1.04098676926468
vertex 20.5199117440557 21.3624191122668 3.04098676926467
endloop
endfacet
facet normal -1.0 -8.73662250419242e-15 1.28449481840853e-29
outer loop
vertex 53.5199117440557 8.45140467301552 3.04098676926469
vertex 53.5199117440556 21.3624191122668 1.04098676926467
vertex 53.5199117440557 8.45140467301549 1.04098676926468
endloop
endfacet
facet normal -1.0 -8.73662250419242e-15 1.28449481840853e-29
outer loop
vertex 53.5199117440556 21.3624191122668 1.04098676926467
vertex 53.5199117440557 8.45140467301552 3.04098676926469
vertex 53.5199117440556 21.3624191122668 3.04098676926467
endloop
endfacet
facet normal 3.56206292532367e-15 -1.0 1.56664804585994e-15
outer loop
vertex 53.5199117440556 21.3624191122668 1.04098676926467
vertex 44.0199117440557 21.3624191122668 3.04098676926467
vertex 44.0199117440557 21.3624191122667 1.04098676926467
endloop
endfacet
facet normal 3.56206292532367e-15 -1.0 1.56664804585994e-15
outer loop
vertex 44.0199117440557 21.3624191122668 3.04098676926467
vertex 53.5199117440556 21.3624191122668 1.04098676926467
vertex 53.5199117440556 21.3624191122668 3.04098676926467
endloop
endfacet
facet normal 1.0 5.01327374675172e-15 -4.90791998179783e-30
outer loop
vertex 40.2356011901973 7.4514046730157 1.04098676926468
vertex 40.2356011901974 2.95140467301561 3.04098676926469
vertex 40.2356011901974 2.9514046730156 1.04098676926469
endloop
endfacet
facet normal 1.0 5.01327374675172e-15 -4.90791998179783e-30
outer loop
vertex 40.2356011901974 2.95140467301561 3.04098676926469
vertex 40.2356011901973 7.4514046730157 1.04098676926468
vertex 40.2356011901973 7.4514046730157 3.04098676926468
endloop
endfacet
facet normal -1.02544235729015e-14 1.0 -2.34997206878992e-15
outer loop
vertex 40.2356011901974 2.9514046730156 1.04098676926469
vertex 48.4356011901974 2.9514046730157 3.04098676926469
vertex 48.4356011901974 2.95140467301568 1.04098676926468
endloop
endfacet
facet normal -1.02544235729015e-14 1.0 -2.34997206878992e-15
outer loop
vertex 48.4356011901974 2.9514046730157 3.04098676926469
vertex 40.2356011901974 2.9514046730156 1.04098676926469
vertex 40.2356011901974 2.95140467301561 3.04098676926469
endloop
endfacet
facet normal -1.0 3.00796424805109e-15 -1.72011559146741e-30
outer loop
vertex 36.9199117440557 21.3624191122668 3.04098676926468
vertex 36.9199117440557 6.36241911226676 1.04098676926468
vertex 36.9199117440557 6.36241911226675 3.04098676926469
endloop
endfacet
facet normal -1.0 3.00796424805109e-15 -1.72011559146741e-30
outer loop
vertex 36.9199117440557 6.36241911226676 1.04098676926468
vertex 36.9199117440557 21.3624191122668 3.04098676926468
vertex 36.9199117440557 21.3624191122667 1.04098676926468
endloop
endfacet
facet normal -1.05748743095546e-15 -1.0 7.83324022929972e-16
outer loop
vertex 36.9199117440557 21.3624191122668 3.04098676926468
vertex 20.5199117440557 21.3624191122668 1.04098676926468
vertex 36.9199117440557 21.3624191122667 1.04098676926468
endloop
endfacet
facet normal -1.05748743095546e-15 -1.0 7.83324022929972e-16
outer loop
vertex 20.5199117440557 21.3624191122668 1.04098676926468
vertex 36.9199117440557 21.3624191122668 3.04098676926468
vertex 20.5199117440557 21.3624191122668 3.04098676926467
endloop
endfacet
facet normal 1.25331843668795e-15 1.0 -1.56664804585995e-15
outer loop
vertex 9.51991174405575 22.3624191122668 1.04098676926469
vertex 18.5199117440558 22.3624191122668 3.04098676926468
vertex 18.5199117440558 22.3624191122668 1.04098676926468
endloop
endfacet
facet normal 1.25331843668795e-15 1.0 -1.56664804585995e-15
outer loop
vertex 18.5199117440558 22.3624191122668 3.04098676926468
vertex 9.51991174405575 22.3624191122668 1.04098676926469
vertex 9.51991174405575 22.3624191122668 3.04098676926467
endloop
endfacet
facet normal 1.20219623729673e-14 1.0 -2.15414106305742e-15
outer loop
vertex 44.0199117440557 8.45140467301562 3.04098676926468
vertex 53.5199117440557 8.45140467301549 1.04098676926468
vertex 44.0199117440557 8.45140467301561 1.04098676926468
endloop
endfacet
facet normal 1.20219623729673e-14 1.0 -2.15414106305742e-15
outer loop
vertex 53.5199117440557 8.45140467301549 1.04098676926468
vertex 44.0199117440557 8.45140467301562 3.04098676926468
vertex 53.5199117440557 8.45140467301552 3.04098676926469
endloop
endfacet
facet normal 1.0 1.7473245008385e-15 -4.00342011750169e-30
outer loop
vertex 44.0199117440557 21.3624191122667 1.04098676926467
vertex 44.0199117440557 8.45140467301562 3.04098676926468
vertex 44.0199117440557 8.45140467301561 1.04098676926468
endloop
endfacet
facet normal 1.0 1.7473245008385e-15 -4.00342011750169e-30
outer loop
vertex 44.0199117440557 8.45140467301562 3.04098676926468
vertex 44.0199117440557 21.3624191122667 1.04098676926467
vertex 44.0199117440557 21.3624191122668 3.04098676926467
endloop
endfacet
facet normal -1.0 4.43020524410439e-17 -1.2785841334097e-17
outer loop
vertex 1.51991174405567 0.862419112266858 90.6409867692647
vertex 1.51991174405568 28.3624191122669 1.04098676926466
vertex 1.51991174405566 0.862419112266851 1.04098676926468
endloop
endfacet
facet normal -1.0 4.43020524410439e-17 -1.2785841334097e-17
outer loop
vertex 1.51991174405568 28.3624191122669 1.04098676926466
vertex 1.51991174405567 0.862419112266858 90.6409867692647
vertex 1.51991174405567 2.86241911226685 90.6409867692647
endloop
endfacet
facet normal -1.0 4.43020524410439e-17 -1.2785841334097e-17
outer loop
vertex 1.51991174405568 28.3624191122669 1.04098676926466
vertex 1.51991174405567 2.86241911226685 90.6409867692647
vertex 1.51991174405567 26.362419112267 90.6409867692646
endloop
endfacet
facet normal -1.0 4.43020524410439e-17 -1.2785841334097e-17
outer loop
vertex 1.51991174405568 28.3624191122669 1.04098676926466
vertex 1.51991174405567 26.362419112267 90.6409867692646
vertex 1.51991174405566 28.362419112267 90.6409867692646
endloop
endfacet
facet normal -1.87997765503192e-15 -1.0 8.45989944764367e-15
outer loop
vertex 18.5199117440557 26.3624191122668 3.04098676926467
vertex 9.51991174405568 26.3624191122668 1.04098676926468
vertex 18.5199117440557 26.3624191122668 1.04098676926467
endloop
endfacet
facet normal -1.87997765503192e-15 -1.0 8.45989944764367e-15
outer loop
vertex 9.51991174405568 26.3624191122668 1.04098676926468
vertex 18.5199117440557 26.3624191122668 3.04098676926467
vertex 9.51991174405568 26.3624191122668 3.04098676926467
endloop
endfacet
facet normal -1.0 -5.63993296509574e-15 1.5634171005952e-29
outer loop
vertex 18.5199117440558 22.3624191122668 3.04098676926468
vertex 18.5199117440557 26.3624191122668 1.04098676926467
vertex 18.5199117440558 22.3624191122668 1.04098676926468
endloop
endfacet
facet normal -1.0 -5.63993296509574e-15 1.5634171005952e-29
outer loop
vertex 18.5199117440557 26.3624191122668 1.04098676926467
vertex 18.5199117440558 22.3624191122668 3.04098676926468
vertex 18.5199117440557 26.3624191122668 3.04098676926467
endloop
endfacet
facet normal 1.13515599933071e-16 -5.57584281776517e-16 -1.0
outer loop
vertex 40.2356011901973 7.4514046730157 1.04098676926468
vertex 44.0199117440557 8.45140467301561 1.04098676926468
vertex 48.4356011901973 7.45140467301561 1.04098676926469
endloop
endfacet
facet normal 1.13515599933071e-16 -5.57584281776517e-16 -1.0
outer loop
vertex 44.0199117440557 8.45140467301561 1.04098676926468
vertex 40.2356011901973 7.4514046730157 1.04098676926468
vertex 44.0199117440557 21.3624191122667 1.04098676926467
endloop
endfacet
facet normal 1.13515599933071e-16 -5.57584281776517e-16 -1.0
outer loop
vertex 48.4356011901973 7.45140467301561 1.04098676926469
vertex 44.0199117440557 8.45140467301561 1.04098676926468
vertex 53.5199117440557 8.45140467301549 1.04098676926468
endloop
endfacet
facet normal 1.13515599933071e-16 -5.57584281776517e-16 -1.0
outer loop
vertex 48.4356011901973 7.45140467301561 1.04098676926469
vertex 53.5199117440557 8.45140467301549 1.04098676926468
vertex 48.4356011901974 2.95140467301568 1.04098676926468
endloop
endfacet
facet normal 1.13515599933071e-16 -5.57584281776517e-16 -1.0
outer loop
vertex 60.9199117440557 28.3624191122667 1.04098676926467
vertex 9.51991174405568 26.3624191122668 1.04098676926468
vertex 1.51991174405568 28.3624191122669 1.04098676926466
endloop
endfacet
facet normal 1.13515599933071e-16 -5.57584281776517e-16 -1.0
outer loop
vertex 9.51991174405568 26.3624191122668 1.04098676926468
vertex 60.9199117440557 28.3624191122667 1.04098676926467
vertex 18.5199117440557 26.3624191122668 1.04098676926467
endloop
endfacet
facet normal 1.13515599933071e-16 -5.57584281776517e-16 -1.0
outer loop
vertex 18.5199117440557 26.3624191122668 1.04098676926467
vertex 60.9199117440557 28.3624191122667 1.04098676926467
vertex 18.5199117440558 22.3624191122668 1.04098676926468
endloop
endfacet
facet normal 1.13515599933071e-16 -5.57584281776517e-16 -1.0
outer loop
vertex 18.5199117440558 22.3624191122668 1.04098676926468
vertex 60.9199117440557 28.3624191122667 1.04098676926467
vertex 20.5199117440557 21.3624191122668 1.04098676926468
endloop
endfacet
facet normal 1.13515599933071e-16 -5.57584281776517e-16 -1.0
outer loop
vertex 18.5199117440558 22.3624191122668 1.04098676926468
vertex 20.5199117440557 21.3624191122668 1.04098676926468
vertex 20.5199117440557 6.36241911226677 1.04098676926468
endloop
endfacet
facet normal 1.13515599933071e-16 -5.57584281776517e-16 -1.0
outer loop
vertex 20.5199117440557 21.3624191122668 1.04098676926468
vertex 60.9199117440557 28.3624191122667 1.04098676926467
vertex 36.9199117440557 21.3624191122667 1.04098676926468
endloop
endfacet
facet normal 1.13515599933071e-16 -5.57584281776517e-16 -1.0
outer loop
vertex 36.9199117440557 21.3624191122667 1.04098676926468
vertex 60.9199117440557 28.3624191122667 1.04098676926467
vertex 44.0199117440557 21.3624191122667 1.04098676926467
endloop
endfacet
facet normal 1.13515599933071e-16 -5.57584281776517e-16 -1.0
outer loop
vertex 36.9199117440557 21.3624191122667 1.04098676926468
vertex 44.0199117440557 21.3624191122667 1.04098676926467
vertex 40.2356011901973 7.4514046730157 1.04098676926468
endloop
endfacet
facet normal 1.13515599933071e-16 -5.57584281776517e-16 -1.0
outer loop
vertex 44.0199117440557 21.3624191122667 1.04098676926467
vertex 60.9199117440557 28.3624191122667 1.04098676926467
vertex 53.5199117440556 21.3624191122668 1.04098676926467
endloop
endfacet
facet normal 1.13515599933071e-16 -5.57584281776517e-16 -1.0
outer loop
vertex 53.5199117440556 21.3624191122668 1.04098676926467
vertex 60.9199117440557 28.3624191122667 1.04098676926467
vertex 53.5199117440557 8.45140467301549 1.04098676926468
endloop
endfacet
facet normal 1.13515599933071e-16 -5.57584281776517e-16 -1.0
outer loop
vertex 53.5199117440557 8.45140467301549 1.04098676926468
vertex 60.9199117440557 28.3624191122667 1.04098676926467
vertex 60.9199117440556 0.86241911226674 1.04098676926468
endloop
endfacet
facet normal 1.13515599933071e-16 -5.57584281776517e-16 -1.0
outer loop
vertex 1.51991174405566 0.862419112266851 1.04098676926468
vertex 40.2356011901974 2.9514046730156 1.04098676926469
vertex 60.9199117440556 0.86241911226674 1.04098676926468
endloop
endfacet
facet normal 1.13515599933071e-16 -5.57584281776517e-16 -1.0
outer loop
vertex 40.2356011901974 2.9514046730156 1.04098676926469
vertex 1.51991174405566 0.862419112266851 1.04098676926468
vertex 20.5199117440557 6.36241911226677 1.04098676926468
endloop
endfacet
facet normal 1.13515599933071e-16 -5.57584281776517e-16 -1.0
outer loop
vertex 20.5199117440557 6.36241911226677 1.04098676926468
vertex 1.51991174405566 0.862419112266851 1.04098676926468
vertex 1.51991174405568 28.3624191122669 1.04098676926466
endloop
endfacet
facet normal 1.13515599933071e-16 -5.57584281776517e-16 -1.0
outer loop
vertex 20.5199117440557 6.36241911226677 1.04098676926468
vertex 1.51991174405568 28.3624191122669 1.04098676926466
vertex 9.51991174405575 22.3624191122668 1.04098676926469
endloop
endfacet
facet normal 1.13515599933071e-16 -5.57584281776517e-16 -1.0
outer loop
vertex 9.51991174405575 22.3624191122668 1.04098676926469
vertex 1.51991174405568 28.3624191122669 1.04098676926466
vertex 9.51991174405568 26.3624191122668 1.04098676926468
endloop
endfacet
facet normal 1.13515599933071e-16 -5.57584281776517e-16 -1.0
outer loop
vertex 20.5199117440557 6.36241911226677 1.04098676926468
vertex 9.51991174405575 22.3624191122668 1.04098676926469
vertex 18.5199117440558 22.3624191122668 1.04098676926468
endloop
endfacet
facet normal 1.13515599933071e-16 -5.57584281776517e-16 -1.0
outer loop
vertex 40.2356011901974 2.9514046730156 1.04098676926469
vertex 20.5199117440557 6.36241911226677 1.04098676926468
vertex 36.9199117440557 6.36241911226676 1.04098676926468
endloop
endfacet
facet normal 1.13515599933071e-16 -5.57584281776517e-16 -1.0
outer loop
vertex 40.2356011901974 2.9514046730156 1.04098676926469
vertex 36.9199117440557 6.36241911226676 1.04098676926468
vertex 36.9199117440557 21.3624191122667 1.04098676926468
endloop
endfacet
facet normal 1.13515599933071e-16 -5.57584281776517e-16 -1.0
outer loop
vertex 40.2356011901974 2.9514046730156 1.04098676926469
vertex 36.9199117440557 21.3624191122667 1.04098676926468
vertex 40.2356011901973 7.4514046730157 1.04098676926468
endloop
endfacet
facet normal 1.13515599933071e-16 -5.57584281776517e-16 -1.0
outer loop
vertex 60.9199117440556 0.86241911226674 1.04098676926468
vertex 40.2356011901974 2.9514046730156 1.04098676926469
vertex 48.4356011901974 2.95140467301568 1.04098676926468
endloop
endfacet
facet normal 1.13515599933071e-16 -5.57584281776517e-16 -1.0
outer loop
vertex 60.9199117440556 0.86241911226674 1.04098676926468
vertex 48.4356011901974 2.95140467301568 1.04098676926468
vertex 53.5199117440557 8.45140467301549 1.04098676926468
endloop
endfacet
facet normal -3.92669453957556e-17 -1.00364255738522e-16 1.0
outer loop
vertex 3.51991174405567 2.86241911226685 3.04098676926467
vertex 20.5199117440557 6.36241911226678 3.04098676926468
vertex 3.51991174405567 26.3624191122669 3.04098676926467
endloop
endfacet
facet normal -3.92669453957556e-17 -1.00364255738522e-16 1.0
outer loop
vertex 20.5199117440557 6.36241911226678 3.04098676926468
vertex 3.51991174405567 2.86241911226685 3.04098676926467
vertex 40.2356011901974 2.95140467301561 3.04098676926469
endloop
endfacet
facet normal -3.92669453957556e-17 -1.00364255738522e-16 1.0
outer loop
vertex 40.2356011901974 2.95140467301561 3.04098676926469
vertex 3.51991174405567 2.86241911226685 3.04098676926467
vertex 58.9199117440557 2.86241911226673 3.04098676926467
endloop
endfacet
facet normal -3.92669453957556e-17 -1.00364255738522e-16 1.0
outer loop
vertex 3.51991174405567 26.3624191122669 3.04098676926467
vertex 20.5199117440557 6.36241911226678 3.04098676926468
vertex 9.51991174405575 22.3624191122668 3.04098676926467
endloop
endfacet
facet normal -3.92669453957556e-17 -1.00364255738522e-16 1.0
outer loop
vertex 3.51991174405567 26.3624191122669 3.04098676926467
vertex 9.51991174405575 22.3624191122668 3.04098676926467
vertex 9.51991174405568 26.3624191122668 3.04098676926467
endloop
endfacet
facet normal -3.92669453957556e-17 -1.00364255738522e-16 1.0
outer loop
vertex 9.51991174405575 22.3624191122668 3.04098676926467
vertex 20.5199117440557 6.36241911226678 3.04098676926468
vertex 18.5199117440558 22.3624191122668 3.04098676926468
endloop
endfacet
facet normal -3.92669453957556e-17 -1.00364255738522e-16 1.0
outer loop
vertex 20.5199117440557 6.36241911226678 3.04098676926468
vertex 40.2356011901974 2.95140467301561 3.04098676926469
vertex 36.9199117440557 6.36241911226675 3.04098676926469
endloop
endfacet
facet normal -3.92669453957556e-17 -1.00364255738522e-16 1.0
outer loop
vertex 36.9199117440557 6.36241911226675 3.04098676926469
vertex 40.2356011901974 2.95140467301561 3.04098676926469
vertex 36.9199117440557 21.3624191122668 3.04098676926468
endloop
endfacet
facet normal -3.92669453957556e-17 -1.00364255738522e-16 1.0
outer loop
vertex 36.9199117440557 21.3624191122668 3.04098676926468
vertex 40.2356011901974 2.95140467301561 3.04098676926469
vertex 40.2356011901973 7.4514046730157 3.04098676926468
endloop
endfacet
facet normal -3.92669453957556e-17 -1.00364255738522e-16 1.0
outer loop
vertex 40.2356011901974 2.95140467301561 3.04098676926469
vertex 58.9199117440557 2.86241911226673 3.04098676926467
vertex 48.4356011901974 2.9514046730157 3.04098676926469
endloop
endfacet
facet normal -3.92669453957556e-17 -1.00364255738522e-16 1.0
outer loop
vertex 48.4356011901974 2.9514046730157 3.04098676926469
vertex 58.9199117440557 2.86241911226673 3.04098676926467
vertex 53.5199117440557 8.45140467301552 3.04098676926469
endloop
endfacet
facet normal -3.92669453957556e-17 -1.00364255738522e-16 1.0
outer loop
vertex 18.5199117440558 22.3624191122668 3.04098676926468
vertex 58.9199117440557 26.3624191122667 3.04098676926467
vertex 18.5199117440557 26.3624191122668 3.04098676926467
endloop
endfacet
facet normal -3.92669453957556e-17 -1.00364255738522e-16 1.0
outer loop
vertex 58.9199117440557 26.3624191122667 3.04098676926467
vertex 18.5199117440558 22.3624191122668 3.04098676926468
vertex 20.5199117440557 21.3624191122668 3.04098676926467
endloop
endfacet
facet normal -3.92669453957556e-17 -1.00364255738522e-16 1.0
outer loop
vertex 20.5199117440557 21.3624191122668 3.04098676926467
vertex 18.5199117440558 22.3624191122668 3.04098676926468
vertex 20.5199117440557 6.36241911226678 3.04098676926468
endloop
endfacet
facet normal -3.92669453957556e-17 -1.00364255738522e-16 1.0
outer loop
vertex 58.9199117440557 26.3624191122667 3.04098676926467
vertex 20.5199117440557 21.3624191122668 3.04098676926467
vertex 36.9199117440557 21.3624191122668 3.04098676926468
endloop
endfacet
facet normal -3.92669453957556e-17 -1.00364255738522e-16 1.0
outer loop
vertex 58.9199117440557 26.3624191122667 3.04098676926467
vertex 36.9199117440557 21.3624191122668 3.04098676926468
vertex 44.0199117440557 21.3624191122668 3.04098676926467
endloop
endfacet
facet normal -3.92669453957556e-17 -1.00364255738522e-16 1.0
outer loop
vertex 44.0199117440557 21.3624191122668 3.04098676926467
vertex 36.9199117440557 21.3624191122668 3.04098676926468
vertex 40.2356011901973 7.4514046730157 3.04098676926468
endloop
endfacet
facet normal -3.92669453957556e-17 -1.00364255738522e-16 1.0
outer loop
vertex 58.9199117440557 26.3624191122667 3.04098676926467
vertex 44.0199117440557 21.3624191122668 3.04098676926467
vertex 53.5199117440556 21.3624191122668 3.04098676926467
endloop
endfacet
facet normal -3.92669453957556e-17 -1.00364255738522e-16 1.0
outer loop
vertex 58.9199117440557 26.3624191122667 3.04098676926467
vertex 53.5199117440556 21.3624191122668 3.04098676926467
vertex 53.5199117440557 8.45140467301552 3.04098676926469
endloop
endfacet
facet normal -3.92669453957556e-17 -1.00364255738522e-16 1.0
outer loop
vertex 58.9199117440557 26.3624191122667 3.04098676926467
vertex 53.5199117440557 8.45140467301552 3.04098676926469
vertex 58.9199117440557 2.86241911226673 3.04098676926467
endloop
endfacet
facet normal -3.92669453957556e-17 -1.00364255738522e-16 1.0
outer loop
vertex 40.2356011901973 7.4514046730157 3.04098676926468
vertex 44.0199117440557 8.45140467301562 3.04098676926468
vertex 44.0199117440557 21.3624191122668 3.04098676926467
endloop
endfacet
facet normal -3.92669453957556e-17 -1.00364255738522e-16 1.0
outer loop
vertex 44.0199117440557 8.45140467301562 3.04098676926468
vertex 40.2356011901973 7.4514046730157 3.04098676926468
vertex 48.4356011901973 7.45140467301562 3.04098676926468
endloop
endfacet
facet normal -3.92669453957556e-17 -1.00364255738522e-16 1.0
outer loop
vertex 44.0199117440557 8.45140467301562 3.04098676926468
vertex 48.4356011901973 7.45140467301562 3.04098676926468
vertex 53.5199117440557 8.45140467301552 3.04098676926469
endloop
endfacet
facet normal -3.92669453957556e-17 -1.00364255738522e-16 1.0
outer loop
vertex 53.5199117440557 8.45140467301552 3.04098676926469
vertex 48.4356011901973 7.45140467301562 3.04098676926468
vertex 48.4356011901974 2.9514046730157 3.04098676926469
endloop
endfacet
facet normal 2.13151798658291e-15 1.0 -2.41435486519511e-17
outer loop
vertex 3.51991174405567 2.86241911226685 90.6409867692647
vertex 58.9199117440557 2.86241911226673 3.04098676926467
vertex 3.51991174405567 2.86241911226685 3.04098676926467
endloop
endfacet
facet normal 2.13151798658291e-15 1.0 -2.41435486519511e-17
outer loop
vertex 58.9199117440557 2.86241911226673 3.04098676926467
vertex 3.51991174405567 2.86241911226685 90.6409867692647
vertex 58.9199117440557 2.86241911226674 90.6409867692647
endloop
endfacet
facet normal 2.38980210385415e-15 1.0 -1.40998324127395e-14
outer loop
vertex 1.51991174405566 28.362419112267 90.6409867692646
vertex 60.9199117440557 28.3624191122667 1.04098676926467
vertex 1.51991174405568 28.3624191122669 1.04098676926466
endloop
endfacet
facet normal 2.38980210385415e-15 1.0 -1.40998324127395e-14
outer loop
vertex 60.9199117440557 28.3624191122667 1.04098676926467
vertex 1.51991174405566 28.362419112267 90.6409867692646
vertex 60.9199117440557 28.3624191122669 90.6409867692646
endloop
endfacet
facet normal -3.75995531006385e-15 -1.0 1.78201397133027e-15
outer loop
vertex 18.5199117440557 26.3624191122668 3.04098676926467
vertex 9.51991174405568 26.362419112267 90.6409867692646
vertex 9.51991174405568 26.3624191122668 3.04098676926467
endloop
endfacet
facet normal -3.75995531006385e-15 -1.0 1.78201397133027e-15
outer loop
vertex 9.51991174405568 26.362419112267 90.6409867692646
vertex 18.5199117440557 26.3624191122668 3.04098676926467
vertex 18.5199117440557 26.362419112267 90.6409867692647
endloop
endfacet
facet normal -3.62965982902205e-15 -1.0 7.08210760457237e-16
outer loop
vertex 58.9199117440558 26.3624191122667 90.6409867692647
vertex 18.5199117440557 26.3624191122668 3.04098676926467
vertex 58.9199117440557 26.3624191122667 3.04098676926467
endloop
endfacet
facet normal -3.62965982902205e-15 -1.0 7.08210760457237e-16
outer loop
vertex 18.5199117440557 26.3624191122668 3.04098676926467
vertex 58.9199117440558 26.3624191122667 90.6409867692647
vertex 18.5199117440557 26.362419112267 90.6409867692647
endloop
endfacet
facet normal 1.0 -7.49991085784014e-17 2.0119623876626e-17
outer loop
vertex 3.51991174405567 26.3624191122669 3.04098676926467
vertex 3.51991174405567 2.86241911226685 90.6409867692647
vertex 3.51991174405567 2.86241911226685 3.04098676926467
endloop
endfacet
facet normal 1.0 -7.49991085784014e-17 2.0119623876626e-17
outer loop
vertex 3.51991174405567 2.86241911226685 90.6409867692647
vertex 3.51991174405567 26.3624191122669 3.04098676926467
vertex 3.51991174405567 26.362419112267 90.6409867692646
endloop
endfacet
facet normal -9.39988827515965e-15 -1.0 1.60956991013008e-15
outer loop
vertex 9.51991174405568 26.362419112267 90.6409867692646
vertex 3.51991174405567 26.3624191122669 3.04098676926467
vertex 9.51991174405568 26.3624191122668 3.04098676926467
endloop
endfacet
facet normal -9.39988827515965e-15 -1.0 1.60956991013008e-15
outer loop
vertex 3.51991174405567 26.3624191122669 3.04098676926467
vertex 9.51991174405568 26.362419112267 90.6409867692646
vertex 3.51991174405567 26.362419112267 90.6409867692646
endloop
endfacet
facet normal -1.98464339332305e-15 -1.0 4.05646498261755e-31
outer loop
vertex 60.9199117440556 0.86241911226674 1.04098676926468
vertex 1.51991174405567 0.862419112266858 90.6409867692647
vertex 1.51991174405566 0.862419112266851 1.04098676926468
endloop
endfacet
facet normal -1.98464339332305e-15 -1.0 4.05646498261755e-31
outer loop
vertex 1.51991174405567 0.862419112266858 90.6409867692647
vertex 60.9199117440556 0.86241911226674 1.04098676926468
vertex 60.9199117440556 0.862419112266733 90.6409867692647
endloop
endfacet
facet normal -1.0 2.39997147450885e-15 6.43827964052032e-16
outer loop
vertex 58.9199117440557 2.86241911226674 90.6409867692647
vertex 58.9199117440557 26.3624191122667 3.04098676926467
vertex 58.9199117440557 2.86241911226673 3.04098676926467
endloop
endfacet
facet normal -1.0 2.39997147450885e-15 6.43827964052032e-16
outer loop
vertex 58.9199117440557 26.3624191122667 3.04098676926467
vertex 58.9199117440557 2.86241911226674 90.6409867692647
vertex 58.9199117440558 26.3624191122667 90.6409867692647
endloop
endfacet
facet normal 5.6399329650958e-15 4.7999429490175e-16 1.0
outer loop
vertex 60.9199117440556 2.86241911226686 90.6409867692647
vertex 58.9199117440558 26.3624191122667 90.6409867692647
vertex 58.9199117440557 2.86241911226674 90.6409867692647
endloop
endfacet
facet normal 5.6399329650958e-15 4.7999429490175e-16 1.0
outer loop
vertex 58.9199117440558 26.3624191122667 90.6409867692647
vertex 60.9199117440556 2.86241911226686 90.6409867692647
vertex 60.9199117440557 26.3624191122669 90.6409867692646
endloop
endfacet
facet normal -8.00151520965674e-17 5.86930973443971e-15 1.0
outer loop
vertex 1.51991174405567 26.362419112267 90.6409867692646
vertex 60.9199117440557 28.3624191122669 90.6409867692646
vertex 1.51991174405566 28.362419112267 90.6409867692646
endloop
endfacet
facet normal -8.00151520965674e-17 5.86930973443971e-15 1.0
outer loop
vertex 60.9199117440557 28.3624191122669 90.6409867692646
vertex 1.51991174405567 26.362419112267 90.6409867692646
vertex 3.51991174405567 26.362419112267 90.6409867692646
endloop
endfacet
facet normal -8.00151520965674e-17 5.86930973443971e-15 1.0
outer loop
vertex 60.9199117440557 28.3624191122669 90.6409867692646
vertex 3.51991174405567 26.362419112267 90.6409867692646
vertex 9.51991174405568 26.362419112267 90.6409867692646
endloop
endfacet
facet normal -8.00151520965674e-17 5.86930973443971e-15 1.0
outer loop
vertex 60.9199117440557 28.3624191122669 90.6409867692646
vertex 9.51991174405568 26.362419112267 90.6409867692646
vertex 18.5199117440557 26.362419112267 90.6409867692647
endloop
endfacet
facet normal -8.00151520965674e-17 5.86930973443971e-15 1.0
outer loop
vertex 60.9199117440557 28.3624191122669 90.6409867692646
vertex 18.5199117440557 26.362419112267 90.6409867692647
vertex 58.9199117440558 26.3624191122667 90.6409867692647
endloop
endfacet
facet normal -8.00151520965674e-17 5.86930973443971e-15 1.0
outer loop
vertex 60.9199117440557 28.3624191122669 90.6409867692646
vertex 58.9199117440558 26.3624191122667 90.6409867692647
vertex 60.9199117440557 26.3624191122669 90.6409867692646
endloop
endfacet
facet normal 5.11817833237243e-31 9.59988589803532e-16 1.0
outer loop
vertex 1.51991174405567 2.86241911226685 90.6409867692647
vertex 3.51991174405567 26.362419112267 90.6409867692646
vertex 1.51991174405567 26.362419112267 90.6409867692646
endloop
endfacet
facet normal 5.11817833237243e-31 9.59988589803532e-16 1.0
outer loop
vertex 3.51991174405567 26.362419112267 90.6409867692646
vertex 1.51991174405567 2.86241911226685 90.6409867692647
vertex 3.51991174405567 2.86241911226685 90.6409867692647
endloop
endfacet
facet normal -0.0 -0.0 1.0
outer loop
vertex 1.51991174405567 0.862419112266858 90.6409867692647
vertex 3.51991174405567 2.86241911226685 90.6409867692647
vertex 1.51991174405567 2.86241911226685 90.6409867692647
endloop
endfacet
facet normal -0.0 -0.0 1.0
outer loop
vertex 3.51991174405567 2.86241911226685 90.6409867692647
vertex 1.51991174405567 0.862419112266858 90.6409867692647
vertex 60.9199117440556 0.862419112266733 90.6409867692647
endloop
endfacet
facet normal -0.0 -0.0 1.0
outer loop
vertex 3.51991174405567 2.86241911226685 90.6409867692647
vertex 60.9199117440556 0.862419112266733 90.6409867692647
vertex 58.9199117440557 2.86241911226674 90.6409867692647
endloop
endfacet
facet normal -0.0 -0.0 1.0
outer loop
vertex 58.9199117440557 2.86241911226674 90.6409867692647
vertex 60.9199117440556 0.862419112266733 90.6409867692647
vertex 60.9199117440556 2.86241911226686 90.6409867692647
endloop
endfacet
endsolid Enclosure 3
