solid SensorDis v1~~
facet normal 0.0 0.0 -1.0
outer loop
vertex 57.5173485508543 41.4333240718389 0.476072133044886
vertex 20.7173485508544 7.43332407183897 0.476072133044886
vertex 20.7173485508544 41.4333240718389 0.476072133044886
endloop
endfacet
facet normal 0.0 0.0 -1.0
outer loop
vertex 20.7173485508544 7.43332407183897 0.476072133044886
vertex 57.5173485508543 41.4333240718389 0.476072133044886
vertex 57.5173485508543 7.43332407183897 0.476072133044886
endloop
endfacet
facet normal 0.0 0.0 -1.0
outer loop
vertex 20.7173485508544 49.9333240718391 0.476072133044886
vertex 0.0573485508543862 -1.04667592816102 0.476072133044886
vertex 0.0573485508543862 49.9333240718391 0.476072133044886
endloop
endfacet
facet normal 0.0 0.0 -1.0
outer loop
vertex 0.0573485508543862 -1.04667592816102 0.476072133044886
vertex 20.7173485508544 49.9333240718391 0.476072133044886
vertex 20.7173485508544 -1.04667592816102 0.476072133044886
endloop
endfacet
facet normal 0.0 0.0 -1.0
outer loop
vertex 20.7173485508544 -1.04667592816102 0.476072133044886
vertex 20.7173485508544 49.9333240718391 0.476072133044886
vertex 20.7173485508544 41.4333240718389 0.476072133044886
endloop
endfacet
facet normal 0.0 0.0 -1.0
outer loop
vertex 20.7173485508544 -1.04667592816102 0.476072133044886
vertex 20.7173485508544 41.4333240718389 0.476072133044886
vertex 20.7173485508544 7.43332407183897 0.476072133044886
endloop
endfacet
facet normal 0.0 0.0 1.0
outer loop
vertex 0.0573485508543862 -1.04667592816102 14.9760721330449
vertex 2.05734855085439 0.953324071838979 14.9760721330449
vertex 0.0573485508543862 49.9333240718391 14.9760721330449
endloop
endfacet
facet normal 0.0 0.0 1.0
outer loop
vertex 2.05734855085439 0.953324071838979 14.9760721330449
vertex 0.0573485508543862 -1.04667592816102 14.9760721330449
vertex 20.7173485508544 -1.04667592816102 14.9760721330449
endloop
endfacet
facet normal 0.0 0.0 1.0
outer loop
vertex 2.05734855085439 0.953324071838979 14.9760721330449
vertex 20.7173485508544 -1.04667592816102 14.9760721330449
vertex 18.7173485508544 0.953324071838979 14.9760721330449
endloop
endfacet
facet normal 0.0 0.0 1.0
outer loop
vertex 18.7173485508544 0.953324071838979 14.9760721330449
vertex 20.7173485508544 -1.04667592816102 14.9760721330449
vertex 18.7173485508544 9.43332407183897 14.9760721330449
endloop
endfacet
facet normal 0.0 0.0 1.0
outer loop
vertex 18.7173485508544 9.43332407183897 14.9760721330449
vertex 20.7173485508544 -1.04667592816102 14.9760721330449
vertex 20.7173485508544 7.43332407183897 14.9760721330449
endloop
endfacet
facet normal 0.0 0.0 1.0
outer loop
vertex 18.7173485508544 9.43332407183897 14.9760721330449
vertex 20.7173485508544 7.43332407183897 14.9760721330449
vertex 55.5173485508543 9.43332407183897 14.9760721330449
endloop
endfacet
facet normal 0.0 0.0 1.0
outer loop
vertex 55.5173485508543 9.43332407183897 14.9760721330449
vertex 20.7173485508544 7.43332407183897 14.9760721330449
vertex 57.5173485508543 7.43332407183897 14.9760721330449
endloop
endfacet
facet normal 0.0 0.0 1.0
outer loop
vertex 55.5173485508543 9.43332407183897 14.9760721330449
vertex 57.5173485508543 7.43332407183897 14.9760721330449
vertex 55.5173485508543 39.4333240718389 14.9760721330449
endloop
endfacet
facet normal 0.0 0.0 1.0
outer loop
vertex 18.7173485508544 39.4333240718389 14.9760721330449
vertex 20.7173485508544 41.4333240718389 14.9760721330449
vertex 18.7173485508544 47.9333240718391 14.9760721330449
endloop
endfacet
facet normal 0.0 0.0 1.0
outer loop
vertex 20.7173485508544 41.4333240718389 14.9760721330449
vertex 18.7173485508544 39.4333240718389 14.9760721330449
vertex 55.5173485508543 39.4333240718389 14.9760721330449
endloop
endfacet
facet normal 0.0 0.0 1.0
outer loop
vertex 20.7173485508544 41.4333240718389 14.9760721330449
vertex 55.5173485508543 39.4333240718389 14.9760721330449
vertex 57.5173485508543 41.4333240718389 14.9760721330449
endloop
endfacet
facet normal 0.0 0.0 1.0
outer loop
vertex 57.5173485508543 41.4333240718389 14.9760721330449
vertex 55.5173485508543 39.4333240718389 14.9760721330449
vertex 57.5173485508543 7.43332407183897 14.9760721330449
endloop
endfacet
facet normal 0.0 0.0 1.0
outer loop
vertex 0.0573485508543862 49.9333240718391 14.9760721330449
vertex 2.05734855085439 47.9333240718391 14.9760721330449
vertex 20.7173485508544 49.9333240718391 14.9760721330449
endloop
endfacet
facet normal 0.0 0.0 1.0
outer loop
vertex 2.05734855085439 47.9333240718391 14.9760721330449
vertex 0.0573485508543862 49.9333240718391 14.9760721330449
vertex 2.05734855085439 0.953324071838979 14.9760721330449
endloop
endfacet
facet normal 0.0 0.0 1.0
outer loop
vertex 20.7173485508544 49.9333240718391 14.9760721330449
vertex 2.05734855085439 47.9333240718391 14.9760721330449
vertex 18.7173485508544 47.9333240718391 14.9760721330449
endloop
endfacet
facet normal 0.0 0.0 1.0
outer loop
vertex 20.7173485508544 49.9333240718391 14.9760721330449
vertex 18.7173485508544 47.9333240718391 14.9760721330449
vertex 20.7173485508544 41.4333240718389 14.9760721330449
endloop
endfacet
facet normal 1.0 -0.0 -0.0
outer loop
vertex 20.7173485508544 7.43332407183897 0.476072133044886
vertex 20.7173485508544 -1.04667592816102 14.9760721330449
vertex 20.7173485508544 -1.04667592816102 0.476072133044886
endloop
endfacet
facet normal 1.0 -0.0 -0.0
outer loop
vertex 20.7173485508544 -1.04667592816102 14.9760721330449
vertex 20.7173485508544 7.43332407183897 0.476072133044886
vertex 20.7173485508544 7.43332407183897 14.9760721330449
endloop
endfacet
facet normal 0.0 -1.0 0.0
outer loop
vertex 57.5173485508543 7.43332407183897 14.9760721330449
vertex 20.7173485508544 7.43332407183897 0.476072133044886
vertex 57.5173485508543 7.43332407183897 0.476072133044886
endloop
endfacet
facet normal 0.0 -1.0 0.0
outer loop
vertex 20.7173485508544 7.43332407183897 0.476072133044886
vertex 57.5173485508543 7.43332407183897 14.9760721330449
vertex 20.7173485508544 7.43332407183897 14.9760721330449
endloop
endfacet
facet normal 1.0 -0.0 -0.0
outer loop
vertex 57.5173485508543 7.43332407183897 0.476072133044886
vertex 57.5173485508543 17.233324071839 4.47607213304488
vertex 57.5173485508543 7.43332407183897 14.9760721330449
endloop
endfacet
facet normal 1.0 -0.0 -0.0
outer loop
vertex 57.5173485508543 17.233324071839 4.47607213304488
vertex 57.5173485508543 7.43332407183897 0.476072133044886
vertex 57.5173485508543 41.4333240718389 0.476072133044886
endloop
endfacet
facet normal 1.0 -0.0 -0.0
outer loop
vertex 57.5173485508543 17.233324071839 4.47607213304488
vertex 57.5173485508543 41.4333240718389 0.476072133044886
vertex 57.5173485508543 31.6333240718389 4.47607213304488
endloop
endfacet
facet normal 1.0 -0.0 -0.0
outer loop
vertex 57.5173485508543 31.6333240718389 4.47607213304488
vertex 57.5173485508543 41.4333240718389 0.476072133044886
vertex 57.5173485508543 31.6333240718389 11.4760721330449
endloop
endfacet
facet normal 1.0 -0.0 -0.0
outer loop
vertex 57.5173485508543 7.43332407183897 14.9760721330449
vertex 57.5173485508543 17.233324071839 11.4760721330449
vertex 57.5173485508543 41.4333240718389 14.9760721330449
endloop
endfacet
facet normal 1.0 -0.0 -0.0
outer loop
vertex 57.5173485508543 17.233324071839 11.4760721330449
vertex 57.5173485508543 7.43332407183897 14.9760721330449
vertex 57.5173485508543 17.233324071839 4.47607213304488
endloop
endfacet
facet normal 1.0 -0.0 -0.0
outer loop
vertex 57.5173485508543 41.4333240718389 14.9760721330449
vertex 57.5173485508543 17.233324071839 11.4760721330449
vertex 57.5173485508543 31.6333240718389 11.4760721330449
endloop
endfacet
facet normal 1.0 -0.0 -0.0
outer loop
vertex 57.5173485508543 41.4333240718389 14.9760721330449
vertex 57.5173485508543 31.6333240718389 11.4760721330449
vertex 57.5173485508543 41.4333240718389 0.476072133044886
endloop
endfacet
facet normal 0.0 1.0 0.0
outer loop
vertex 20.7173485508544 41.4333240718389 14.9760721330449
vertex 57.5173485508543 41.4333240718389 0.476072133044886
vertex 20.7173485508544 41.4333240718389 0.476072133044886
endloop
endfacet
facet normal 0.0 1.0 0.0
outer loop
vertex 57.5173485508543 41.4333240718389 0.476072133044886
vertex 20.7173485508544 41.4333240718389 14.9760721330449
vertex 57.5173485508543 41.4333240718389 14.9760721330449
endloop
endfacet
facet normal 1.0 -0.0 -0.0
outer loop
vertex 20.7173485508544 49.9333240718391 0.476072133044886
vertex 20.7173485508544 41.4333240718389 14.9760721330449
vertex 20.7173485508544 41.4333240718389 0.476072133044886
endloop
endfacet
facet normal 1.0 -0.0 -0.0
outer loop
vertex 20.7173485508544 41.4333240718389 14.9760721330449
vertex 20.7173485508544 49.9333240718391 0.476072133044886
vertex 20.7173485508544 49.9333240718391 14.9760721330449
endloop
endfacet
facet normal 0.0 1.0 0.0
outer loop
vertex 0.0573485508543862 49.9333240718391 14.9760721330449
vertex 20.7173485508544 49.9333240718391 0.476072133044886
vertex 0.0573485508543862 49.9333240718391 0.476072133044886
endloop
endfacet
facet normal 0.0 1.0 0.0
outer loop
vertex 20.7173485508544 49.9333240718391 0.476072133044886
vertex 0.0573485508543862 49.9333240718391 14.9760721330449
vertex 20.7173485508544 49.9333240718391 14.9760721330449
endloop
endfacet
facet normal -1.0 0.0 0.0
outer loop
vertex 0.0573485508543862 49.9333240718391 14.9760721330449
vertex 0.0573485508543862 -1.04667592816102 0.476072133044886
vertex 0.0573485508543862 -1.04667592816102 14.9760721330449
endloop
endfacet
facet normal -1.0 0.0 0.0
outer loop
vertex 0.0573485508543862 -1.04667592816102 0.476072133044886
vertex 0.0573485508543862 49.9333240718391 14.9760721330449
vertex 0.0573485508543862 49.9333240718391 0.476072133044886
endloop
endfacet
facet normal 0.0 -1.0 0.0
outer loop
vertex 20.7173485508544 -1.04667592816102 14.9760721330449
vertex 0.0573485508543862 -1.04667592816102 0.476072133044886
vertex 20.7173485508544 -1.04667592816102 0.476072133044886
endloop
endfacet
facet normal 0.0 -1.0 0.0
outer loop
vertex 0.0573485508543862 -1.04667592816102 0.476072133044886
vertex 20.7173485508544 -1.04667592816102 14.9760721330449
vertex 0.0573485508543862 -1.04667592816102 14.9760721330449
endloop
endfacet
facet normal 2.11442327139382e-17 -3.69671911551786e-19 1.0
outer loop
vertex 18.7173485508544 0.953324071838979 2.47607213304489
vertex 2.05734855085439 47.9333240718391 2.47607213304489
vertex 2.05734855085439 0.953324071838979 2.47607213304489
endloop
endfacet
facet normal 2.11442327139382e-17 -3.69671911551786e-19 1.0
outer loop
vertex 2.05734855085439 47.9333240718391 2.47607213304489
vertex 18.7173485508544 0.953324071838979 2.47607213304489
vertex 18.7173485508544 47.9333240718391 2.47607213304489
endloop
endfacet
facet normal 2.11442327139382e-17 -3.69671911551786e-19 1.0
outer loop
vertex 18.7173485508544 47.9333240718391 2.47607213304489
vertex 18.7173485508544 0.953324071838979 2.47607213304489
vertex 18.7173485508544 9.43332407183897 2.47607213304489
endloop
endfacet
facet normal 2.11442327139382e-17 -3.69671911551786e-19 1.0
outer loop
vertex 18.7173485508544 47.9333240718391 2.47607213304489
vertex 18.7173485508544 9.43332407183897 2.47607213304489
vertex 18.7173485508544 39.4333240718389 2.47607213304489
endloop
endfacet
facet normal 1.0 0.0 0.0
outer loop
vertex 2.05734855085439 47.9333240718391 2.47607213304489
vertex 2.05734855085439 0.953324071838979 14.9760721330449
vertex 2.05734855085439 0.953324071838979 2.47607213304489
endloop
endfacet
facet normal 1.0 0.0 0.0
outer loop
vertex 2.05734855085439 0.953324071838979 14.9760721330449
vertex 2.05734855085439 47.9333240718391 2.47607213304489
vertex 2.05734855085439 47.9333240718391 14.9760721330449
endloop
endfacet
facet normal 0.0 1.0 0.0
outer loop
vertex 2.05734855085439 0.953324071838979 14.9760721330449
vertex 18.7173485508544 0.953324071838979 2.47607213304489
vertex 2.05734855085439 0.953324071838979 2.47607213304489
endloop
endfacet
facet normal 0.0 1.0 0.0
outer loop
vertex 18.7173485508544 0.953324071838979 2.47607213304489
vertex 2.05734855085439 0.953324071838979 14.9760721330449
vertex 18.7173485508544 0.953324071838979 14.9760721330449
endloop
endfacet
facet normal -1.0 0.0 0.0
outer loop
vertex 18.7173485508544 47.9333240718391 14.9760721330449
vertex 18.7173485508544 39.4333240718389 2.47607213304489
vertex 18.7173485508544 39.4333240718389 14.9760721330449
endloop
endfacet
facet normal -1.0 0.0 0.0
outer loop
vertex 18.7173485508544 39.4333240718389 2.47607213304489
vertex 18.7173485508544 47.9333240718391 14.9760721330449
vertex 18.7173485508544 47.9333240718391 2.47607213304489
endloop
endfacet
facet normal -0.0 -1.0 -0.0
outer loop
vertex 18.7173485508544 47.9333240718391 14.9760721330449
vertex 2.05734855085439 47.9333240718391 2.47607213304489
vertex 18.7173485508544 47.9333240718391 2.47607213304489
endloop
endfacet
facet normal -0.0 -1.0 -0.0
outer loop
vertex 2.05734855085439 47.9333240718391 2.47607213304489
vertex 18.7173485508544 47.9333240718391 14.9760721330449
vertex 2.05734855085439 47.9333240718391 14.9760721330449
endloop
endfacet
facet normal -9.57869049778499e-18 3.46952413559957e-33 1.0
outer loop
vertex 55.5173485508543 9.43332407183897 2.47607213304489
vertex 18.7173485508544 39.4333240718389 2.47607213304489
vertex 18.7173485508544 9.43332407183897 2.47607213304489
endloop
endfacet
facet normal -9.57869049778499e-18 3.46952413559957e-33 1.0
outer loop
vertex 18.7173485508544 39.4333240718389 2.47607213304489
vertex 55.5173485508543 9.43332407183897 2.47607213304489
vertex 55.5173485508543 39.4333240718389 2.47607213304489
endloop
endfacet
facet normal -9.57869049778499e-18 3.46952413559957e-33 1.0
outer loop
vertex 55.5173485508543 39.4333240718389 2.47607213304489
vertex 55.5173485508543 9.43332407183897 2.47607213304489
vertex 55.5173485508543 15.433324071839 2.47607213304489
endloop
endfacet
facet normal -9.57869049778499e-18 3.46952413559957e-33 1.0
outer loop
vertex 55.5173485508543 39.4333240718389 2.47607213304489
vertex 55.5173485508543 15.433324071839 2.47607213304489
vertex 55.5173485508543 30.9333240718389 2.47607213304489
endloop
endfacet
facet normal -0.0 1.0 -0.0
outer loop
vertex 18.7173485508544 9.43332407183897 14.9760721330449
vertex 55.5173485508543 9.43332407183897 2.47607213304489
vertex 18.7173485508544 9.43332407183897 2.47607213304489
endloop
endfacet
facet normal -0.0 1.0 -0.0
outer loop
vertex 55.5173485508543 9.43332407183897 2.47607213304489
vertex 18.7173485508544 9.43332407183897 14.9760721330449
vertex 55.5173485508543 9.43332407183897 14.9760721330449
endloop
endfacet
facet normal -1.0 0.0 0.0
outer loop
vertex 55.5173485508543 9.43332407183897 14.9760721330449
vertex 55.5173485508543 17.233324071839 11.4760721330449
vertex 55.5173485508543 9.43332407183897 2.47607213304489
endloop
endfacet
facet normal -1.0 0.0 0.0
outer loop
vertex 55.5173485508543 17.233324071839 11.4760721330449
vertex 55.5173485508543 9.43332407183897 14.9760721330449
vertex 55.5173485508543 39.4333240718389 14.9760721330449
endloop
endfacet
facet normal -1.0 0.0 0.0
outer loop
vertex 55.5173485508543 9.43332407183897 2.47607213304489
vertex 55.5173485508543 17.233324071839 11.4760721330449
vertex 55.5173485508543 15.433324071839 4.47607213304488
endloop
endfacet
facet normal -1.0 0.0 0.0
outer loop
vertex 55.5173485508543 17.233324071839 11.4760721330449
vertex 55.5173485508543 39.4333240718389 14.9760721330449
vertex 55.5173485508543 31.6333240718389 11.4760721330449
endloop
endfacet
facet normal -1.0 0.0 0.0
outer loop
vertex 55.5173485508543 31.6333240718389 11.4760721330449
vertex 55.5173485508543 39.4333240718389 14.9760721330449
vertex 55.5173485508543 31.6333240718389 4.47607213304488
endloop
endfacet
facet normal -1.0 0.0 0.0
outer loop
vertex 55.5173485508543 31.6333240718389 4.47607213304488
vertex 55.5173485508543 30.9333240718389 2.47607213304489
vertex 55.5173485508543 30.9333240718389 4.47607213304488
endloop
endfacet
facet normal -1.0 0.0 0.0
outer loop
vertex 55.5173485508543 30.9333240718389 2.47607213304489
vertex 55.5173485508543 31.6333240718389 4.47607213304488
vertex 55.5173485508543 39.4333240718389 2.47607213304489
endloop
endfacet
facet normal -1.0 0.0 0.0
outer loop
vertex 55.5173485508543 39.4333240718389 2.47607213304489
vertex 55.5173485508543 31.6333240718389 4.47607213304488
vertex 55.5173485508543 39.4333240718389 14.9760721330449
endloop
endfacet
facet normal -1.0 0.0 0.0
outer loop
vertex 55.5173485508543 17.233324071839 4.47607213304488
vertex 55.5173485508543 15.433324071839 4.47607213304488
vertex 55.5173485508543 17.233324071839 11.4760721330449
endloop
endfacet
facet normal -1.0 0.0 0.0
outer loop
vertex 55.5173485508543 15.433324071839 2.47607213304489
vertex 55.5173485508543 9.43332407183897 2.47607213304489
vertex 55.5173485508543 15.433324071839 4.47607213304488
endloop
endfacet
facet normal 3.0651809592912e-16 -1.0 2.4374965627115e-47
outer loop
vertex 55.5173485508543 39.4333240718389 14.9760721330449
vertex 18.7173485508544 39.4333240718389 2.47607213304489
vertex 55.5173485508543 39.4333240718389 2.47607213304489
endloop
endfacet
facet normal 3.0651809592912e-16 -1.0 2.4374965627115e-47
outer loop
vertex 18.7173485508544 39.4333240718389 2.47607213304489
vertex 55.5173485508543 39.4333240718389 14.9760721330449
vertex 18.7173485508544 39.4333240718389 14.9760721330449
endloop
endfacet
facet normal -1.0 0.0 0.0
outer loop
vertex 18.7173485508544 9.43332407183897 14.9760721330449
vertex 18.7173485508544 0.953324071838979 2.47607213304489
vertex 18.7173485508544 0.953324071838979 14.9760721330449
endloop
endfacet
facet normal -1.0 0.0 0.0
outer loop
vertex 18.7173485508544 0.953324071838979 2.47607213304489
vertex 18.7173485508544 9.43332407183897 14.9760721330449
vertex 18.7173485508544 9.43332407183897 2.47607213304489
endloop
endfacet
facet normal -0.0 -0.0 -1.0
outer loop
vertex 57.5173485508543 31.6333240718389 11.4760721330449
vertex 55.5173485508543 17.233324071839 11.4760721330449
vertex 55.5173485508543 31.6333240718389 11.4760721330449
endloop
endfacet
facet normal -0.0 -0.0 -1.0
outer loop
vertex 55.5173485508543 17.233324071839 11.4760721330449
vertex 57.5173485508543 31.6333240718389 11.4760721330449
vertex 57.5173485508543 17.233324071839 11.4760721330449
endloop
endfacet
facet normal 0.0 0.0 1.0
outer loop
vertex 57.5173485508543 17.233324071839 4.47607213304488
vertex 55.5173485508543 30.9333240718389 4.47607213304488
vertex 55.5173485508543 17.233324071839 4.47607213304488
endloop
endfacet
facet normal 0.0 0.0 1.0
outer loop
vertex 55.5173485508543 30.9333240718389 4.47607213304488
vertex 57.5173485508543 17.233324071839 4.47607213304488
vertex 55.5173485508543 31.6333240718389 4.47607213304488
endloop
endfacet
facet normal 0.0 0.0 1.0
outer loop
vertex 55.5173485508543 31.6333240718389 4.47607213304488
vertex 57.5173485508543 17.233324071839 4.47607213304488
vertex 57.5173485508543 31.6333240718389 4.47607213304488
endloop
endfacet
facet normal -1.0 -0.0 -0.0
outer loop
vertex 55.5173485508543 17.233324071839 4.47607213304488
vertex 55.5173485508543 15.433324071839 2.47607213304489
vertex 55.5173485508543 15.433324071839 4.47607213304488
endloop
endfacet
facet normal -1.0 -0.0 -0.0
outer loop
vertex 55.5173485508543 15.433324071839 2.47607213304489
vertex 55.5173485508543 17.233324071839 4.47607213304488
vertex 55.5173485508543 30.9333240718389 2.47607213304489
endloop
endfacet
facet normal -1.0 -0.0 -0.0
outer loop
vertex 55.5173485508543 30.9333240718389 2.47607213304489
vertex 55.5173485508543 17.233324071839 4.47607213304488
vertex 55.5173485508543 30.9333240718389 4.47607213304488
endloop
endfacet
facet normal 0.0 1.0 0.0
outer loop
vertex 55.5173485508543 17.233324071839 11.4760721330449
vertex 57.5173485508543 17.233324071839 4.47607213304488
vertex 55.5173485508543 17.233324071839 4.47607213304488
endloop
endfacet
facet normal 0.0 1.0 0.0
outer loop
vertex 57.5173485508543 17.233324071839 4.47607213304488
vertex 55.5173485508543 17.233324071839 11.4760721330449
vertex 57.5173485508543 17.233324071839 11.4760721330449
endloop
endfacet
facet normal 0.0 -1.0 0.0
outer loop
vertex 57.5173485508543 31.6333240718389 11.4760721330449
vertex 55.5173485508543 31.6333240718389 4.47607213304488
vertex 57.5173485508543 31.6333240718389 4.47607213304488
endloop
endfacet
facet normal 0.0 -1.0 0.0
outer loop
vertex 55.5173485508543 31.6333240718389 4.47607213304488
vertex 57.5173485508543 31.6333240718389 11.4760721330449
vertex 55.5173485508543 31.6333240718389 11.4760721330449
endloop
endfacet
endsolid SensorDis v1~~
