solid LidDis 2~
facet normal 0.0 0.0 -1.0
outer loop
vertex 42.490286480215 57.5 0.0
vertex 8.49028648021505 20.7 0.0
vertex 8.49028648021505 57.5 0.0
endloop
endfacet
facet normal 0.0 0.0 -1.0
outer loop
vertex 8.49028648021505 20.7 0.0
vertex 42.490286480215 57.5 0.0
vertex 42.490286480215 20.7 0.0
endloop
endfacet
facet normal 0.0 0.0 -1.0
outer loop
vertex 42.490286480215 20.7 0.0
vertex 9.5 13.4510675852414 7.04991620636974e-15
vertex 8.49028648021505 20.7 0.0
endloop
endfacet
facet normal 0.0 0.0 -1.0
outer loop
vertex 9.5 13.4510675852414 7.04991620636974e-15
vertex 42.490286480215 20.7 0.0
vertex 41.5 13.4510675852414 4.22994972382185e-15
endloop
endfacet
facet normal 0.0 0.0 -1.0
outer loop
vertex 41.5 13.4510675852414 4.22994972382185e-15
vertex 42.490286480215 20.7 0.0
vertex 41.5 4.0 7.04991620636974e-15
endloop
endfacet
facet normal 0.0 0.0 -1.0
outer loop
vertex 8.49028648021505 20.7 0.0
vertex 0.0 0.0 0.0
vertex 0.0 20.7 0.0
endloop
endfacet
facet normal 0.0 0.0 -1.0
outer loop
vertex 0.0 0.0 0.0
vertex 8.49028648021505 20.7 0.0
vertex 9.5 4.0 7.04991620636974e-15
endloop
endfacet
facet normal 0.0 0.0 -1.0
outer loop
vertex 0.0 0.0 0.0
vertex 9.5 4.0 7.04991620636974e-15
vertex 51.0 0.0 0.0
endloop
endfacet
facet normal 0.0 0.0 -1.0
outer loop
vertex 9.5 4.0 7.04991620636974e-15
vertex 8.49028648021505 20.7 0.0
vertex 9.5 13.4510675852414 7.04991620636974e-15
endloop
endfacet
facet normal 0.0 0.0 -1.0
outer loop
vertex 51.0 0.0 0.0
vertex 9.5 4.0 7.04991620636974e-15
vertex 41.5 4.0 7.04991620636974e-15
endloop
endfacet
facet normal 0.0 0.0 -1.0
outer loop
vertex 51.0 0.0 0.0
vertex 41.5 4.0 7.04991620636974e-15
vertex 42.490286480215 20.7 0.0
endloop
endfacet
facet normal 0.0 0.0 -1.0
outer loop
vertex 51.0 0.0 0.0
vertex 42.490286480215 20.7 0.0
vertex 51.0 20.7 0.0
endloop
endfacet
facet normal -0.0 -1.0 -0.0
outer loop
vertex 51.0 0.0 3.0
vertex 0.0 0.0 0.0
vertex 51.0 0.0 0.0
endloop
endfacet
facet normal -0.0 -1.0 -0.0
outer loop
vertex 0.0 0.0 0.0
vertex 51.0 0.0 3.0
vertex 0.0 0.0 3.0
endloop
endfacet
facet normal -1.0 0.0 0.0
outer loop
vertex 0.0 20.7 3.0
vertex 0.0 0.0 0.0
vertex 0.0 0.0 3.0
endloop
endfacet
facet normal -1.0 0.0 0.0
outer loop
vertex 0.0 0.0 0.0
vertex 0.0 20.7 3.0
vertex 0.0 20.7 0.0
endloop
endfacet
facet normal -0.0 1.0 -0.0
outer loop
vertex 0.0 20.7 3.0
vertex 8.49028648021505 20.7 0.0
vertex 0.0 20.7 0.0
endloop
endfacet
facet normal -0.0 1.0 -0.0
outer loop
vertex 8.49028648021505 20.7 0.0
vertex 0.0 20.7 3.0
vertex 8.49028648021505 20.7 3.0
endloop
endfacet
facet normal -3.86274551159628e-17 1.0 3.01820674043948e-16
outer loop
vertex 8.49028648021505 20.7 3.0
vertex 42.490286480215 20.7 0.0
vertex 8.49028648021505 20.7 0.0
endloop
endfacet
facet normal -3.86274551159628e-17 1.0 3.01820674043948e-16
outer loop
vertex 42.490286480215 20.7 0.0
vertex 8.49028648021505 20.7 3.0
vertex 17.8151484766728 20.7 2.6
endloop
endfacet
facet normal -3.86274551159628e-17 1.0 3.01820674043948e-16
outer loop
vertex 17.8151484766728 20.7 2.6
vertex 8.49028648021505 20.7 3.0
vertex 10.490286480215 20.7 3.0
endloop
endfacet
facet normal -3.86274551159628e-17 1.0 3.01820674043948e-16
outer loop
vertex 17.8151484766728 20.7 2.6
vertex 10.490286480215 20.7 3.0
vertex 17.8151484766728 20.7 6.0
endloop
endfacet
facet normal -3.86274551159628e-17 1.0 3.01820674043948e-16
outer loop
vertex 17.8151484766728 20.7 6.0
vertex 10.490286480215 20.7 3.0
vertex 10.490286480215 20.7 6.0
endloop
endfacet
facet normal -3.86274551159628e-17 1.0 3.01820674043948e-16
outer loop
vertex 32.0151484766728 20.7 6.0
vertex 40.490286480215 20.7 3.0
vertex 32.0151484766728 20.7 2.6
endloop
endfacet
facet normal -3.86274551159628e-17 1.0 3.01820674043948e-16
outer loop
vertex 40.490286480215 20.7 3.0
vertex 32.0151484766728 20.7 6.0
vertex 40.490286480215 20.7 6.0
endloop
endfacet
facet normal -3.86274551159628e-17 1.0 3.01820674043948e-16
outer loop
vertex 42.490286480215 20.7 0.0
vertex 32.0151484766728 20.7 2.6
vertex 42.490286480215 20.7 3.0
endloop
endfacet
facet normal -3.86274551159628e-17 1.0 3.01820674043948e-16
outer loop
vertex 32.0151484766728 20.7 2.6
vertex 42.490286480215 20.7 0.0
vertex 17.8151484766728 20.7 2.6
endloop
endfacet
facet normal -3.86274551159628e-17 1.0 3.01820674043948e-16
outer loop
vertex 42.490286480215 20.7 3.0
vertex 32.0151484766728 20.7 2.6
vertex 40.490286480215 20.7 3.0
endloop
endfacet
facet normal -0.0 1.0 -0.0
outer loop
vertex 42.490286480215 20.7 3.0
vertex 51.0 20.7 0.0
vertex 42.490286480215 20.7 0.0
endloop
endfacet
facet normal -0.0 1.0 -0.0
outer loop
vertex 51.0 20.7 0.0
vertex 42.490286480215 20.7 3.0
vertex 51.0 20.7 3.0
endloop
endfacet
facet normal 1.0 0.0 0.0
outer loop
vertex 51.0 20.7 0.0
vertex 51.0 0.0 3.0
vertex 51.0 0.0 0.0
endloop
endfacet
facet normal 1.0 0.0 0.0
outer loop
vertex 51.0 0.0 3.0
vertex 51.0 20.7 0.0
vertex 51.0 20.7 3.0
endloop
endfacet
facet normal 1.0 4.02095798095791e-17 5.53388428468744e-16
outer loop
vertex 42.490286480215 57.5 0.0
vertex 42.490286480215 20.7 3.0
vertex 42.490286480215 20.7 0.0
endloop
endfacet
facet normal 1.0 4.02095798095791e-17 5.53388428468744e-16
outer loop
vertex 42.490286480215 20.7 3.0
vertex 42.490286480215 57.5 0.0
vertex 42.490286480215 55.5 3.0
endloop
endfacet
facet normal 1.0 4.02095798095791e-17 5.53388428468744e-16
outer loop
vertex 42.490286480215 55.5 3.0
vertex 42.490286480215 57.5 0.0
vertex 42.490286480215 57.5 3.0
endloop
endfacet
facet normal -1.0 0.0 0.0
outer loop
vertex 8.49028648021505 57.5 3.0
vertex 8.49028648021505 20.7 0.0
vertex 8.49028648021505 20.7 3.0
endloop
endfacet
facet normal -1.0 0.0 0.0
outer loop
vertex 8.49028648021505 20.7 0.0
vertex 8.49028648021505 57.5 3.0
vertex 8.49028648021505 57.5 0.0
endloop
endfacet
facet normal -0.0 1.0 0.0
outer loop
vertex 8.49028648021505 57.5 3.0
vertex 42.490286480215 57.5 0.0
vertex 8.49028648021505 57.5 0.0
endloop
endfacet
facet normal -0.0 1.0 0.0
outer loop
vertex 42.490286480215 57.5 0.0
vertex 8.49028648021505 57.5 3.0
vertex 42.490286480215 57.5 3.0
endloop
endfacet
facet normal 5.5534349361476e-17 2.78766188216214e-16 1.0
outer loop
vertex 2.0 2.0 6.00000000000001
vertex 9.5 4.0 6.00000000000001
vertex 2.0 18.7 6.00000000000001
endloop
endfacet
facet normal 5.5534349361476e-17 2.78766188216214e-16 1.0
outer loop
vertex 9.5 4.0 6.00000000000001
vertex 2.0 2.0 6.00000000000001
vertex 49.0 2.0 6.00000000000001
endloop
endfacet
facet normal 5.5534349361476e-17 2.78766188216214e-16 1.0
outer loop
vertex 9.5 4.0 6.00000000000001
vertex 49.0 2.0 6.00000000000001
vertex 41.5 4.0 6.00000000000001
endloop
endfacet
facet normal 5.5534349361476e-17 2.78766188216214e-16 1.0
outer loop
vertex 41.5 4.0 6.00000000000001
vertex 49.0 2.0 6.00000000000001
vertex 41.5 13.4510675852414 6.0
endloop
endfacet
facet normal 5.5534349361476e-17 2.78766188216214e-16 1.0
outer loop
vertex 41.5 13.4510675852414 6.0
vertex 32.0151484766728 18.7 6.0
vertex 32.0151484766728 13.4510675852414 6.0
endloop
endfacet
facet normal 5.5534349361476e-17 2.78766188216214e-16 1.0
outer loop
vertex 32.0151484766728 18.7 6.0
vertex 41.5 13.4510675852414 6.0
vertex 40.490286480215 18.7 6.0
endloop
endfacet
facet normal 5.5534349361476e-17 2.78766188216214e-16 1.0
outer loop
vertex 40.490286480215 18.7 6.0
vertex 41.5 13.4510675852414 6.0
vertex 49.0 18.7 6.0
endloop
endfacet
facet normal 5.5534349361476e-17 2.78766188216214e-16 1.0
outer loop
vertex 49.0 18.7 6.0
vertex 41.5 13.4510675852414 6.0
vertex 49.0 2.0 6.00000000000001
endloop
endfacet
facet normal 5.5534349361476e-17 2.78766188216214e-16 1.0
outer loop
vertex 2.0 18.7 6.00000000000001
vertex 9.5 13.4510675852414 6.00000000000001
vertex 10.490286480215 18.7 6.0
endloop
endfacet
facet normal 5.5534349361476e-17 2.78766188216214e-16 1.0
outer loop
vertex 9.5 13.4510675852414 6.00000000000001
vertex 2.0 18.7 6.00000000000001
vertex 9.5 4.0 6.00000000000001
endloop
endfacet
facet normal 5.5534349361476e-17 2.78766188216214e-16 1.0
outer loop
vertex 10.490286480215 18.7 6.0
vertex 9.5 13.4510675852414 6.00000000000001
vertex 17.8151484766728 13.4510675852414 6.00000000000001
endloop
endfacet
facet normal 5.5534349361476e-17 2.78766188216214e-16 1.0
outer loop
vertex 10.490286480215 18.7 6.0
vertex 17.8151484766728 13.4510675852414 6.00000000000001
vertex 17.8151484766728 18.7 6.0
endloop
endfacet
facet normal 1.0 -2.56453484511633e-32 -6.74991977205614e-17
outer loop
vertex 49.0 18.7 3.0
vertex 49.0 2.0 6.00000000000001
vertex 49.0 2.0 3.00000000000001
endloop
endfacet
facet normal 1.0 -2.56453484511633e-32 -6.74991977205614e-17
outer loop
vertex 49.0 2.0 6.00000000000001
vertex 49.0 18.7 3.0
vertex 49.0 18.7 6.0
endloop
endfacet
facet normal -0.0 1.0 -0.0
outer loop
vertex 2.0 18.7 3.00000000000001
vertex 10.490286480215 18.7 6.0
vertex 10.490286480215 18.7 3.0
endloop
endfacet
facet normal -0.0 1.0 -0.0
outer loop
vertex 10.490286480215 18.7 6.0
vertex 2.0 18.7 3.00000000000001
vertex 2.0 18.7 6.00000000000001
endloop
endfacet
facet normal -1.0 0.0 6.74991977205614e-17
outer loop
vertex 2.0 2.0 6.00000000000001
vertex 2.0 18.7 3.00000000000001
vertex 2.0 2.0 3.00000000000001
endloop
endfacet
facet normal -1.0 0.0 6.74991977205614e-17
outer loop
vertex 2.0 18.7 3.00000000000001
vertex 2.0 2.0 6.00000000000001
vertex 2.0 18.7 6.00000000000001
endloop
endfacet
facet normal 0.0 -1.0 1.89967801968047e-16
outer loop
vertex 49.0 2.0 6.00000000000001
vertex 2.0 2.0 3.00000000000001
vertex 49.0 2.0 3.00000000000001
endloop
endfacet
facet normal 0.0 -1.0 1.89967801968047e-16
outer loop
vertex 2.0 2.0 3.00000000000001
vertex 49.0 2.0 6.00000000000001
vertex 2.0 2.0 6.00000000000001
endloop
endfacet
facet normal -1.01389743492432e-18 3.15363677349299e-18 1.0
outer loop
vertex 10.490286480215 20.7 3.0
vertex 8.49028648021505 57.5 3.0
vertex 8.49028648021505 20.7 3.0
endloop
endfacet
facet normal -1.01389743492432e-18 3.15363677349299e-18 1.0
outer loop
vertex 8.49028648021505 57.5 3.0
vertex 10.490286480215 20.7 3.0
vertex 10.490286480215 55.5 3.0
endloop
endfacet
facet normal -1.01389743492432e-18 3.15363677349299e-18 1.0
outer loop
vertex 8.49028648021505 57.5 3.0
vertex 10.490286480215 55.5 3.0
vertex 42.490286480215 57.5 3.0
endloop
endfacet
facet normal -1.01389743492432e-18 3.15363677349299e-18 1.0
outer loop
vertex 42.490286480215 57.5 3.0
vertex 10.490286480215 55.5 3.0
vertex 15.4621920635106 55.5 3.0
endloop
endfacet
facet normal -1.01389743492432e-18 3.15363677349299e-18 1.0
outer loop
vertex 42.490286480215 57.5 3.0
vertex 15.4621920635106 55.5 3.0
vertex 35.3621920635106 55.5 3.0
endloop
endfacet
facet normal -1.01389743492432e-18 3.15363677349299e-18 1.0
outer loop
vertex 42.490286480215 57.5 3.0
vertex 35.3621920635106 55.5 3.0
vertex 40.490286480215 55.5 3.0
endloop
endfacet
facet normal -1.01389743492432e-18 3.15363677349299e-18 1.0
outer loop
vertex 42.490286480215 57.5 3.0
vertex 40.490286480215 55.5 3.0
vertex 42.490286480215 55.5 3.0
endloop
endfacet
facet normal 2.37066849189892e-17 1.27617556106131e-16 1.0
outer loop
vertex 0.0 0.0 3.0
vertex 2.0 2.0 3.00000000000001
vertex 0.0 20.7 3.0
endloop
endfacet
facet normal 2.37066849189892e-17 1.27617556106131e-16 1.0
outer loop
vertex 2.0 2.0 3.00000000000001
vertex 0.0 0.0 3.0
vertex 51.0 0.0 3.0
endloop
endfacet
facet normal 2.37066849189892e-17 1.27617556106131e-16 1.0
outer loop
vertex 2.0 2.0 3.00000000000001
vertex 51.0 0.0 3.0
vertex 49.0 2.0 3.00000000000001
endloop
endfacet
facet normal 2.37066849189892e-17 1.27617556106131e-16 1.0
outer loop
vertex 49.0 2.0 3.00000000000001
vertex 51.0 0.0 3.0
vertex 49.0 18.7 3.0
endloop
endfacet
facet normal 2.37066849189892e-17 1.27617556106131e-16 1.0
outer loop
vertex 49.0 18.7 3.0
vertex 40.490286480215 20.7 3.0
vertex 40.490286480215 18.7 3.0
endloop
endfacet
facet normal 2.37066849189892e-17 1.27617556106131e-16 1.0
outer loop
vertex 40.490286480215 20.7 3.0
vertex 49.0 18.7 3.0
vertex 42.490286480215 20.7 3.0
endloop
endfacet
facet normal 2.37066849189892e-17 1.27617556106131e-16 1.0
outer loop
vertex 42.490286480215 20.7 3.0
vertex 49.0 18.7 3.0
vertex 51.0 20.7 3.0
endloop
endfacet
facet normal 2.37066849189892e-17 1.27617556106131e-16 1.0
outer loop
vertex 51.0 20.7 3.0
vertex 49.0 18.7 3.0
vertex 51.0 0.0 3.0
endloop
endfacet
facet normal 2.37066849189892e-17 1.27617556106131e-16 1.0
outer loop
vertex 0.0 20.7 3.0
vertex 2.0 18.7 3.00000000000001
vertex 8.49028648021505 20.7 3.0
endloop
endfacet
facet normal 2.37066849189892e-17 1.27617556106131e-16 1.0
outer loop
vertex 2.0 18.7 3.00000000000001
vertex 0.0 20.7 3.0
vertex 2.0 2.0 3.00000000000001
endloop
endfacet
facet normal 2.37066849189892e-17 1.27617556106131e-16 1.0
outer loop
vertex 8.49028648021505 20.7 3.0
vertex 2.0 18.7 3.00000000000001
vertex 10.490286480215 18.7 3.0
endloop
endfacet
facet normal 2.37066849189892e-17 1.27617556106131e-16 1.0
outer loop
vertex 8.49028648021505 20.7 3.0
vertex 10.490286480215 18.7 3.0
vertex 10.490286480215 20.7 3.0
endloop
endfacet
facet normal -1.92492806274823e-16 -1.34645613773392e-31 1.0
outer loop
vertex 17.8151484766728 18.7 6.0
vertex 10.490286480215 20.7 6.0
vertex 10.490286480215 18.7 6.0
endloop
endfacet
facet normal -1.92492806274823e-16 -1.34645613773392e-31 1.0
outer loop
vertex 10.490286480215 20.7 6.0
vertex 17.8151484766728 18.7 6.0
vertex 17.8151484766728 20.7 6.0
endloop
endfacet
facet normal 1.0 -0.0 -0.0
outer loop
vertex 40.490286480215 20.7 3.0
vertex 40.490286480215 18.7 6.0
vertex 40.490286480215 18.7 3.0
endloop
endfacet
facet normal 1.0 -0.0 -0.0
outer loop
vertex 40.490286480215 18.7 6.0
vertex 40.490286480215 20.7 3.0
vertex 40.490286480215 20.7 6.0
endloop
endfacet
facet normal -1.0 0.0 0.0
outer loop
vertex 10.490286480215 20.7 6.0
vertex 10.490286480215 18.7 3.0
vertex 10.490286480215 18.7 6.0
endloop
endfacet
facet normal -1.0 0.0 0.0
outer loop
vertex 10.490286480215 18.7 3.0
vertex 10.490286480215 20.7 6.0
vertex 10.490286480215 20.7 3.0
endloop
endfacet
facet normal 3.31382070147429e-16 1.0 -0.0
outer loop
vertex 40.490286480215 18.7 6.0
vertex 49.0 18.7 3.0
vertex 40.490286480215 18.7 3.0
endloop
endfacet
facet normal 3.31382070147429e-16 1.0 -0.0
outer loop
vertex 49.0 18.7 3.0
vertex 40.490286480215 18.7 6.0
vertex 49.0 18.7 6.0
endloop
endfacet
facet normal -0.0 -0.0 1.0
outer loop
vertex 42.490286480215 20.7 3.0
vertex 40.490286480215 55.5 3.0
vertex 40.490286480215 20.7 3.0
endloop
endfacet
facet normal -0.0 -0.0 1.0
outer loop
vertex 40.490286480215 55.5 3.0
vertex 42.490286480215 20.7 3.0
vertex 42.490286480215 55.5 3.0
endloop
endfacet
facet normal 1.0 -0.0 -0.0
outer loop
vertex 40.490286480215 55.5 3.0
vertex 40.490286480215 20.7 6.0
vertex 40.490286480215 20.7 3.0
endloop
endfacet
facet normal 1.0 -0.0 -0.0
outer loop
vertex 40.490286480215 20.7 6.0
vertex 40.490286480215 55.5 3.0
vertex 40.490286480215 55.5 6.0
endloop
endfacet
facet normal -0.0 1.0 -0.0
outer loop
vertex 35.3621920635106 55.5 6.0
vertex 40.490286480215 55.5 3.0
vertex 35.3621920635106 55.5 3.0
endloop
endfacet
facet normal -0.0 1.0 -0.0
outer loop
vertex 40.490286480215 55.5 3.0
vertex 35.3621920635106 55.5 6.0
vertex 40.490286480215 55.5 6.0
endloop
endfacet
facet normal -1.0 0.0 0.0
outer loop
vertex 10.490286480215 55.5 6.0
vertex 10.490286480215 20.7 3.0
vertex 10.490286480215 20.7 6.0
endloop
endfacet
facet normal -1.0 0.0 0.0
outer loop
vertex 10.490286480215 20.7 3.0
vertex 10.490286480215 55.5 6.0
vertex 10.490286480215 55.5 3.0
endloop
endfacet
facet normal -1.0 1.6433764647673e-32 5.50774703622636e-17
outer loop
vertex 41.5 13.4510675852414 6.0
vertex 41.5 4.0 7.04991620636974e-15
vertex 41.5 4.0 6.00000000000001
endloop
endfacet
facet normal -1.0 1.6433764647673e-32 5.50774703622636e-17
outer loop
vertex 41.5 4.0 7.04991620636974e-15
vertex 41.5 13.4510675852414 6.0
vertex 41.5 13.4510675852414 4.22994972382185e-15
endloop
endfacet
facet normal 0.0 -1.0 0.0
outer loop
vertex 41.5 13.4510675852414 4.22994972382185e-15
vertex 32.0151484766728 13.4510675852414 2.6
vertex 9.5 13.4510675852414 7.04991620636974e-15
endloop
endfacet
facet normal 0.0 -1.0 0.0
outer loop
vertex 32.0151484766728 13.4510675852414 2.6
vertex 41.5 13.4510675852414 4.22994972382185e-15
vertex 41.5 13.4510675852414 6.0
endloop
endfacet
facet normal 0.0 -1.0 0.0
outer loop
vertex 32.0151484766728 13.4510675852414 2.6
vertex 41.5 13.4510675852414 6.0
vertex 32.0151484766728 13.4510675852414 6.0
endloop
endfacet
facet normal 0.0 -1.0 0.0
outer loop
vertex 9.5 13.4510675852414 7.04991620636974e-15
vertex 17.8151484766728 13.4510675852414 2.60000000000001
vertex 9.5 13.4510675852414 6.00000000000001
endloop
endfacet
facet normal 0.0 -1.0 0.0
outer loop
vertex 17.8151484766728 13.4510675852414 2.60000000000001
vertex 9.5 13.4510675852414 7.04991620636974e-15
vertex 32.0151484766728 13.4510675852414 2.6
endloop
endfacet
facet normal 0.0 -1.0 0.0
outer loop
vertex 9.5 13.4510675852414 6.00000000000001
vertex 17.8151484766728 13.4510675852414 2.60000000000001
vertex 17.8151484766728 13.4510675852414 6.00000000000001
endloop
endfacet
facet normal 1.0 4.10844116191826e-33 -5.50774703622636e-17
outer loop
vertex 9.5 13.4510675852414 7.04991620636974e-15
vertex 9.5 4.0 6.00000000000001
vertex 9.5 4.0 7.04991620636974e-15
endloop
endfacet
facet normal 1.0 4.10844116191826e-33 -5.50774703622636e-17
outer loop
vertex 9.5 4.0 6.00000000000001
vertex 9.5 13.4510675852414 7.04991620636974e-15
vertex 9.5 13.4510675852414 6.00000000000001
endloop
endfacet
facet normal -0.0 1.0 -1.1189079132254e-16
outer loop
vertex 9.5 4.0 6.00000000000001
vertex 41.5 4.0 7.04991620636974e-15
vertex 9.5 4.0 7.04991620636974e-15
endloop
endfacet
facet normal -0.0 1.0 -1.1189079132254e-16
outer loop
vertex 41.5 4.0 7.04991620636974e-15
vertex 9.5 4.0 6.00000000000001
vertex 41.5 4.0 6.00000000000001
endloop
endfacet
facet normal 1.24775246198171e-16 1.76247905159244e-16 1.0
outer loop
vertex 40.490286480215 18.7 6.0
vertex 32.0151484766728 20.7 6.0
vertex 32.0151484766728 18.7 6.0
endloop
endfacet
facet normal 1.24775246198171e-16 1.76247905159244e-16 1.0
outer loop
vertex 32.0151484766728 20.7 6.0
vertex 40.490286480215 18.7 6.0
vertex 40.490286480215 20.7 6.0
endloop
endfacet
facet normal 4.96472972279559e-17 4.02934291164461e-16 1.0
outer loop
vertex 32.0151484766728 13.4510675852414 2.6
vertex 17.8151484766728 18.7 2.6
vertex 17.8151484766728 13.4510675852414 2.60000000000001
endloop
endfacet
facet normal 4.96472972279559e-17 4.02934291164461e-16 1.0
outer loop
vertex 17.8151484766728 18.7 2.6
vertex 32.0151484766728 13.4510675852414 2.6
vertex 32.0151484766728 18.7 2.6
endloop
endfacet
facet normal 1.0 -0.0 -0.0
outer loop
vertex 17.8151484766728 18.7 2.6
vertex 17.8151484766728 13.4510675852414 6.00000000000001
vertex 17.8151484766728 13.4510675852414 2.60000000000001
endloop
endfacet
facet normal 1.0 -0.0 -0.0
outer loop
vertex 17.8151484766728 13.4510675852414 6.00000000000001
vertex 17.8151484766728 18.7 2.6
vertex 17.8151484766728 18.7 6.0
endloop
endfacet
facet normal -1.0 0.0 0.0
outer loop
vertex 32.0151484766728 18.7 6.0
vertex 32.0151484766728 13.4510675852414 2.6
vertex 32.0151484766728 13.4510675852414 6.0
endloop
endfacet
facet normal -1.0 0.0 0.0
outer loop
vertex 32.0151484766728 13.4510675852414 2.6
vertex 32.0151484766728 18.7 6.0
vertex 32.0151484766728 18.7 2.6
endloop
endfacet
facet normal -1.81166777970014e-32 1.76247905159244e-16 1.0
outer loop
vertex 17.8151484766728 18.7 2.6
vertex 32.0151484766728 20.7 2.6
vertex 17.8151484766728 20.7 2.6
endloop
endfacet
facet normal -1.81166777970014e-32 1.76247905159244e-16 1.0
outer loop
vertex 32.0151484766728 20.7 2.6
vertex 17.8151484766728 18.7 2.6
vertex 32.0151484766728 18.7 2.6
endloop
endfacet
facet normal -1.0 0.0 0.0
outer loop
vertex 32.0151484766728 20.7 6.0
vertex 32.0151484766728 18.7 2.6
vertex 32.0151484766728 18.7 6.0
endloop
endfacet
facet normal -1.0 0.0 0.0
outer loop
vertex 32.0151484766728 18.7 2.6
vertex 32.0151484766728 20.7 6.0
vertex 32.0151484766728 20.7 2.6
endloop
endfacet
facet normal 1.0 1.40998324127395e-15 -8.8675579101186e-33
outer loop
vertex 17.8151484766728 20.7 2.6
vertex 17.8151484766728 18.7 6.0
vertex 17.8151484766728 18.7 2.6
endloop
endfacet
facet normal 1.0 1.40998324127395e-15 -8.8675579101186e-33
outer loop
vertex 17.8151484766728 18.7 6.0
vertex 17.8151484766728 20.7 2.6
vertex 17.8151484766728 20.7 6.0
endloop
endfacet
facet normal 4.9647297227956e-17 6.68170888814229e-17 1.0
outer loop
vertex 17.8151484766728 20.7 2.6
vertex 32.0151484766728 31.2510675852414 2.6
vertex 17.8151484766728 31.2510675852414 2.6
endloop
endfacet
facet normal 4.9647297227956e-17 6.68170888814229e-17 1.0
outer loop
vertex 32.0151484766728 31.2510675852414 2.6
vertex 17.8151484766728 20.7 2.6
vertex 32.0151484766728 20.7 2.6
endloop
endfacet
facet normal -1.0 0.0 0.0
outer loop
vertex 32.0151484766728 31.2510675852414 6.0
vertex 32.0151484766728 20.7 2.6
vertex 32.0151484766728 20.7 6.0
endloop
endfacet
facet normal -1.0 0.0 0.0
outer loop
vertex 32.0151484766728 20.7 2.6
vertex 32.0151484766728 31.2510675852414 6.0
vertex 32.0151484766728 31.2510675852414 2.6
endloop
endfacet
facet normal 1.65864393580138e-32 -1.0 1.67042722203557e-16
outer loop
vertex 32.0151484766728 31.2510675852414 6.0
vertex 17.8151484766728 31.2510675852414 2.6
vertex 32.0151484766728 31.2510675852414 2.6
endloop
endfacet
facet normal 1.65864393580138e-32 -1.0 1.67042722203557e-16
outer loop
vertex 17.8151484766728 31.2510675852414 2.6
vertex 32.0151484766728 31.2510675852414 6.0
vertex 17.8151484766728 31.2510675852414 6.0
endloop
endfacet
facet normal 1.0 2.67268355525692e-16 9.15105458508243e-33
outer loop
vertex 17.8151484766728 31.2510675852414 2.6
vertex 17.8151484766728 20.7 6.0
vertex 17.8151484766728 20.7 2.6
endloop
endfacet
facet normal 1.0 2.67268355525692e-16 9.15105458508243e-33
outer loop
vertex 17.8151484766728 20.7 6.0
vertex 17.8151484766728 31.2510675852414 2.6
vertex 17.8151484766728 31.2510675852414 6.0
endloop
endfacet
facet normal 9.89754945318304e-18 -1.15452118619692e-17 1.0
outer loop
vertex 17.8151484766728 20.7 6.0
vertex 10.490286480215 55.5 6.0
vertex 10.490286480215 20.7 6.0
endloop
endfacet
facet normal 9.89754945318304e-18 -1.15452118619692e-17 1.0
outer loop
vertex 10.490286480215 55.5 6.0
vertex 17.8151484766728 20.7 6.0
vertex 15.4621920635106 40.3 6.0
endloop
endfacet
facet normal 9.89754945318304e-18 -1.15452118619692e-17 1.0
outer loop
vertex 15.4621920635106 40.3 6.0
vertex 17.8151484766728 20.7 6.0
vertex 17.8151484766728 31.2510675852414 6.0
endloop
endfacet
facet normal 9.89754945318304e-18 -1.15452118619692e-17 1.0
outer loop
vertex 40.490286480215 20.7 6.0
vertex 32.0151484766728 31.2510675852414 6.0
vertex 32.0151484766728 20.7 6.0
endloop
endfacet
facet normal 9.89754945318304e-18 -1.15452118619692e-17 1.0
outer loop
vertex 32.0151484766728 31.2510675852414 6.0
vertex 40.490286480215 20.7 6.0
vertex 35.3621920635106 40.3 6.0
endloop
endfacet
facet normal 9.89754945318304e-18 -1.15452118619692e-17 1.0
outer loop
vertex 35.3621920635106 40.3 6.0
vertex 40.490286480215 20.7 6.0
vertex 35.3621920635106 55.5 6.0
endloop
endfacet
facet normal 9.89754945318304e-18 -1.15452118619692e-17 1.0
outer loop
vertex 35.3621920635106 55.5 6.0
vertex 40.490286480215 20.7 6.0
vertex 40.490286480215 55.5 6.0
endloop
endfacet
facet normal 9.89754945318304e-18 -1.15452118619692e-17 1.0
outer loop
vertex 17.8151484766728 31.2510675852414 6.0
vertex 35.3621920635106 40.3 6.0
vertex 15.4621920635106 40.3 6.0
endloop
endfacet
facet normal 9.89754945318304e-18 -1.15452118619692e-17 1.0
outer loop
vertex 35.3621920635106 40.3 6.0
vertex 17.8151484766728 31.2510675852414 6.0
vertex 32.0151484766728 31.2510675852414 6.0
endloop
endfacet
facet normal 9.89754945318304e-18 -1.15452118619692e-17 1.0
outer loop
vertex 15.4621920635106 55.5 6.0
vertex 10.490286480215 55.5 6.0
vertex 15.4621920635106 40.3 6.0
endloop
endfacet
facet normal -0.0 -0.0 1.0
outer loop
vertex 35.3621920635106 40.3 3.0
vertex 15.4621920635106 55.5 3.0
vertex 15.4621920635106 40.3 3.0
endloop
endfacet
facet normal -0.0 -0.0 1.0
outer loop
vertex 15.4621920635106 55.5 3.0
vertex 35.3621920635106 40.3 3.0
vertex 35.3621920635106 55.5 3.0
endloop
endfacet
facet normal 1.0 -0.0 -0.0
outer loop
vertex 15.4621920635106 55.5 3.0
vertex 15.4621920635106 40.3 6.0
vertex 15.4621920635106 40.3 3.0
endloop
endfacet
facet normal 1.0 -0.0 -0.0
outer loop
vertex 15.4621920635106 40.3 6.0
vertex 15.4621920635106 55.5 3.0
vertex 15.4621920635106 55.5 6.0
endloop
endfacet
facet normal -0.0 1.0 -0.0
outer loop
vertex 15.4621920635106 40.3 6.0
vertex 35.3621920635106 40.3 3.0
vertex 15.4621920635106 40.3 3.0
endloop
endfacet
facet normal -0.0 1.0 -0.0
outer loop
vertex 35.3621920635106 40.3 3.0
vertex 15.4621920635106 40.3 6.0
vertex 35.3621920635106 40.3 6.0
endloop
endfacet
facet normal -1.0 0.0 0.0
outer loop
vertex 35.3621920635106 55.5 6.0
vertex 35.3621920635106 40.3 3.0
vertex 35.3621920635106 40.3 6.0
endloop
endfacet
facet normal -1.0 0.0 0.0
outer loop
vertex 35.3621920635106 40.3 3.0
vertex 35.3621920635106 55.5 6.0
vertex 35.3621920635106 55.5 3.0
endloop
endfacet
facet normal -0.0 1.0 -0.0
outer loop
vertex 10.490286480215 55.5 3.0
vertex 15.4621920635106 55.5 6.0
vertex 15.4621920635106 55.5 3.0
endloop
endfacet
facet normal -0.0 1.0 -0.0
outer loop
vertex 15.4621920635106 55.5 6.0
vertex 10.490286480215 55.5 3.0
vertex 10.490286480215 55.5 6.0
endloop
endfacet
endsolid LidDis 2~
