solid Enclosure lid Final 4
facet normal -1.0 0.0 0.0
outer loop
vertex 0.0 27.5 8.265423975343
vertex 0.0 1.76247905159244e-15 5.86542397534301
vertex 0.0 1.76247905159244e-15 8.265423975343
endloop
endfacet
facet normal -1.0 0.0 0.0
outer loop
vertex 0.0 1.76247905159244e-15 5.86542397534301
vertex 0.0 27.5 8.265423975343
vertex 0.0 27.5 5.86542397534301
endloop
endfacet
facet normal -0.0 1.0 -0.0
outer loop
vertex 0.0 27.5 8.265423975343
vertex 59.4 27.5 5.86542397534301
vertex 0.0 27.5 5.86542397534301
endloop
endfacet
facet normal -0.0 1.0 -0.0
outer loop
vertex 59.4 27.5 5.86542397534301
vertex 0.0 27.5 8.265423975343
vertex 59.4 27.5 8.265423975343
endloop
endfacet
facet normal 1.0 -0.0 -0.0
outer loop
vertex 59.4 27.5 5.86542397534301
vertex 59.4 1.76247905159244e-15 8.265423975343
vertex 59.4 1.76247905159244e-15 5.86542397534301
endloop
endfacet
facet normal 1.0 -0.0 -0.0
outer loop
vertex 59.4 1.76247905159244e-15 8.265423975343
vertex 59.4 27.5 5.86542397534301
vertex 59.4 27.5 8.265423975343
endloop
endfacet
facet normal 0.0 -1.0 0.0
outer loop
vertex 59.4 1.76247905159244e-15 8.265423975343
vertex 0.0 1.76247905159244e-15 5.86542397534301
vertex 59.4 1.76247905159244e-15 5.86542397534301
endloop
endfacet
facet normal 0.0 -1.0 0.0
outer loop
vertex 0.0 1.76247905159244e-15 5.86542397534301
vertex 59.4 1.76247905159244e-15 8.265423975343
vertex 0.0 1.76247905159244e-15 8.265423975343
endloop
endfacet
facet normal 0.0 -1.0 0.0
outer loop
vertex 33.6999283633598 24.4 8.265423975343
vertex 33.5999283633598 24.4 5.86542397534301
vertex 33.6999283633598 24.4 5.86542397534301
endloop
endfacet
facet normal 0.0 -1.0 0.0
outer loop
vertex 33.5999283633598 24.4 5.86542397534301
vertex 33.6999283633598 24.4 8.265423975343
vertex 25.5999283633598 24.4 5.86542397534301
endloop
endfacet
facet normal 0.0 -1.0 0.0
outer loop
vertex 25.5999283633598 24.4 5.86542397534301
vertex 33.6999283633598 24.4 8.265423975343
vertex 25.4999283633598 24.4 5.86542397534301
endloop
endfacet
facet normal 0.0 -1.0 0.0
outer loop
vertex 25.4999283633598 24.4 5.86542397534301
vertex 33.6999283633598 24.4 8.265423975343
vertex 25.4999283633598 24.4 8.265423975343
endloop
endfacet
facet normal 0.0 -1.0 0.0
outer loop
vertex 33.5999283633598 24.4 5.86542397534301
vertex 25.5999283633598 24.4 0.265423975343007
vertex 33.5999283633598 24.4 0.265423975343007
endloop
endfacet
facet normal 0.0 -1.0 0.0
outer loop
vertex 25.5999283633598 24.4 0.265423975343007
vertex 33.5999283633598 24.4 5.86542397534301
vertex 25.5999283633598 24.4 5.86542397534301
endloop
endfacet
facet normal -0.0 1.0 -0.0
outer loop
vertex 25.4999283633598 19.7 8.265423975343
vertex 33.6999283633598 19.7 5.86542397534301
vertex 25.4999283633598 19.7 5.86542397534301
endloop
endfacet
facet normal -0.0 1.0 -0.0
outer loop
vertex 33.6999283633598 19.7 5.86542397534301
vertex 25.4999283633598 19.7 8.265423975343
vertex 33.6999283633598 19.7 8.265423975343
endloop
endfacet
facet normal -0.0 1.0 -0.0
outer loop
vertex 37.0999283633598 19.7 8.265423975343
vertex 45.3999283633598 19.7 5.86542397534301
vertex 37.0999283633598 19.7 5.86542397534301
endloop
endfacet
facet normal -0.0 1.0 -0.0
outer loop
vertex 45.3999283633598 19.7 5.86542397534301
vertex 37.0999283633598 19.7 8.265423975343
vertex 45.3999283633598 19.7 8.265423975343
endloop
endfacet
facet normal 0.0 -1.0 0.0
outer loop
vertex 45.3999283633598 24.4 8.265423975343
vertex 45.2999283633598 24.4 5.86542397534301
vertex 45.3999283633598 24.4 5.86542397534301
endloop
endfacet
facet normal 0.0 -1.0 0.0
outer loop
vertex 45.2999283633598 24.4 5.86542397534301
vertex 45.3999283633598 24.4 8.265423975343
vertex 37.1999283633598 24.4 5.86542397534301
endloop
endfacet
facet normal 0.0 -1.0 0.0
outer loop
vertex 37.1999283633598 24.4 5.86542397534301
vertex 45.3999283633598 24.4 8.265423975343
vertex 37.0999283633598 24.4 5.86542397534301
endloop
endfacet
facet normal 0.0 -1.0 0.0
outer loop
vertex 37.0999283633598 24.4 5.86542397534301
vertex 45.3999283633598 24.4 8.265423975343
vertex 37.0999283633598 24.4 8.265423975343
endloop
endfacet
facet normal 0.0 -1.0 0.0
outer loop
vertex 45.2999283633598 24.4 5.86542397534301
vertex 37.1999283633598 24.4 0.265423975343007
vertex 45.2999283633598 24.4 0.265423975343007
endloop
endfacet
facet normal 0.0 -1.0 0.0
outer loop
vertex 37.1999283633598 24.4 0.265423975343007
vertex 45.2999283633598 24.4 5.86542397534301
vertex 37.1999283633598 24.4 5.86542397534301
endloop
endfacet
facet normal -0.0 1.0 -0.0
outer loop
vertex 14.2999283633598 19.7 8.265423975343
vertex 22.2999283633598 19.7 5.86542397534301
vertex 14.2999283633598 19.7 5.86542397534301
endloop
endfacet
facet normal -0.0 1.0 -0.0
outer loop
vertex 22.2999283633598 19.7 5.86542397534301
vertex 14.2999283633598 19.7 8.265423975343
vertex 22.2999283633598 19.7 8.265423975343
endloop
endfacet
facet normal 0.0 -1.0 0.0
outer loop
vertex 22.2999283633598 24.4 8.265423975343
vertex 22.1999283633598 24.4 5.86542397534301
vertex 22.2999283633598 24.4 5.86542397534301
endloop
endfacet
facet normal 0.0 -1.0 0.0
outer loop
vertex 22.1999283633598 24.4 5.86542397534301
vertex 22.2999283633598 24.4 8.265423975343
vertex 14.3999283633598 24.4 5.86542397534301
endloop
endfacet
facet normal 0.0 -1.0 0.0
outer loop
vertex 14.3999283633598 24.4 5.86542397534301
vertex 22.2999283633598 24.4 8.265423975343
vertex 14.2999283633598 24.4 5.86542397534301
endloop
endfacet
facet normal 0.0 -1.0 0.0
outer loop
vertex 14.2999283633598 24.4 5.86542397534301
vertex 22.2999283633598 24.4 8.265423975343
vertex 14.2999283633598 24.4 8.265423975343
endloop
endfacet
facet normal 0.0 -1.0 0.0
outer loop
vertex 22.1999283633598 24.4 5.86542397534301
vertex 14.3999283633598 24.4 0.265423975343007
vertex 22.1999283633598 24.4 0.265423975343007
endloop
endfacet
facet normal 0.0 -1.0 0.0
outer loop
vertex 14.3999283633598 24.4 0.265423975343007
vertex 22.1999283633598 24.4 5.86542397534301
vertex 14.3999283633598 24.4 5.86542397534301
endloop
endfacet
facet normal 0.0 -1.0 0.0
outer loop
vertex 26.8 14.3786848195388 8.265423975343
vertex 12.5 14.3786848195388 5.86542397534301
vertex 26.8 14.3786848195388 5.86542397534301
endloop
endfacet
facet normal 0.0 -1.0 0.0
outer loop
vertex 12.5 14.3786848195388 5.86542397534301
vertex 26.8 14.3786848195388 8.265423975343
vertex 12.5 14.3786848195388 8.265423975343
endloop
endfacet
facet normal 1.0 -0.0 -0.0
outer loop
vertex 12.5 14.3786848195388 5.86542397534301
vertex 12.5 7.5 8.265423975343
vertex 12.5 7.5 5.86542397534301
endloop
endfacet
facet normal 1.0 -0.0 -0.0
outer loop
vertex 12.5 7.5 8.265423975343
vertex 12.5 14.3786848195388 5.86542397534301
vertex 12.5 14.3786848195388 8.265423975343
endloop
endfacet
facet normal 0.0 1.0 0.0
outer loop
vertex 12.5 7.5 8.265423975343
vertex 26.8 7.5 5.86542397534301
vertex 12.5 7.5 5.86542397534301
endloop
endfacet
facet normal 0.0 1.0 0.0
outer loop
vertex 26.8 7.5 5.86542397534301
vertex 12.5 7.5 8.265423975343
vertex 26.8 7.5 8.265423975343
endloop
endfacet
facet normal -1.0 0.0 0.0
outer loop
vertex 26.8 14.3786848195388 8.265423975343
vertex 26.8 7.5 5.86542397534301
vertex 26.8 7.5 8.265423975343
endloop
endfacet
facet normal -1.0 0.0 0.0
outer loop
vertex 26.8 7.5 5.86542397534301
vertex 26.8 14.3786848195388 8.265423975343
vertex 26.8 14.3786848195388 5.86542397534301
endloop
endfacet
facet normal 0.0 -1.0 0.0
outer loop
vertex 42.9499283633598 5.9 8.265423975343
vertex 29.5499283633598 5.9 5.86542397534301
vertex 42.9499283633598 5.9 5.86542397534301
endloop
endfacet
facet normal 0.0 -1.0 0.0
outer loop
vertex 29.5499283633598 5.9 5.86542397534301
vertex 42.9499283633598 5.9 8.265423975343
vertex 29.5499283633598 5.9 8.265423975343
endloop
endfacet
facet normal 1.0 -0.0 -0.0
outer loop
vertex 29.5499283633598 5.9 5.86542397534301
vertex 29.5499283633598 3.74310826491246 8.265423975343
vertex 29.5499283633598 3.74310826491246 5.86542397534301
endloop
endfacet
facet normal 1.0 -0.0 -0.0
outer loop
vertex 29.5499283633598 3.74310826491246 8.265423975343
vertex 29.5499283633598 5.9 5.86542397534301
vertex 29.5499283633598 5.9 8.265423975343
endloop
endfacet
facet normal -0.0 1.0 -0.0
outer loop
vertex 29.5499283633598 3.74310826491246 8.265423975343
vertex 42.9499283633598 3.74310826491246 5.86542397534301
vertex 29.5499283633598 3.74310826491246 5.86542397534301
endloop
endfacet
facet normal -0.0 1.0 -0.0
outer loop
vertex 42.9499283633598 3.74310826491246 5.86542397534301
vertex 29.5499283633598 3.74310826491246 8.265423975343
vertex 42.9499283633598 3.74310826491246 8.265423975343
endloop
endfacet
facet normal -1.0 0.0 0.0
outer loop
vertex 42.9499283633598 5.9 8.265423975343
vertex 42.9499283633598 3.74310826491246 5.86542397534301
vertex 42.9499283633598 3.74310826491246 8.265423975343
endloop
endfacet
facet normal -1.0 0.0 0.0
outer loop
vertex 42.9499283633598 3.74310826491246 5.86542397534301
vertex 42.9499283633598 5.9 8.265423975343
vertex 42.9499283633598 5.9 5.86542397534301
endloop
endfacet
facet normal 0.0 0.0 -1.0
outer loop
vertex 7.8917910132191 25.5 3.26542397534301
vertex 2.0 3.74310826491246 3.26542397534301
vertex 2.0 25.5 3.26542397534301
endloop
endfacet
facet normal 0.0 0.0 -1.0
outer loop
vertex 2.0 3.74310826491246 3.26542397534301
vertex 7.8917910132191 25.5 3.26542397534301
vertex 7.8917910132191 3.74310826491246 3.26542397534301
endloop
endfacet
facet normal -1.0 0.0 0.0
outer loop
vertex 2.0 25.5 5.86542397534301
vertex 2.0 3.74310826491246 3.26542397534301
vertex 2.0 3.74310826491246 5.86542397534301
endloop
endfacet
facet normal -1.0 0.0 0.0
outer loop
vertex 2.0 3.74310826491246 3.26542397534301
vertex 2.0 25.5 5.86542397534301
vertex 2.0 25.5 3.26542397534301
endloop
endfacet
facet normal -0.0 1.0 -0.0
outer loop
vertex 2.0 25.5 5.86542397534301
vertex 7.8917910132191 25.5 3.26542397534301
vertex 2.0 25.5 3.26542397534301
endloop
endfacet
facet normal -0.0 1.0 -0.0
outer loop
vertex 7.8917910132191 25.5 3.26542397534301
vertex 2.0 25.5 5.86542397534301
vertex 7.8917910132191 25.5 5.86542397534301
endloop
endfacet
facet normal -1.0 0.0 0.0
outer loop
vertex 2.0 3.74310826491246 5.86542397534301
vertex 2.0 2.0 0.265423975343007
vertex 2.0 2.0 5.86542397534301
endloop
endfacet
facet normal -1.0 0.0 0.0
outer loop
vertex 2.0 2.0 0.265423975343007
vertex 2.0 3.74310826491246 5.86542397534301
vertex 2.0 3.74310826491246 0.265423975343007
endloop
endfacet
facet normal -1.0 0.0 0.0
outer loop
vertex 2.0 3.74310826491246 0.265423975343007
vertex 2.0 3.74310826491246 5.86542397534301
vertex 2.0 3.74310826491246 3.26542397534301
endloop
endfacet
facet normal -0.0 1.0 -0.0
outer loop
vertex 50.8913405823297 25.5 5.86542397534301
vertex 57.4 25.5 3.26542397534301
vertex 50.8913405823297 25.5 3.26542397534301
endloop
endfacet
facet normal -0.0 1.0 -0.0
outer loop
vertex 57.4 25.5 3.26542397534301
vertex 50.8913405823297 25.5 5.86542397534301
vertex 57.4 25.5 5.86542397534301
endloop
endfacet
facet normal 0.0 -1.0 0.0
outer loop
vertex 57.4 2.0 5.86542397534301
vertex 2.0 2.0 0.265423975343007
vertex 57.4 2.0 0.265423975343007
endloop
endfacet
facet normal 0.0 -1.0 0.0
outer loop
vertex 2.0 2.0 0.265423975343007
vertex 57.4 2.0 5.86542397534301
vertex 2.0 2.0 5.86542397534301
endloop
endfacet
facet normal 0.0 0.0 -1.0
outer loop
vertex 0.0 27.5 5.86542397534301
vertex 2.0 25.5 5.86542397534301
vertex 0.0 1.76247905159244e-15 5.86542397534301
endloop
endfacet
facet normal 0.0 0.0 -1.0
outer loop
vertex 2.0 25.5 5.86542397534301
vertex 0.0 27.5 5.86542397534301
vertex 59.4 27.5 5.86542397534301
endloop
endfacet
facet normal 0.0 0.0 -1.0
outer loop
vertex 2.0 25.5 5.86542397534301
vertex 59.4 27.5 5.86542397534301
vertex 7.8917910132191 25.5 5.86542397534301
endloop
endfacet
facet normal 0.0 0.0 -1.0
outer loop
vertex 7.8917910132191 25.5 5.86542397534301
vertex 59.4 27.5 5.86542397534301
vertex 7.9859517002732 25.5 5.86542397534301
endloop
endfacet
facet normal 0.0 0.0 -1.0
outer loop
vertex 7.8917910132191 25.5 5.86542397534301
vertex 7.9859517002732 25.5 5.86542397534301
vertex 7.8917910132191 3.74310826491246 5.86542397534301
endloop
endfacet
facet normal 0.0 0.0 -1.0
outer loop
vertex 7.9859517002732 25.5 5.86542397534301
vertex 59.4 27.5 5.86542397534301
vertex 50.8913405823297 25.5 5.86542397534301
endloop
endfacet
facet normal 0.0 0.0 -1.0
outer loop
vertex 50.8913405823297 25.5 5.86542397534301
vertex 59.4 27.5 5.86542397534301
vertex 57.4 25.5 5.86542397534301
endloop
endfacet
facet normal 0.0 0.0 -1.0
outer loop
vertex 57.4 25.5 5.86542397534301
vertex 59.4 27.5 5.86542397534301
vertex 57.4 3.74310826491246 5.86542397534301
endloop
endfacet
facet normal 0.0 0.0 -1.0
outer loop
vertex 57.4 3.74310826491246 5.86542397534301
vertex 59.4 27.5 5.86542397534301
vertex 57.4 2.0 5.86542397534301
endloop
endfacet
facet normal 0.0 0.0 -1.0
outer loop
vertex 0.0 1.76247905159244e-15 5.86542397534301
vertex 2.0 2.0 5.86542397534301
vertex 59.4 1.76247905159244e-15 5.86542397534301
endloop
endfacet
facet normal 0.0 0.0 -1.0
outer loop
vertex 2.0 2.0 5.86542397534301
vertex 0.0 1.76247905159244e-15 5.86542397534301
vertex 2.0 25.5 5.86542397534301
endloop
endfacet
facet normal 0.0 0.0 -1.0
outer loop
vertex 2.0 2.0 5.86542397534301
vertex 2.0 25.5 5.86542397534301
vertex 2.0 3.74310826491246 5.86542397534301
endloop
endfacet
facet normal 0.0 0.0 -1.0
outer loop
vertex 59.4 1.76247905159244e-15 5.86542397534301
vertex 2.0 2.0 5.86542397534301
vertex 57.4 2.0 5.86542397534301
endloop
endfacet
facet normal 0.0 0.0 -1.0
outer loop
vertex 59.4 1.76247905159244e-15 5.86542397534301
vertex 57.4 2.0 5.86542397534301
vertex 59.4 27.5 5.86542397534301
endloop
endfacet
facet normal 0.0 0.0 -1.0
outer loop
vertex 25.4999283633598 24.4 5.86542397534301
vertex 22.2999283633598 19.7 5.86542397534301
vertex 22.2999283633598 24.4 5.86542397534301
endloop
endfacet
facet normal 0.0 0.0 -1.0
outer loop
vertex 37.0999283633598 24.4 5.86542397534301
vertex 33.6999283633598 19.7 5.86542397534301
vertex 33.6999283633598 24.4 5.86542397534301
endloop
endfacet
facet normal 0.0 0.0 -1.0
outer loop
vertex 50.8913405823297 24.4 5.86542397534301
vertex 45.3999283633598 19.7 5.86542397534301
vertex 45.3999283633598 24.4 5.86542397534301
endloop
endfacet
facet normal 0.0 0.0 -1.0
outer loop
vertex 14.2999283633598 24.4 5.86542397534301
vertex 12.5 14.3786848195388 5.86542397534301
vertex 7.98595170027321 24.4 5.86542397534301
endloop
endfacet
facet normal 0.0 0.0 -1.0
outer loop
vertex 12.5 14.3786848195388 5.86542397534301
vertex 14.2999283633598 24.4 5.86542397534301
vertex 14.2999283633598 19.7 5.86542397534301
endloop
endfacet
facet normal 0.0 0.0 -1.0
outer loop
vertex 12.5 14.3786848195388 5.86542397534301
vertex 14.2999283633598 19.7 5.86542397534301
vertex 26.8 14.3786848195388 5.86542397534301
endloop
endfacet
facet normal 0.0 0.0 -1.0
outer loop
vertex 26.8 14.3786848195388 5.86542397534301
vertex 14.2999283633598 19.7 5.86542397534301
vertex 22.2999283633598 19.7 5.86542397534301
endloop
endfacet
facet normal 0.0 0.0 -1.0
outer loop
vertex 26.8 14.3786848195388 5.86542397534301
vertex 22.2999283633598 19.7 5.86542397534301
vertex 25.4999283633598 19.7 5.86542397534301
endloop
endfacet
facet normal 0.0 0.0 -1.0
outer loop
vertex 25.4999283633598 19.7 5.86542397534301
vertex 22.2999283633598 19.7 5.86542397534301
vertex 25.4999283633598 24.4 5.86542397534301
endloop
endfacet
facet normal 0.0 0.0 -1.0
outer loop
vertex 26.8 14.3786848195388 5.86542397534301
vertex 25.4999283633598 19.7 5.86542397534301
vertex 33.6999283633598 19.7 5.86542397534301
endloop
endfacet
facet normal 0.0 0.0 -1.0
outer loop
vertex 26.8 14.3786848195388 5.86542397534301
vertex 33.6999283633598 19.7 5.86542397534301
vertex 26.8 7.5 5.86542397534301
endloop
endfacet
facet normal 0.0 0.0 -1.0
outer loop
vertex 26.8 7.5 5.86542397534301
vertex 33.6999283633598 19.7 5.86542397534301
vertex 29.5499283633598 5.9 5.86542397534301
endloop
endfacet
facet normal 0.0 0.0 -1.0
outer loop
vertex 29.5499283633598 5.9 5.86542397534301
vertex 33.6999283633598 19.7 5.86542397534301
vertex 42.9499283633598 5.9 5.86542397534301
endloop
endfacet
facet normal 0.0 0.0 -1.0
outer loop
vertex 42.9499283633598 5.9 5.86542397534301
vertex 33.6999283633598 19.7 5.86542397534301
vertex 37.0999283633598 19.7 5.86542397534301
endloop
endfacet
facet normal 0.0 0.0 -1.0
outer loop
vertex 37.0999283633598 19.7 5.86542397534301
vertex 33.6999283633598 19.7 5.86542397534301
vertex 37.0999283633598 24.4 5.86542397534301
endloop
endfacet
facet normal 0.0 0.0 -1.0
outer loop
vertex 42.9499283633598 5.9 5.86542397534301
vertex 37.0999283633598 19.7 5.86542397534301
vertex 45.3999283633598 19.7 5.86542397534301
endloop
endfacet
facet normal 0.0 0.0 -1.0
outer loop
vertex 42.9499283633598 5.9 5.86542397534301
vertex 45.3999283633598 19.7 5.86542397534301
vertex 42.9499283633598 3.74310826491246 5.86542397534301
endloop
endfacet
facet normal 0.0 0.0 -1.0
outer loop
vertex 42.9499283633598 3.74310826491246 5.86542397534301
vertex 45.3999283633598 19.7 5.86542397534301
vertex 50.8913405823297 3.74310826491246 5.86542397534301
endloop
endfacet
facet normal 0.0 0.0 -1.0
outer loop
vertex 50.8913405823297 3.74310826491246 5.86542397534301
vertex 45.3999283633598 19.7 5.86542397534301
vertex 50.8913405823297 24.4 5.86542397534301
endloop
endfacet
facet normal 0.0 0.0 -1.0
outer loop
vertex 7.8917910132191 3.74310826491246 5.86542397534301
vertex 12.5 7.5 5.86542397534301
vertex 29.5499283633598 3.74310826491246 5.86542397534301
endloop
endfacet
facet normal 0.0 0.0 -1.0
outer loop
vertex 12.5 7.5 5.86542397534301
vertex 7.8917910132191 3.74310826491246 5.86542397534301
vertex 7.98595170027321 24.4 5.86542397534301
endloop
endfacet
facet normal 0.0 0.0 -1.0
outer loop
vertex 7.98595170027321 24.4 5.86542397534301
vertex 7.8917910132191 3.74310826491246 5.86542397534301
vertex 7.9859517002732 25.5 5.86542397534301
endloop
endfacet
facet normal 0.0 0.0 -1.0
outer loop
vertex 12.5 7.5 5.86542397534301
vertex 7.98595170027321 24.4 5.86542397534301
vertex 12.5 14.3786848195388 5.86542397534301
endloop
endfacet
facet normal 0.0 0.0 -1.0
outer loop
vertex 29.5499283633598 3.74310826491246 5.86542397534301
vertex 12.5 7.5 5.86542397534301
vertex 26.8 7.5 5.86542397534301
endloop
endfacet
facet normal 0.0 0.0 -1.0
outer loop
vertex 29.5499283633598 3.74310826491246 5.86542397534301
vertex 26.8 7.5 5.86542397534301
vertex 29.5499283633598 5.9 5.86542397534301
endloop
endfacet
facet normal 0.0 0.0 1.0
outer loop
vertex 0.0 1.76247905159244e-15 8.265423975343
vertex 12.5 7.5 8.265423975343
vertex 0.0 27.5 8.265423975343
endloop
endfacet
facet normal 0.0 0.0 1.0
outer loop
vertex 12.5 7.5 8.265423975343
vertex 0.0 1.76247905159244e-15 8.265423975343
vertex 29.5499283633598 3.74310826491246 8.265423975343
endloop
endfacet
facet normal 0.0 0.0 1.0
outer loop
vertex 29.5499283633598 3.74310826491246 8.265423975343
vertex 0.0 1.76247905159244e-15 8.265423975343
vertex 59.4 1.76247905159244e-15 8.265423975343
endloop
endfacet
facet normal 0.0 0.0 1.0
outer loop
vertex 12.5 7.5 8.265423975343
vertex 29.5499283633598 3.74310826491246 8.265423975343
vertex 26.8 7.5 8.265423975343
endloop
endfacet
facet normal 0.0 0.0 1.0
outer loop
vertex 26.8 7.5 8.265423975343
vertex 29.5499283633598 3.74310826491246 8.265423975343
vertex 26.8 14.3786848195388 8.265423975343
endloop
endfacet
facet normal 0.0 0.0 1.0
outer loop
vertex 29.5499283633598 3.74310826491246 8.265423975343
vertex 59.4 1.76247905159244e-15 8.265423975343
vertex 42.9499283633598 3.74310826491246 8.265423975343
endloop
endfacet
facet normal 0.0 0.0 1.0
outer loop
vertex 42.9499283633598 3.74310826491246 8.265423975343
vertex 59.4 1.76247905159244e-15 8.265423975343
vertex 42.9499283633598 5.9 8.265423975343
endloop
endfacet
facet normal 0.0 0.0 1.0
outer loop
vertex 42.9499283633598 5.9 8.265423975343
vertex 59.4 1.76247905159244e-15 8.265423975343
vertex 45.3999283633598 19.7 8.265423975343
endloop
endfacet
facet normal 0.0 0.0 1.0
outer loop
vertex 45.3999283633598 19.7 8.265423975343
vertex 59.4 1.76247905159244e-15 8.265423975343
vertex 45.3999283633598 24.4 8.265423975343
endloop
endfacet
facet normal 0.0 0.0 1.0
outer loop
vertex 0.0 27.5 8.265423975343
vertex 14.2999283633598 24.4 8.265423975343
vertex 59.4 27.5 8.265423975343
endloop
endfacet
facet normal 0.0 0.0 1.0
outer loop
vertex 14.2999283633598 24.4 8.265423975343
vertex 0.0 27.5 8.265423975343
vertex 12.5 14.3786848195388 8.265423975343
endloop
endfacet
facet normal 0.0 0.0 1.0
outer loop
vertex 12.5 14.3786848195388 8.265423975343
vertex 0.0 27.5 8.265423975343
vertex 12.5 7.5 8.265423975343
endloop
endfacet
facet normal 0.0 0.0 1.0
outer loop
vertex 14.2999283633598 24.4 8.265423975343
vertex 12.5 14.3786848195388 8.265423975343
vertex 14.2999283633598 19.7 8.265423975343
endloop
endfacet
facet normal 0.0 0.0 1.0
outer loop
vertex 59.4 27.5 8.265423975343
vertex 14.2999283633598 24.4 8.265423975343
vertex 22.2999283633598 24.4 8.265423975343
endloop
endfacet
facet normal 0.0 0.0 1.0
outer loop
vertex 59.4 27.5 8.265423975343
vertex 22.2999283633598 24.4 8.265423975343
vertex 25.4999283633598 24.4 8.265423975343
endloop
endfacet
facet normal 0.0 0.0 1.0
outer loop
vertex 25.4999283633598 24.4 8.265423975343
vertex 22.2999283633598 24.4 8.265423975343
vertex 25.4999283633598 19.7 8.265423975343
endloop
endfacet
facet normal 0.0 0.0 1.0
outer loop
vertex 59.4 27.5 8.265423975343
vertex 25.4999283633598 24.4 8.265423975343
vertex 33.6999283633598 24.4 8.265423975343
endloop
endfacet
facet normal 0.0 0.0 1.0
outer loop
vertex 59.4 27.5 8.265423975343
vertex 33.6999283633598 24.4 8.265423975343
vertex 37.0999283633598 24.4 8.265423975343
endloop
endfacet
facet normal 0.0 0.0 1.0
outer loop
vertex 37.0999283633598 24.4 8.265423975343
vertex 33.6999283633598 24.4 8.265423975343
vertex 37.0999283633598 19.7 8.265423975343
endloop
endfacet
facet normal 0.0 0.0 1.0
outer loop
vertex 59.4 27.5 8.265423975343
vertex 37.0999283633598 24.4 8.265423975343
vertex 45.3999283633598 24.4 8.265423975343
endloop
endfacet
facet normal 0.0 0.0 1.0
outer loop
vertex 59.4 27.5 8.265423975343
vertex 45.3999283633598 24.4 8.265423975343
vertex 59.4 1.76247905159244e-15 8.265423975343
endloop
endfacet
facet normal 0.0 0.0 1.0
outer loop
vertex 26.8 14.3786848195388 8.265423975343
vertex 14.2999283633598 19.7 8.265423975343
vertex 12.5 14.3786848195388 8.265423975343
endloop
endfacet
facet normal 0.0 0.0 1.0
outer loop
vertex 14.2999283633598 19.7 8.265423975343
vertex 26.8 14.3786848195388 8.265423975343
vertex 22.2999283633598 19.7 8.265423975343
endloop
endfacet
facet normal 0.0 0.0 1.0
outer loop
vertex 22.2999283633598 19.7 8.265423975343
vertex 26.8 14.3786848195388 8.265423975343
vertex 22.2999283633598 24.4 8.265423975343
endloop
endfacet
facet normal 0.0 0.0 1.0
outer loop
vertex 22.2999283633598 24.4 8.265423975343
vertex 26.8 14.3786848195388 8.265423975343
vertex 25.4999283633598 19.7 8.265423975343
endloop
endfacet
facet normal 0.0 0.0 1.0
outer loop
vertex 25.4999283633598 19.7 8.265423975343
vertex 26.8 14.3786848195388 8.265423975343
vertex 33.6999283633598 19.7 8.265423975343
endloop
endfacet
facet normal 0.0 0.0 1.0
outer loop
vertex 33.6999283633598 19.7 8.265423975343
vertex 26.8 14.3786848195388 8.265423975343
vertex 29.5499283633598 5.9 8.265423975343
endloop
endfacet
facet normal 0.0 0.0 1.0
outer loop
vertex 29.5499283633598 5.9 8.265423975343
vertex 26.8 14.3786848195388 8.265423975343
vertex 29.5499283633598 3.74310826491246 8.265423975343
endloop
endfacet
facet normal 0.0 0.0 1.0
outer loop
vertex 33.6999283633598 19.7 8.265423975343
vertex 29.5499283633598 5.9 8.265423975343
vertex 42.9499283633598 5.9 8.265423975343
endloop
endfacet
facet normal 0.0 0.0 1.0
outer loop
vertex 33.6999283633598 19.7 8.265423975343
vertex 42.9499283633598 5.9 8.265423975343
vertex 33.6999283633598 24.4 8.265423975343
endloop
endfacet
facet normal 0.0 0.0 1.0
outer loop
vertex 33.6999283633598 24.4 8.265423975343
vertex 42.9499283633598 5.9 8.265423975343
vertex 37.0999283633598 19.7 8.265423975343
endloop
endfacet
facet normal 0.0 0.0 1.0
outer loop
vertex 37.0999283633598 19.7 8.265423975343
vertex 42.9499283633598 5.9 8.265423975343
vertex 45.3999283633598 19.7 8.265423975343
endloop
endfacet
facet normal -1.0 0.0 0.0
outer loop
vertex 50.8913405823297 24.4 5.86542397534301
vertex 50.8913405823297 3.74310826491246 3.26542397534301
vertex 50.8913405823297 3.74310826491246 5.86542397534301
endloop
endfacet
facet normal -1.0 0.0 0.0
outer loop
vertex 50.8913405823297 3.74310826491246 3.26542397534301
vertex 50.8913405823297 24.4 5.86542397534301
vertex 50.8913405823297 24.4 3.26542397534301
endloop
endfacet
facet normal 1.0 -0.0 -0.0
outer loop
vertex 57.4 25.5 3.26542397534301
vertex 57.4 3.74310826491246 5.86542397534301
vertex 57.4 3.74310826491246 3.26542397534301
endloop
endfacet
facet normal 1.0 -0.0 -0.0
outer loop
vertex 57.4 3.74310826491246 5.86542397534301
vertex 57.4 25.5 3.26542397534301
vertex 57.4 25.5 5.86542397534301
endloop
endfacet
facet normal 1.0 -0.0 -0.0
outer loop
vertex 57.4 3.74310826491246 0.265423975343007
vertex 57.4 2.0 5.86542397534301
vertex 57.4 2.0 0.265423975343007
endloop
endfacet
facet normal 1.0 -0.0 -0.0
outer loop
vertex 57.4 2.0 5.86542397534301
vertex 57.4 3.74310826491246 0.265423975343007
vertex 57.4 3.74310826491246 5.86542397534301
endloop
endfacet
facet normal 1.0 -0.0 -0.0
outer loop
vertex 57.4 3.74310826491246 5.86542397534301
vertex 57.4 3.74310826491246 0.265423975343007
vertex 57.4 3.74310826491246 3.26542397534301
endloop
endfacet
facet normal -0.0 1.0 -0.0
outer loop
vertex 7.8917910132191 3.74310826491246 3.26542397534301
vertex 50.8913405823297 3.74310826491246 0.265423975343007
vertex 7.8917910132191 3.74310826491246 0.265423975343007
endloop
endfacet
facet normal -0.0 1.0 -0.0
outer loop
vertex 50.8913405823297 3.74310826491246 0.265423975343007
vertex 7.8917910132191 3.74310826491246 3.26542397534301
vertex 50.8913405823297 3.74310826491246 3.26542397534301
endloop
endfacet
facet normal -0.0 1.0 -0.0
outer loop
vertex 50.8913405823297 3.74310826491246 3.26542397534301
vertex 7.8917910132191 3.74310826491246 3.26542397534301
vertex 7.8917910132191 3.74310826491246 5.86542397534301
endloop
endfacet
facet normal -0.0 1.0 -0.0
outer loop
vertex 50.8913405823297 3.74310826491246 3.26542397534301
vertex 7.8917910132191 3.74310826491246 5.86542397534301
vertex 50.8913405823297 3.74310826491246 5.86542397534301
endloop
endfacet
facet normal -0.0 1.0 -0.0
outer loop
vertex 50.8913405823297 3.74310826491246 5.86542397534301
vertex 7.8917910132191 3.74310826491246 5.86542397534301
vertex 29.5499283633598 3.74310826491246 5.86542397534301
endloop
endfacet
facet normal -0.0 1.0 -0.0
outer loop
vertex 50.8913405823297 3.74310826491246 5.86542397534301
vertex 29.5499283633598 3.74310826491246 5.86542397534301
vertex 42.9499283633598 3.74310826491246 5.86542397534301
endloop
endfacet
facet normal 0.0 0.0 -1.0
outer loop
vertex 57.4 25.5 3.26542397534301
vertex 50.8913405823297 24.4 3.26542397534301
vertex 50.8913405823297 25.5 3.26542397534301
endloop
endfacet
facet normal 0.0 0.0 -1.0
outer loop
vertex 50.8913405823297 24.4 3.26542397534301
vertex 57.4 25.5 3.26542397534301
vertex 50.8913405823297 3.74310826491246 3.26542397534301
endloop
endfacet
facet normal 0.0 0.0 -1.0
outer loop
vertex 50.8913405823297 3.74310826491246 3.26542397534301
vertex 57.4 25.5 3.26542397534301
vertex 57.4 3.74310826491246 3.26542397534301
endloop
endfacet
facet normal 0.0 -1.0 0.0
outer loop
vertex 25.5999283633598 24.4 5.86542397534301
vertex 22.1999283633598 24.4 0.265423975343007
vertex 25.5999283633598 24.4 0.265423975343007
endloop
endfacet
facet normal 0.0 -1.0 0.0
outer loop
vertex 22.1999283633598 24.4 0.265423975343007
vertex 25.5999283633598 24.4 5.86542397534301
vertex 22.1999283633598 24.4 5.86542397534301
endloop
endfacet
facet normal 0.0 -1.0 0.0
outer loop
vertex 22.1999283633598 24.4 5.86542397534301
vertex 25.5999283633598 24.4 5.86542397534301
vertex 25.4999283633598 24.4 5.86542397534301
endloop
endfacet
facet normal 0.0 -1.0 0.0
outer loop
vertex 22.1999283633598 24.4 5.86542397534301
vertex 25.4999283633598 24.4 5.86542397534301
vertex 22.2999283633598 24.4 5.86542397534301
endloop
endfacet
facet normal 0.0 -1.0 0.0
outer loop
vertex 14.3999283633598 24.4 5.86542397534301
vertex 7.98595170027321 24.4 0.265423975343007
vertex 14.3999283633598 24.4 0.265423975343007
endloop
endfacet
facet normal 0.0 -1.0 0.0
outer loop
vertex 7.98595170027321 24.4 0.265423975343007
vertex 14.3999283633598 24.4 5.86542397534301
vertex 7.98595170027321 24.4 5.86542397534301
endloop
endfacet
facet normal 0.0 -1.0 0.0
outer loop
vertex 7.98595170027321 24.4 5.86542397534301
vertex 14.3999283633598 24.4 5.86542397534301
vertex 14.2999283633598 24.4 5.86542397534301
endloop
endfacet
facet normal -0.0 1.0 -0.0
outer loop
vertex 7.9859517002732 25.5 5.86542397534301
vertex 50.8913405823297 25.5 0.265423975343007
vertex 7.9859517002732 25.5 0.265423975343007
endloop
endfacet
facet normal -0.0 1.0 -0.0
outer loop
vertex 50.8913405823297 25.5 0.265423975343007
vertex 7.9859517002732 25.5 5.86542397534301
vertex 50.8913405823297 25.5 3.26542397534301
endloop
endfacet
facet normal -0.0 1.0 -0.0
outer loop
vertex 50.8913405823297 25.5 3.26542397534301
vertex 7.9859517002732 25.5 5.86542397534301
vertex 50.8913405823297 25.5 5.86542397534301
endloop
endfacet
facet normal 0.0 -1.0 0.0
outer loop
vertex 50.8913405823297 24.4 3.26542397534301
vertex 45.2999283633598 24.4 0.265423975343007
vertex 50.8913405823297 24.4 0.265423975343007
endloop
endfacet
facet normal 0.0 -1.0 0.0
outer loop
vertex 45.2999283633598 24.4 0.265423975343007
vertex 50.8913405823297 24.4 3.26542397534301
vertex 45.2999283633598 24.4 5.86542397534301
endloop
endfacet
facet normal 0.0 -1.0 0.0
outer loop
vertex 45.2999283633598 24.4 5.86542397534301
vertex 50.8913405823297 24.4 3.26542397534301
vertex 50.8913405823297 24.4 5.86542397534301
endloop
endfacet
facet normal 0.0 -1.0 0.0
outer loop
vertex 45.2999283633598 24.4 5.86542397534301
vertex 50.8913405823297 24.4 5.86542397534301
vertex 45.3999283633598 24.4 5.86542397534301
endloop
endfacet
facet normal 0.0 -1.0 0.0
outer loop
vertex 37.1999283633598 24.4 5.86542397534301
vertex 33.5999283633598 24.4 0.265423975343007
vertex 37.1999283633598 24.4 0.265423975343007
endloop
endfacet
facet normal 0.0 -1.0 0.0
outer loop
vertex 33.5999283633598 24.4 0.265423975343007
vertex 37.1999283633598 24.4 5.86542397534301
vertex 33.5999283633598 24.4 5.86542397534301
endloop
endfacet
facet normal 0.0 -1.0 0.0
outer loop
vertex 33.5999283633598 24.4 5.86542397534301
vertex 37.1999283633598 24.4 5.86542397534301
vertex 37.0999283633598 24.4 5.86542397534301
endloop
endfacet
facet normal 0.0 -1.0 0.0
outer loop
vertex 33.5999283633598 24.4 5.86542397534301
vertex 37.0999283633598 24.4 5.86542397534301
vertex 33.6999283633598 24.4 5.86542397534301
endloop
endfacet
facet normal -1.0 -2.56360589322537e-15 0.0
outer loop
vertex 7.9859517002732 25.5 5.86542397534301
vertex 7.98595170027321 24.4 0.265423975343007
vertex 7.98595170027321 24.4 5.86542397534301
endloop
endfacet
facet normal -1.0 -2.56360589322537e-15 0.0
outer loop
vertex 7.98595170027321 24.4 0.265423975343007
vertex 7.9859517002732 25.5 5.86542397534301
vertex 7.9859517002732 25.5 0.265423975343007
endloop
endfacet
facet normal -1.0 0.0 0.0
outer loop
vertex 33.6999283633598 24.4 8.265423975343
vertex 33.6999283633598 19.7 5.86542397534301
vertex 33.6999283633598 19.7 8.265423975343
endloop
endfacet
facet normal -1.0 0.0 0.0
outer loop
vertex 33.6999283633598 19.7 5.86542397534301
vertex 33.6999283633598 24.4 8.265423975343
vertex 33.6999283633598 24.4 5.86542397534301
endloop
endfacet
facet normal -1.0 0.0 0.0
outer loop
vertex 22.2999283633598 24.4 8.265423975343
vertex 22.2999283633598 19.7 5.86542397534301
vertex 22.2999283633598 19.7 8.265423975343
endloop
endfacet
facet normal -1.0 0.0 0.0
outer loop
vertex 22.2999283633598 19.7 5.86542397534301
vertex 22.2999283633598 24.4 8.265423975343
vertex 22.2999283633598 24.4 5.86542397534301
endloop
endfacet
facet normal -1.0 0.0 0.0
outer loop
vertex 45.3999283633598 24.4 8.265423975343
vertex 45.3999283633598 19.7 5.86542397534301
vertex 45.3999283633598 19.7 8.265423975343
endloop
endfacet
facet normal -1.0 0.0 0.0
outer loop
vertex 45.3999283633598 19.7 5.86542397534301
vertex 45.3999283633598 24.4 8.265423975343
vertex 45.3999283633598 24.4 5.86542397534301
endloop
endfacet
facet normal 1.0 -0.0 -0.0
outer loop
vertex 37.0999283633598 24.4 5.86542397534301
vertex 37.0999283633598 19.7 8.265423975343
vertex 37.0999283633598 19.7 5.86542397534301
endloop
endfacet
facet normal 1.0 -0.0 -0.0
outer loop
vertex 37.0999283633598 19.7 8.265423975343
vertex 37.0999283633598 24.4 5.86542397534301
vertex 37.0999283633598 24.4 8.265423975343
endloop
endfacet
facet normal 1.0 -0.0 -0.0
outer loop
vertex 25.4999283633598 24.4 5.86542397534301
vertex 25.4999283633598 19.7 8.265423975343
vertex 25.4999283633598 19.7 5.86542397534301
endloop
endfacet
facet normal 1.0 -0.0 -0.0
outer loop
vertex 25.4999283633598 19.7 8.265423975343
vertex 25.4999283633598 24.4 5.86542397534301
vertex 25.4999283633598 24.4 8.265423975343
endloop
endfacet
facet normal 1.0 -0.0 -0.0
outer loop
vertex 14.2999283633598 24.4 5.86542397534301
vertex 14.2999283633598 19.7 8.265423975343
vertex 14.2999283633598 19.7 5.86542397534301
endloop
endfacet
facet normal 1.0 -0.0 -0.0
outer loop
vertex 14.2999283633598 19.7 8.265423975343
vertex 14.2999283633598 24.4 5.86542397534301
vertex 14.2999283633598 24.4 8.265423975343
endloop
endfacet
facet normal 0.0 0.0 -1.0
outer loop
vertex 7.8917910132191 3.74310826491246 0.265423975343007
vertex 2.0 2.0 0.265423975343007
vertex 2.0 3.74310826491246 0.265423975343007
endloop
endfacet
facet normal 0.0 0.0 -1.0
outer loop
vertex 2.0 2.0 0.265423975343007
vertex 7.8917910132191 3.74310826491246 0.265423975343007
vertex 57.4 2.0 0.265423975343007
endloop
endfacet
facet normal 0.0 0.0 -1.0
outer loop
vertex 57.4 2.0 0.265423975343007
vertex 7.8917910132191 3.74310826491246 0.265423975343007
vertex 50.8913405823297 3.74310826491246 0.265423975343007
endloop
endfacet
facet normal 0.0 0.0 -1.0
outer loop
vertex 57.4 2.0 0.265423975343007
vertex 50.8913405823297 3.74310826491246 0.265423975343007
vertex 57.4 3.74310826491246 0.265423975343007
endloop
endfacet
facet normal -0.0 1.0 -0.0
outer loop
vertex 2.0 3.74310826491246 3.26542397534301
vertex 7.8917910132191 3.74310826491246 0.265423975343007
vertex 2.0 3.74310826491246 0.265423975343007
endloop
endfacet
facet normal -0.0 1.0 -0.0
outer loop
vertex 7.8917910132191 3.74310826491246 0.265423975343007
vertex 2.0 3.74310826491246 3.26542397534301
vertex 7.8917910132191 3.74310826491246 3.26542397534301
endloop
endfacet
facet normal -0.0 1.0 -0.0
outer loop
vertex 50.8913405823297 3.74310826491246 3.26542397534301
vertex 57.4 3.74310826491246 0.265423975343007
vertex 50.8913405823297 3.74310826491246 0.265423975343007
endloop
endfacet
facet normal -0.0 1.0 -0.0
outer loop
vertex 57.4 3.74310826491246 0.265423975343007
vertex 50.8913405823297 3.74310826491246 3.26542397534301
vertex 57.4 3.74310826491246 3.26542397534301
endloop
endfacet
facet normal 0.0 0.0 -1.0
outer loop
vertex 50.8913405823297 25.5 0.265423975343007
vertex 7.98595170027321 24.4 0.265423975343007
vertex 7.9859517002732 25.5 0.265423975343007
endloop
endfacet
facet normal 0.0 0.0 -1.0
outer loop
vertex 7.98595170027321 24.4 0.265423975343007
vertex 50.8913405823297 25.5 0.265423975343007
vertex 14.3999283633598 24.4 0.265423975343007
endloop
endfacet
facet normal 0.0 0.0 -1.0
outer loop
vertex 14.3999283633598 24.4 0.265423975343007
vertex 50.8913405823297 25.5 0.265423975343007
vertex 22.1999283633598 24.4 0.265423975343007
endloop
endfacet
facet normal 0.0 0.0 -1.0
outer loop
vertex 22.1999283633598 24.4 0.265423975343007
vertex 50.8913405823297 25.5 0.265423975343007
vertex 25.5999283633598 24.4 0.265423975343007
endloop
endfacet
facet normal 0.0 0.0 -1.0
outer loop
vertex 25.5999283633598 24.4 0.265423975343007
vertex 50.8913405823297 25.5 0.265423975343007
vertex 33.5999283633598 24.4 0.265423975343007
endloop
endfacet
facet normal 0.0 0.0 -1.0
outer loop
vertex 33.5999283633598 24.4 0.265423975343007
vertex 50.8913405823297 25.5 0.265423975343007
vertex 37.1999283633598 24.4 0.265423975343007
endloop
endfacet
facet normal 0.0 0.0 -1.0
outer loop
vertex 37.1999283633598 24.4 0.265423975343007
vertex 50.8913405823297 25.5 0.265423975343007
vertex 45.2999283633598 24.4 0.265423975343007
endloop
endfacet
facet normal 0.0 0.0 -1.0
outer loop
vertex 45.2999283633598 24.4 0.265423975343007
vertex 50.8913405823297 25.5 0.265423975343007
vertex 50.8913405823297 24.4 0.265423975343007
endloop
endfacet
facet normal 1.0 -0.0 -0.0
outer loop
vertex 50.8913405823297 25.5 0.265423975343007
vertex 50.8913405823297 24.4 3.26542397534301
vertex 50.8913405823297 24.4 0.265423975343007
endloop
endfacet
facet normal 1.0 -0.0 -0.0
outer loop
vertex 50.8913405823297 24.4 3.26542397534301
vertex 50.8913405823297 25.5 0.265423975343007
vertex 50.8913405823297 25.5 3.26542397534301
endloop
endfacet
facet normal 1.0 -0.0 -0.0
outer loop
vertex 7.8917910132191 25.5 3.26542397534301
vertex 7.8917910132191 3.74310826491246 5.86542397534301
vertex 7.8917910132191 3.74310826491246 3.26542397534301
endloop
endfacet
facet normal 1.0 -0.0 -0.0
outer loop
vertex 7.8917910132191 3.74310826491246 5.86542397534301
vertex 7.8917910132191 25.5 3.26542397534301
vertex 7.8917910132191 25.5 5.86542397534301
endloop
endfacet
endsolid Enclosure lid Final 4
