solid Sensor PIR v2
facet normal 0.0 0.0 -1.0
outer loop
vertex 46.3406409329455 37.4564553119209 0.0
vertex 1.04064093294552 0.456455311920871 0.0
vertex 1.04064093294552 37.4564553119209 0.0
endloop
endfacet
facet normal 0.0 0.0 -1.0
outer loop
vertex 1.04064093294552 0.456455311920871 0.0
vertex 46.3406409329455 37.4564553119209 0.0
vertex 46.3406409329455 0.456455311920871 0.0
endloop
endfacet
facet normal 0.0 0.0 1.0
outer loop
vertex 1.04064093294552 0.456455311920871 19.4
vertex 3.84064093294552 2.45645531192087 19.4
vertex 1.04064093294552 37.4564553119209 19.4
endloop
endfacet
facet normal 0.0 0.0 1.0
outer loop
vertex 3.84064093294552 2.45645531192087 19.4
vertex 1.04064093294552 0.456455311920871 19.4
vertex 46.3406409329455 0.456455311920871 19.4
endloop
endfacet
facet normal 0.0 0.0 1.0
outer loop
vertex 3.84064093294552 2.45645531192087 19.4
vertex 46.3406409329455 0.456455311920871 19.4
vertex 41.3406409329455 2.45645531192087 19.4
endloop
endfacet
facet normal 0.0 0.0 1.0
outer loop
vertex 41.3406409329455 2.45645531192087 19.4
vertex 46.3406409329455 0.456455311920871 19.4
vertex 41.3406409329455 35.4564553119209 19.4
endloop
endfacet
facet normal 0.0 0.0 1.0
outer loop
vertex 1.04064093294552 37.4564553119209 19.4
vertex 3.84064093294552 35.4564553119209 19.4
vertex 46.3406409329455 37.4564553119209 19.4
endloop
endfacet
facet normal 0.0 0.0 1.0
outer loop
vertex 3.84064093294552 35.4564553119209 19.4
vertex 1.04064093294552 37.4564553119209 19.4
vertex 3.84064093294552 2.45645531192087 19.4
endloop
endfacet
facet normal 0.0 0.0 1.0
outer loop
vertex 46.3406409329455 37.4564553119209 19.4
vertex 3.84064093294552 35.4564553119209 19.4
vertex 41.3406409329455 35.4564553119209 19.4
endloop
endfacet
facet normal 0.0 0.0 1.0
outer loop
vertex 46.3406409329455 37.4564553119209 19.4
vertex 41.3406409329455 35.4564553119209 19.4
vertex 46.3406409329455 0.456455311920871 19.4
endloop
endfacet
facet normal 0.0 -1.0 0.0
outer loop
vertex 46.3406409329455 0.456455311920871 19.4
vertex 1.04064093294552 0.456455311920871 0.0
vertex 46.3406409329455 0.456455311920871 0.0
endloop
endfacet
facet normal 0.0 -1.0 0.0
outer loop
vertex 1.04064093294552 0.456455311920871 0.0
vertex 46.3406409329455 0.456455311920871 19.4
vertex 1.04064093294552 0.456455311920871 19.4
endloop
endfacet
facet normal -1.0 0.0 0.0
outer loop
vertex 1.04064093294552 37.4564553119209 19.4
vertex 1.04064093294552 0.456455311920871 0.0
vertex 1.04064093294552 0.456455311920871 19.4
endloop
endfacet
facet normal -1.0 0.0 0.0
outer loop
vertex 1.04064093294552 0.456455311920871 0.0
vertex 1.04064093294552 37.4564553119209 19.4
vertex 1.04064093294552 37.4564553119209 0.0
endloop
endfacet
facet normal -0.0 1.0 -0.0
outer loop
vertex 1.04064093294552 37.4564553119209 19.4
vertex 46.3406409329455 37.4564553119209 0.0
vertex 1.04064093294552 37.4564553119209 0.0
endloop
endfacet
facet normal -0.0 1.0 -0.0
outer loop
vertex 46.3406409329455 37.4564553119209 0.0
vertex 1.04064093294552 37.4564553119209 19.4
vertex 46.3406409329455 37.4564553119209 19.4
endloop
endfacet
facet normal 1.0 -0.0 -0.0
outer loop
vertex 46.3406409329455 0.456455311920871 0.0
vertex 46.3406409329455 11.7564553119209 4.0
vertex 46.3406409329455 0.456455311920871 19.4
endloop
endfacet
facet normal 1.0 -0.0 -0.0
outer loop
vertex 46.3406409329455 11.7564553119209 4.0
vertex 46.3406409329455 0.456455311920871 0.0
vertex 46.3406409329455 37.4564553119209 0.0
endloop
endfacet
facet normal 1.0 -0.0 -0.0
outer loop
vertex 46.3406409329455 11.7564553119209 4.0
vertex 46.3406409329455 37.4564553119209 0.0
vertex 46.3406409329455 26.1564553119209 4.0
endloop
endfacet
facet normal 1.0 -0.0 -0.0
outer loop
vertex 46.3406409329455 26.1564553119209 4.0
vertex 46.3406409329455 37.4564553119209 0.0
vertex 46.3406409329455 26.1564553119209 12.0
endloop
endfacet
facet normal 1.0 -0.0 -0.0
outer loop
vertex 46.3406409329455 0.456455311920871 19.4
vertex 46.3406409329455 11.7564553119209 12.0
vertex 46.3406409329455 37.4564553119209 19.4
endloop
endfacet
facet normal 1.0 -0.0 -0.0
outer loop
vertex 46.3406409329455 11.7564553119209 12.0
vertex 46.3406409329455 0.456455311920871 19.4
vertex 46.3406409329455 11.7564553119209 4.0
endloop
endfacet
facet normal 1.0 -0.0 -0.0
outer loop
vertex 46.3406409329455 37.4564553119209 19.4
vertex 46.3406409329455 11.7564553119209 12.0
vertex 46.3406409329455 26.1564553119209 12.0
endloop
endfacet
facet normal 1.0 -0.0 -0.0
outer loop
vertex 46.3406409329455 37.4564553119209 19.4
vertex 46.3406409329455 26.1564553119209 12.0
vertex 46.3406409329455 37.4564553119209 0.0
endloop
endfacet
facet normal 4.18639317450106e-17 -3.60407099243437e-33 1.0
outer loop
vertex 41.3406409329455 2.45645531192087 2.0
vertex 10.1604971313068 35.4564553119209 2.0
vertex 10.1604971313068 2.45645531192087 2.0
endloop
endfacet
facet normal 4.18639317450106e-17 -3.60407099243437e-33 1.0
outer loop
vertex 10.1604971313068 35.4564553119209 2.0
vertex 41.3406409329455 2.45645531192087 2.0
vertex 41.3406409329455 35.4564553119209 2.0
endloop
endfacet
facet normal 4.18639317450106e-17 -3.60407099243437e-33 1.0
outer loop
vertex 41.3406409329455 35.4564553119209 2.0
vertex 41.3406409329455 2.45645531192087 2.0
vertex 41.3406409329455 10.9564553119209 2.0
endloop
endfacet
facet normal 4.18639317450106e-17 -3.60407099243437e-33 1.0
outer loop
vertex 41.3406409329455 35.4564553119209 2.0
vertex 41.3406409329455 10.9564553119209 2.0
vertex 41.3406409329455 26.9564553119209 2.0
endloop
endfacet
facet normal -0.0 1.0 -0.0
outer loop
vertex 3.84064093294552 2.45645531192087 19.4
vertex 10.1604971313068 2.45645531192087 7.5
vertex 3.84064093294552 2.45645531192087 7.5
endloop
endfacet
facet normal -0.0 1.0 -0.0
outer loop
vertex 10.1604971313068 2.45645531192087 7.5
vertex 41.3406409329455 2.45645531192087 2.0
vertex 10.1604971313068 2.45645531192087 2.0
endloop
endfacet
facet normal -0.0 1.0 -0.0
outer loop
vertex 41.3406409329455 2.45645531192087 2.0
vertex 10.1604971313068 2.45645531192087 7.5
vertex 41.3406409329455 2.45645531192087 19.4
endloop
endfacet
facet normal -0.0 1.0 -0.0
outer loop
vertex 41.3406409329455 2.45645531192087 19.4
vertex 10.1604971313068 2.45645531192087 7.5
vertex 3.84064093294552 2.45645531192087 19.4
endloop
endfacet
facet normal -1.0 0.0 0.0
outer loop
vertex 41.3406409329455 2.45645531192087 19.4
vertex 41.3406409329455 11.7564553119209 12.0
vertex 41.3406409329455 2.45645531192087 2.0
endloop
endfacet
facet normal -1.0 0.0 0.0
outer loop
vertex 41.3406409329455 11.7564553119209 12.0
vertex 41.3406409329455 2.45645531192087 19.4
vertex 41.3406409329455 35.4564553119209 19.4
endloop
endfacet
facet normal -1.0 0.0 0.0
outer loop
vertex 41.3406409329455 2.45645531192087 2.0
vertex 41.3406409329455 11.7564553119209 12.0
vertex 41.3406409329455 10.9564553119209 3.5
endloop
endfacet
facet normal -1.0 0.0 0.0
outer loop
vertex 41.3406409329455 11.7564553119209 12.0
vertex 41.3406409329455 35.4564553119209 19.4
vertex 41.3406409329455 26.1564553119209 12.0
endloop
endfacet
facet normal -1.0 0.0 0.0
outer loop
vertex 41.3406409329455 26.1564553119209 12.0
vertex 41.3406409329455 35.4564553119209 19.4
vertex 41.3406409329455 26.1564553119209 4.0
endloop
endfacet
facet normal -1.0 0.0 0.0
outer loop
vertex 41.3406409329455 26.1564553119209 4.0
vertex 41.3406409329455 35.4564553119209 19.4
vertex 41.3406409329455 26.1564553119209 3.5
endloop
endfacet
facet normal -1.0 0.0 0.0
outer loop
vertex 41.3406409329455 26.1564553119209 3.5
vertex 41.3406409329455 35.4564553119209 19.4
vertex 41.3406409329455 26.9564553119209 3.5
endloop
endfacet
facet normal -1.0 0.0 0.0
outer loop
vertex 41.3406409329455 26.9564553119209 3.5
vertex 41.3406409329455 35.4564553119209 19.4
vertex 41.3406409329455 26.9564553119209 2.0
endloop
endfacet
facet normal -1.0 0.0 0.0
outer loop
vertex 41.3406409329455 26.9564553119209 2.0
vertex 41.3406409329455 35.4564553119209 19.4
vertex 41.3406409329455 35.4564553119209 2.0
endloop
endfacet
facet normal -1.0 0.0 0.0
outer loop
vertex 41.3406409329455 11.7564553119209 12.0
vertex 41.3406409329455 11.7564553119209 3.5
vertex 41.3406409329455 10.9564553119209 3.5
endloop
endfacet
facet normal -1.0 0.0 0.0
outer loop
vertex 41.3406409329455 11.7564553119209 3.5
vertex 41.3406409329455 11.7564553119209 12.0
vertex 41.3406409329455 11.7564553119209 4.0
endloop
endfacet
facet normal -1.0 0.0 0.0
outer loop
vertex 41.3406409329455 10.9564553119209 2.0
vertex 41.3406409329455 2.45645531192087 2.0
vertex 41.3406409329455 10.9564553119209 3.5
endloop
endfacet
facet normal 0.0 -1.0 0.0
outer loop
vertex 41.3406409329455 35.4564553119209 19.4
vertex 10.1604971313068 35.4564553119209 2.0
vertex 41.3406409329455 35.4564553119209 2.0
endloop
endfacet
facet normal 0.0 -1.0 0.0
outer loop
vertex 10.1604971313068 35.4564553119209 2.0
vertex 41.3406409329455 35.4564553119209 19.4
vertex 10.1604971313068 35.4564553119209 7.5
endloop
endfacet
facet normal 0.0 -1.0 0.0
outer loop
vertex 10.1604971313068 35.4564553119209 7.5
vertex 41.3406409329455 35.4564553119209 19.4
vertex 3.84064093294552 35.4564553119209 7.5
endloop
endfacet
facet normal 0.0 -1.0 0.0
outer loop
vertex 3.84064093294552 35.4564553119209 7.5
vertex 41.3406409329455 35.4564553119209 19.4
vertex 3.84064093294552 35.4564553119209 19.4
endloop
endfacet
facet normal 1.0 -0.0 -0.0
outer loop
vertex 3.84064093294552 35.4564553119209 7.5
vertex 3.84064093294552 2.45645531192087 19.4
vertex 3.84064093294552 2.45645531192087 7.5
endloop
endfacet
facet normal 1.0 -0.0 -0.0
outer loop
vertex 3.84064093294552 2.45645531192087 19.4
vertex 3.84064093294552 35.4564553119209 7.5
vertex 3.84064093294552 35.4564553119209 19.4
endloop
endfacet
facet normal 0.0 0.0 -1.0
outer loop
vertex 46.3406409329455 26.1564553119209 12.0
vertex 41.3406409329455 11.7564553119209 12.0
vertex 41.3406409329455 26.1564553119209 12.0
endloop
endfacet
facet normal 0.0 0.0 -1.0
outer loop
vertex 41.3406409329455 11.7564553119209 12.0
vertex 46.3406409329455 26.1564553119209 12.0
vertex 46.3406409329455 11.7564553119209 12.0
endloop
endfacet
facet normal -1.0 0.0 0.0
outer loop
vertex 41.3406409329455 26.1564553119209 4.0
vertex 41.3406409329455 11.7564553119209 3.5
vertex 41.3406409329455 11.7564553119209 4.0
endloop
endfacet
facet normal -1.0 0.0 0.0
outer loop
vertex 41.3406409329455 11.7564553119209 3.5
vertex 41.3406409329455 10.9564553119209 2.0
vertex 41.3406409329455 10.9564553119209 3.5
endloop
endfacet
facet normal -1.0 0.0 0.0
outer loop
vertex 41.3406409329455 10.9564553119209 2.0
vertex 41.3406409329455 11.7564553119209 3.5
vertex 41.3406409329455 26.9564553119209 2.0
endloop
endfacet
facet normal -1.0 0.0 0.0
outer loop
vertex 41.3406409329455 26.9564553119209 2.0
vertex 41.3406409329455 11.7564553119209 3.5
vertex 41.3406409329455 26.1564553119209 3.5
endloop
endfacet
facet normal -1.0 0.0 0.0
outer loop
vertex 41.3406409329455 26.1564553119209 3.5
vertex 41.3406409329455 11.7564553119209 3.5
vertex 41.3406409329455 26.1564553119209 4.0
endloop
endfacet
facet normal -1.0 0.0 0.0
outer loop
vertex 41.3406409329455 26.9564553119209 2.0
vertex 41.3406409329455 26.1564553119209 3.5
vertex 41.3406409329455 26.9564553119209 3.5
endloop
endfacet
facet normal -0.0 1.0 -0.0
outer loop
vertex 41.3406409329455 11.7564553119209 12.0
vertex 46.3406409329455 11.7564553119209 4.0
vertex 41.3406409329455 11.7564553119209 4.0
endloop
endfacet
facet normal -0.0 1.0 -0.0
outer loop
vertex 46.3406409329455 11.7564553119209 4.0
vertex 41.3406409329455 11.7564553119209 12.0
vertex 46.3406409329455 11.7564553119209 12.0
endloop
endfacet
facet normal 0.0 -1.0 0.0
outer loop
vertex 46.3406409329455 26.1564553119209 12.0
vertex 41.3406409329455 26.1564553119209 4.0
vertex 46.3406409329455 26.1564553119209 4.0
endloop
endfacet
facet normal 0.0 -1.0 0.0
outer loop
vertex 41.3406409329455 26.1564553119209 4.0
vertex 46.3406409329455 26.1564553119209 12.0
vertex 41.3406409329455 26.1564553119209 12.0
endloop
endfacet
facet normal -0.0 -0.0 1.0
outer loop
vertex 46.3406409329455 11.7564553119209 4.0
vertex 41.3406409329455 26.1564553119209 4.0
vertex 41.3406409329455 11.7564553119209 4.0
endloop
endfacet
facet normal -0.0 -0.0 1.0
outer loop
vertex 41.3406409329455 26.1564553119209 4.0
vertex 46.3406409329455 11.7564553119209 4.0
vertex 46.3406409329455 26.1564553119209 4.0
endloop
endfacet
facet normal 0.0 0.0 1.0
outer loop
vertex 10.1604971313068 2.45645531192087 7.5
vertex 3.84064093294552 35.4564553119209 7.5
vertex 3.84064093294552 2.45645531192087 7.5
endloop
endfacet
facet normal 0.0 0.0 1.0
outer loop
vertex 3.84064093294552 35.4564553119209 7.5
vertex 10.1604971313068 2.45645531192087 7.5
vertex 10.1604971313068 35.4564553119209 7.5
endloop
endfacet
facet normal 1.0 0.0 0.0
outer loop
vertex 10.1604971313068 35.4564553119209 2.0
vertex 10.1604971313068 2.45645531192087 7.5
vertex 10.1604971313068 2.45645531192087 2.0
endloop
endfacet
facet normal 1.0 0.0 0.0
outer loop
vertex 10.1604971313068 2.45645531192087 7.5
vertex 10.1604971313068 35.4564553119209 2.0
vertex 10.1604971313068 35.4564553119209 7.5
endloop
endfacet
endsolid Sensor PIR v2
