<?xml version="1.0" encoding="UTF-8" standalone="no"?>
<svg
   xmlns:dc="http://purl.org/dc/elements/1.1/"
   xmlns:cc="http://creativecommons.org/ns#"
   xmlns:rdf="http://www.w3.org/1999/02/22-rdf-syntax-ns#"
   xmlns:svg="http://www.w3.org/2000/svg"
   xmlns="http://www.w3.org/2000/svg"
   xmlns:sodipodi="http://sodipodi.sourceforge.net/DTD/sodipodi-0.dtd"
   xmlns:inkscape="http://www.inkscape.org/namespaces/inkscape"
   width="96.5169852433153mm"
   height="327.700050980559mm"
   viewBox="0 0 96.5169852433153 327.700050980559"
   version="1.1"
   id="svg2"
   inkscape:version="0.48.3.1 r9886"
   sodipodi:docname="flightsOfIdeas.svg">
  <metadata
     id="metadata24">
    <rdf:RDF>
      <cc:Work
         rdf:about="">
        <dc:format>image/svg+xml</dc:format>
        <dc:type
           rdf:resource="http://purl.org/dc/dcmitype/StillImage" />
        <dc:title></dc:title>
      </cc:Work>
    </rdf:RDF>
  </metadata>
  <defs
     id="defs22" />
  <sodipodi:namedview
     pagecolor="#ffffff"
     bordercolor="#666666"
     borderopacity="1"
     objecttolerance="10"
     gridtolerance="10"
     guidetolerance="10"
     inkscape:pageopacity="0"
     inkscape:pageshadow="2"
     inkscape:window-width="1280"
     inkscape:window-height="744"
     id="namedview20"
     showgrid="false"
     inkscape:zoom="0.44222364"
     inkscape:cx="-231.60148"
     inkscape:cy="482.01249"
     inkscape:window-x="-4"
     inkscape:window-y="-4"
     inkscape:window-maximized="1"
     inkscape:current-layer="svg2" />
  <desc
     id="desc4">Output from Flights of Ideas SVG Sketchup Plugin</desc>
  <g
     id="g3001"
     transform="translate(2.5527558,64.457083)"
     style="stroke-width:0.28222224;stroke-miterlimit:4;stroke-dasharray:none">
    <path
       d="m 18,4.0000015 -16.9999997,0 L 1,59.40002 l 17,-10e-7 m 10,0 32.451518,0 m 10.040649,-3e-6 16.959351,2e-6 0,-55.4000165 -17.02074,0 m -9.97926,0 -32.438493,0"
       style="fill:none;stroke:#0000ff;stroke-width:0.28222224;stroke-linecap:round;stroke-linejoin:round;stroke-miterlimit:4;stroke-dasharray:none"
       id="face0-cut"
       inkscape:connector-curvature="0" />
    <path
       d="m 28,59.400019 m -10,0 0,3 10,0 0,-3"
       style="fill:none;stroke:#0000ff;stroke-width:0.28222224;stroke-linecap:round;stroke-linejoin:round;stroke-miterlimit:4;stroke-dasharray:none"
       id="face1-cut"
       inkscape:connector-curvature="0" />
    <path
       d="m 18,4.0000015 m 10.013025,0 L 28.012983,1 l -10.013024,1.5e-6 4.1e-5,3"
       style="fill:none;stroke:#0000ff;stroke-width:0.28222224;stroke-linecap:round;stroke-linejoin:round;stroke-miterlimit:4;stroke-dasharray:none"
       id="face2-cut"
       inkscape:connector-curvature="0" />
    <path
       d="m 70.492167,59.400016 m -10.040649,3e-6 4.2e-5,3.000006 10.040649,-2e-6 -4.2e-5,-3.000007"
       style="fill:none;stroke:#0000ff;stroke-width:0.28222224;stroke-linecap:round;stroke-linejoin:round;stroke-miterlimit:4;stroke-dasharray:none"
       id="face3-cut"
       inkscape:connector-curvature="0" />
    <path
       d="m 60.451518,4.0000015 m 9.97926,0 -4.5e-5,-2.9986564 -9.979261,1.44e-5 4.6e-5,2.998642"
       style="fill:none;stroke:#0000ff;stroke-width:0.28222224;stroke-linecap:round;stroke-linejoin:round;stroke-miterlimit:4;stroke-dasharray:none"
       id="face4-cut"
       inkscape:connector-curvature="0" />
  </g>
  <path
     id="face5-cut"
     style="fill:none;stroke:#0000ff;stroke-width:0.28222224;stroke-linecap:round;stroke-linejoin:round;stroke-miterlimit:4;stroke-dasharray:none"
     d="m 39.003954,136.79279 1,0 0,51.5 -1,0 -0.25882,0.0341 -0.24118,0.0999 -0.207107,0.15892 -0.158919,0.2071 -0.0999,0.24118 -0.03407,0.25882 0,5 0.03407,0.25882 0.0999,0.24118 0.158919,0.20711 0.207107,0.15892 0.24118,0.0999 0.25882,0.0341 1,0 31.5,0 0,-65.5 -31.5,0 -1,0 -0.25882,0.0341 -0.24118,0.0999 -0.207107,0.15892 -0.158919,0.2071 -0.0999,0.24118 -0.03407,0.25882 0,5 0.03407,0.25882 0.0999,0.24118 0.158919,0.20711 0.207107,0.15892 0.24118,0.0999 0.25882,0.0341 m 21.7,33.09993 4.7,0 0,8.3 -4.7,0 0,-8.3 m 4.7,-3.4 -4.7,0 0,-8.2 4.7,0 0,8.2 m 0,-19.4 0,8 -4.7,0 0,-8 4.7,0 m -10.021316,-1.79993 0,14.3 -6.878684,0 0,-14.3 6.878684,0 m -8.478684,17.04993 0,13.4 -2.156892,0 0,-13.4 2.156892,0 m 22.317157,27.95007 0.04142,-0.0318 0.04824,-0.02 0.05176,-0.007 0.05176,0.007 0.04824,0.02 0.04142,0.0318 0.03178,0.0414 0.01998,0.0482 0.0068,0.0518 -0.0068,0.0518 -0.01998,0.0482 -0.03178,0.0414 0,2.43432 0.03178,0.0414 0.01998,0.0482 0.0068,0.0518 -0.0068,0.0518 -0.01998,0.0482 -0.03178,0.0414 -0.04142,0.0318 -0.04824,0.02 -0.05176,0.007 -0.05176,-0.007 -0.04824,-0.02 -0.04142,-0.0318 -6.334315,0 -0.04142,0.0318 -0.04824,0.02 -0.05176,0.007 -0.05176,-0.007 -0.04824,-0.02 -0.04142,-0.0318 -0.03178,-0.0414 -0.01998,-0.0482 -0.0068,-0.0518 0.0068,-0.0518 0.01998,-0.0482 0.03178,-0.0414 0,-2.43432 -0.03178,-0.0414 -0.01998,-0.0482 -0.0068,-0.0518 0.0068,-0.0518 0.01998,-0.0482 0.03178,-0.0414 0.04142,-0.0318 0.04824,-0.02 0.05176,-0.007 0.05176,0.007 0.04824,0.02 0.04142,0.0318 6.334315,0 m -22.317157,2.71716 0.03178,0.0414 0.01998,0.0482 0.0068,0.0518 -0.0068,0.0518 -0.01998,0.0482 -0.03178,0.0414 -0.04142,0.0318 -0.04824,0.02 -0.05176,0.007 -0.05176,-0.007 -0.04824,-0.02 -0.04142,-0.0318 -6.334315,0 -0.04142,0.0318 -0.04824,0.02 -0.05176,0.007 -0.05176,-0.007 -0.04824,-0.02 -0.04142,-0.0318 -0.03178,-0.0414 -0.01998,-0.0482 -0.0068,-0.0518 0.0068,-0.0518 0.01998,-0.0482 0.03178,-0.0414 0,-2.43432 -0.03178,-0.0414 -0.01998,-0.0482 -0.0068,-0.0518 0.0068,-0.0518 0.01998,-0.0482 0.03178,-0.0414 0.04142,-0.0318 0.04824,-0.02 0.05176,-0.007 0.05176,0.007 0.04824,0.02 0.04142,0.0318 6.334315,0 0.04142,-0.0318 0.04824,-0.02 0.05176,-0.007 0.05176,0.007 0.04824,0.02 0.04142,0.0318 0.03178,0.0414 0.01998,0.0482 0.0068,0.0518 -0.0068,0.0518 -0.01998,0.0482 -0.03178,0.0414 0,2.43432 m -6.617158,-58.21716 -0.04142,0.0318 -0.04824,0.02 -0.05176,0.007 -0.05176,-0.007 -0.04824,-0.02 -0.04142,-0.0318 -0.03178,-0.0414 -0.01998,-0.0482 -0.0068,-0.0518 0.0068,-0.0518 0.01998,-0.0482 0.03178,-0.0414 0,-2.43432 -0.03178,-0.0414 -0.01998,-0.0482 -0.0068,-0.0518 0.0068,-0.0518 0.01998,-0.0482 0.03178,-0.0414 0.04142,-0.0318 0.04824,-0.02 0.05176,-0.007 0.05176,0.007 0.04824,0.02 0.04142,0.0318 6.334315,0 0.04142,-0.0318 0.04824,-0.02 0.05176,-0.007 0.05176,0.007 0.04824,0.02 0.04142,0.0318 0.03178,0.0414 0.01998,0.0482 0.0068,0.0518 -0.0068,0.0518 -0.01998,0.0482 -0.03178,0.0414 0,2.43432 0.03178,0.0414 0.01998,0.0482 0.0068,0.0518 -0.0068,0.0518 -0.01998,0.0482 -0.03178,0.0414 -0.04142,0.0318 -0.04824,0.02 -0.05176,0.007 -0.05176,-0.007 -0.04824,-0.02 -0.04142,-0.0318 -6.334315,0 m 28.934315,-3 0.04142,-0.0318 0.04824,-0.02 0.05176,-0.007 0.05176,0.007 0.04824,0.02 0.04142,0.0318 0.03178,0.0414 0.01998,0.0482 0.0068,0.0518 -0.0068,0.0518 -0.01998,0.0482 -0.03178,0.0414 0,2.43432 0.03178,0.0414 0.01998,0.0482 0.0068,0.0518 -0.0068,0.0518 -0.01998,0.0482 -0.03178,0.0414 -0.04142,0.0318 -0.04824,0.02 -0.05176,0.007 -0.05176,-0.007 -0.04824,-0.02 -0.04142,-0.0318 -6.334315,0 -0.04142,0.0318 -0.04824,0.02 -0.05176,0.007 -0.05176,-0.007 -0.04824,-0.02 -0.04142,-0.0318 -0.03178,-0.0414 -0.01998,-0.0482 -0.0068,-0.0518 0.0068,-0.0518 0.01998,-0.0482 0.03178,-0.0414 0,-2.43432 -0.03178,-0.0414 -0.01998,-0.0482 -0.0068,-0.0518 0.0068,-0.0518 0.01998,-0.0482 0.03178,-0.0414 0.04142,-0.0318 0.04824,-0.02 0.05176,-0.007 0.05176,0.007 0.04824,0.02 0.04142,0.0318 6.334315,0"
     inkscape:connector-curvature="0" />
  <path
     id="face6-cut"
     style="fill:none;stroke:rgb(0, 0, 255);stroke-width:0.28222224;stroke-miterlimit:4;stroke-dasharray:none;stroke-linejoin:round;stroke-linecap:round"
     d="M 32.4999999999999,129.90002548598 L 1.0,129.90002548598 L 1.00000000000014,195.30002548598 L 32.5000000000001,195.30002548598 L 33.5000000000001,195.30002548598 L 33.7588190451026,195.265951312269 L 34.0000000000001,195.166050889765 L 34.2071067811866,195.007132267167 L 34.3660254037845,194.80002548598 L 34.4659258262891,194.558844531083 L 34.5000000000001,194.30002548598 L 34.5000000000001,189.30002548598 L 34.4659258262892,189.041206440878 L 34.3660254037845,188.80002548598 L 34.2071067811866,188.592918704794 L 34.0000000000001,188.434000082196 L 33.7588190451026,188.334099659691 L 33.5000000000001,188.30002548598 L 32.5000000000001,188.30002548598 L 32.4999999999999,136.90002548598 L 33.4999999999999,136.90002548598 L 33.7588190451024,136.86595131227 L 33.9999999999999,136.766050889765 L 34.2071067811865,136.607132267167 L 34.3660254037844,136.40002548598 L 34.465925826289,136.158844531083 L 34.4999999999999,135.90002548598 L 34.4999999999999,130.90002548598 L 34.465925826289,130.641206440878 L 34.3660254037844,130.40002548598 L 34.2071067811865,130.192918704794 L 33.9999999999999,130.034000082196 L 33.7588190451024,129.934099659691 L 33.4999999999999,129.90002548598 L 32.4999999999999,129.90002548598 M 9.65344221838077,193.342631992599 L 9.61202086214348,193.31084826808 L 3.28791593817152,193.31084826808 L 3.24649458193423,193.342631992599 L 3.19825839095472,193.3626120771 L 3.14649458193423,193.369426911842 L 3.09473077291375,193.3626120771 L 3.04649458193427,193.342631992599 L 3.00507322569695,193.31084826808 L 2.97328950117739,193.269426911842 L 2.95330941667646,193.221190720863 L 2.94649458193425,193.169426911842 L 2.95330941667643,193.117663102822 L 2.97328950117736,193.069426911842 L 3.00507322569692,193.028005555605 L 3.00507322569692,190.569979539605 L 2.97328950117728,190.528558183367 L 2.95330941667635,190.480321992388 L 2.94649458193419,190.428558183367 L 2.95330941667638,190.376794374347 L 2.97328950117733,190.328558183367 L 3.00507322569692,190.28713682713 L 3.04649458193421,190.255353102611 L 3.09473077291372,190.23537301811 L 3.14649458193423,190.228558183367 L 3.19825839095472,190.23537301811 L 3.24649458193426,190.255353102611 L 3.28791593817155,190.28713682713 L 9.61202086214348,190.28713682713 L 9.65344221838072,190.255353102611 L 9.70167840936023,190.23537301811 L 9.75344221838071,190.228558183367 L 9.80520602740125,190.23537301811 L 9.85344221838076,190.255353102611 L 9.89486357461809,190.28713682713 L 9.92664729913767,190.328558183367 L 9.9466273836386,190.376794374347 L 9.95344221838079,190.428558183367 L 9.9466273836386,190.480321992388 L 9.92664729913767,190.528558183367 L 9.89486357461811,190.569979539605 L 9.89486357461811,193.028005555605 L 9.9266472991377,193.069426911842 L 9.9466273836386,193.117663102822 L 9.95344221838081,193.169426911842 L 9.9466273836386,193.221190720863 L 9.92664729913767,193.269426911842 L 9.89486357461811,193.31084826808 L 9.85344221838082,193.342631992599 L 9.80520602740128,193.3626120771 L 9.7534422183808,193.369426911842 L 9.70167840936028,193.3626120771 L 9.65344221838077,193.342631992599 M 6.08898556074888,153.584336039839 L 6.08898556074897,145.384336039839 L 10.5889855607489,145.384336039839 L 10.588985560749,153.584336039839 L 6.08898556074888,153.584336039839 M 11.5889855607489,149.80002548598 L 11.5889855607488,140.30002548598 L 24.5000000000001,140.300025485981 L 24.5,149.80002548598 L 11.5889855607489,149.80002548598 M 9.50000000000003,156.90002548598 L 24.5,156.90002548598 L 24.5000000000001,173.30002548598 L 9.50000000000006,173.30002548598 L 9.50000000000003,156.90002548598 M 29.5000000000001,175.30002548598 L 29.5000000000001,184.30002548598 L 25.5000000000001,184.30002548598 L 25.5000000000001,175.30002548598 L 29.5000000000001,175.30002548598 M 2.97328950117733,134.682315570693 L 3.00507322569692,134.640894214455 L 3.00507322569692,132.182868198455 L 2.97328950117733,132.141446842218 L 2.95330941667643,132.093210651238 L 2.94649458193425,132.041446842218 L 2.95330941667643,131.989683033197 L 2.97328950117736,131.941446842218 L 3.00507322569692,131.90002548598 L 3.04649458193424,131.868241761461 L 3.09473077291375,131.84826167696 L 3.14649458193423,131.841446842218 L 3.19825839095475,131.84826167696 L 3.24649458193423,131.868241761461 L 3.28791593817155,131.900025485981 L 9.61202086214348,131.90002548598 L 9.65344221838077,131.868241761461 L 9.70167840936028,131.84826167696 L 9.7534422183808,131.841446842218 L 9.80520602740128,131.84826167696 L 9.85344221838079,131.868241761461 L 9.89486357461811,131.900025485981 L 9.92664729913767,131.941446842218 L 9.9466273836386,131.989683033197 L 9.95344221838079,132.041446842218 L 9.9466273836386,132.093210651238 L 9.92664729913767,132.141446842218 L 9.89486357461811,132.182868198455 L 9.89486357461811,134.640894214455 L 9.92664729913767,134.682315570693 L 9.9466273836386,134.730551761672 L 9.95344221838079,134.782315570693 L 9.9466273836386,134.834079379713 L 9.92664729913767,134.882315570693 L 9.89486357461811,134.92373692693 L 9.85344221838079,134.955520651449 L 9.80520602740128,134.97550073595 L 9.7534422183808,134.982315570693 L 9.70167840936028,134.97550073595 L 9.65344221838077,134.955520651449 L 9.61202086214348,134.92373692693 L 3.28791593817155,134.92373692693 L 3.2464945819342,134.955520651449 L 3.19825839095472,134.97550073595 L 3.14649458193423,134.982315570693 L 3.09473077291372,134.97550073595 L 3.04649458193421,134.955520651449 L 3.00507322569692,134.92373692693 L 2.97328950117733,134.882315570693 L 2.9533094166764,134.834079379713 L 2.94649458193422,134.782315570693 L 2.95330941667643,134.730551761672 L 2.97328950117733,134.682315570693 M 32.5000000000001,193.30002548598 L 32.4585786437628,193.3318092105 L 32.4103424527833,193.351789295001 L 32.3585786437628,193.358604129743 L 32.3068148347423,193.351789295001 L 32.2585786437628,193.3318092105 L 32.2171572875255,193.30002548598 L 25.8818448447608,193.30002548598 L 25.8404234851776,193.331809212432 L 25.7921872941514,193.35178929591 L 25.7404234853625,193.358604129743 L 25.6886596767889,193.351789294274 L 25.6404234863943,193.331809209271 L 25.599002130796,193.30002548449 L 25.5672184068885,193.258604128222 L 25.547238322902,193.210367937407 L 25.5404234885235,193.158604128689 L 25.5472383234475,193.106840320044 L 25.5672184079422,193.058604129439 L 25.5990021322862,193.017182773506 L 25.5990021322862,190.582868198455 L 25.5672184058348,190.541446838872 L 25.5472383223566,190.493210647846 L 25.5404234885234,190.441446839057 L 25.5472383239928,190.389683030483 L 25.5672184089958,190.341446840089 L 25.5990021337763,190.30002548449 L 25.6404234900443,190.268241760583 L 25.68865968086,190.248261676596 L 25.7404234895771,190.241446842218 L 25.7921872982225,190.248261677142 L 25.8404234888276,190.268241761636 L 25.8818448447608,190.30002548598 L 32.2171572875255,190.30002548598 L 32.2585786437628,190.268241761461 L 32.3068148347423,190.24826167696 L 32.3585786437628,190.241446842218 L 32.4103424527833,190.24826167696 L 32.4585786437628,190.268241761461 L 32.5000000000001,190.30002548598 L 32.5317837245196,190.341446842218 L 32.5517638090206,190.389683033197 L 32.5585786437628,190.441446842218 L 32.5517638090206,190.493210651238 L 32.5317837245196,190.541446842218 L 32.5000000000001,190.582868198455 L 32.5000000000001,193.017182773506 L 32.5317837245197,193.058604129743 L 32.5517638090206,193.106840320723 L 32.5585786437628,193.158604129743 L 32.5517638090206,193.210367938764 L 32.5317837245197,193.258604129743 L 32.5000000000001,193.30002548598 M 32.4999999999999,132.182868198455 L 32.4999999999999,134.640894214455 L 32.5317837245195,134.682315570693 L 32.5517638090204,134.730551761672 L 32.5585786437626,134.782315570693 L 32.5517638090204,134.834079379713 L 32.5317837245195,134.882315570693 L 32.4999999999999,134.92373692693 L 32.4585786437627,134.955520651449 L 32.4103424527831,134.97550073595 L 32.3585786437626,134.982315570693 L 32.3068148347421,134.97550073595 L 32.2585786437626,134.955520651449 L 32.2171572875253,134.92373692693 L 26.004271707517,134.92373692693 L 25.9628503512797,134.955520651449 L 25.9146141603002,134.97550073595 L 25.8628503512797,134.982315570693 L 25.8110865422592,134.97550073595 L 25.7628503512797,134.955520651449 L 25.7214289950424,134.92373692693 L 25.6896452705228,134.882315570693 L 25.6696651860219,134.834079379713 L 25.6628503512797,134.782315570693 L 25.6696651860219,134.730551761672 L 25.6896452705228,134.682315570693 L 25.7214289950424,134.640894214455 L 25.7214289950424,132.182868198455 L 25.6896452705228,132.141446842218 L 25.6696651860219,132.093210651238 L 25.6628503512797,132.041446842218 L 25.6696651860219,131.989683033197 L 25.6896452705228,131.941446842218 L 25.7214289950424,131.90002548598 L 25.7628503512797,131.868241761461 L 25.8110865422592,131.84826167696 L 25.8628503512797,131.841446842218 L 25.9146141603002,131.84826167696 L 25.9628503512797,131.868241761461 L 26.004271707517,131.90002548598 L 32.2171572875253,131.90002548598 L 32.2585786437626,131.868241761461 L 32.3068148347421,131.84826167696 L 32.3585786437626,131.841446842218 L 32.4103424527831,131.84826167696 L 32.4585786437627,131.868241761461 L 32.4999999999999,131.90002548598 L 32.5317837245195,131.941446842218 L 32.5517638090204,131.989683033197 L 32.5585786437626,132.041446842218 L 32.5517638090204,132.093210651238 L 32.5317837245195,132.141446842218 L 32.4999999999999,132.182868198455 " />
  <g
     id="g3026"
     style="stroke-width:0.28222224;stroke-miterlimit:4;stroke-dasharray:none">
    <g
       id="g3011"
       style="stroke-width:0.28222224;stroke-miterlimit:4;stroke-dasharray:none">
      <path
         id="face7-cut"
         style="fill:none;stroke:rgb(0, 0, 255);stroke-width:0.28222224;stroke-miterlimit:4;stroke-dasharray:none;stroke-linejoin:round;stroke-linecap:round"
         d="M 18.0000000000001,199.300026874498 M 28.0130243623914,199.300026874498 L 28.0129826981781,196.30002548598 L 17.9999583357868,196.300026874788 L 18.0000000000001,199.300026874498 " />
      <g
         id="g3008"
         style="stroke-width:0.28222224;stroke-miterlimit:4;stroke-dasharray:none">
        <path
           d="M 18.0000000000001,199.300026874498 L 1.00000000000007,199.300026874498 L 1.0,254.700045044145 L 17.9999998823838,254.700044686089 M 27.9999998823838,254.700044686089 L 60.4515175313274,254.700044133536 M 70.4921662023391,254.700041335493 L 87.4515173445251,254.700044110776 L 87.4515173445251,199.300026874498 L 70.4307780874341,199.300026874498 M 60.4515173445251,199.300026874498 L 28.0130243623914,199.300026874498 "
           style="fill:none;stroke:rgb(0, 0, 255);stroke-width:0.28222224;stroke-miterlimit:4;stroke-dasharray:none;stroke-linejoin:round;stroke-linecap:round"
           id="face8-cut" />
      </g>
      <path
         id="face9-cut"
         style="fill:none;stroke:rgb(0, 0, 255);stroke-width:0.28222224;stroke-miterlimit:4;stroke-dasharray:none;stroke-linejoin:round;stroke-linecap:round"
         d="M 60.4515173445251,199.300026874498 M 70.4307780874341,199.300026874498 L 70.4307326177397,196.301372717904 L 60.4514718748324,196.301386364996 L 60.4515173445251,199.300026874498 " />
    </g>
    <path
       d="M 27.9999998823838,254.700044686089 M 17.9999998823838,254.700044686089 L 17.9999998823838,257.700044647107 L 27.9999998823838,257.700044647107 L 27.9999998823838,254.700044686089 "
       style="fill:none;stroke:rgb(0, 0, 255);stroke-width:0.28222224;stroke-miterlimit:4;stroke-dasharray:none;stroke-linejoin:round;stroke-linecap:round"
       id="face10-cut" />
    <path
       d="M 70.4921662023391,254.700041335493 M 60.4515175313274,254.700044133536 L 60.451559502067,257.700050980559 L 70.4922081730788,257.700048182516 L 70.4921662023391,254.700041335493 "
       style="fill:none;stroke:rgb(0, 0, 255);stroke-width:0.28222224;stroke-miterlimit:4;stroke-dasharray:none;stroke-linejoin:round;stroke-linecap:round"
       id="face11-cut" />
  </g>
  <path
     id="face12-cut"
     style="fill:none;stroke:rgb(0, 0, 255);stroke-width:0.28222224;stroke-miterlimit:4;stroke-dasharray:none;stroke-linejoin:round;stroke-linecap:round"
     d="M 94.5109220221719,291.200050980559 L 94.7012261467607,291.176914941221 L 94.8714982582348,291.11342480076 L 95.0217383565943,291.014080559178 L 95.1519464418393,290.883382216473 L 95.2621225139696,290.725829772646 L 95.3522665729853,290.545923227696 L 95.4223786188864,290.348162581624 L 95.4724586516729,290.13704783443 L 95.5025066713449,289.917078986113 L 95.5125226779021,289.692756036675 L 95.5025066713449,289.468578986113 L 95.472458651673,289.24904783443 L 95.4223786188864,289.038662581624 L 95.3522665729853,288.841923227696 L 95.2621225139696,288.663329772646 L 95.1519464418393,288.507382216473 L 95.0217383565943,288.378580559178 L 94.8714982582348,288.28142480076 L 94.7012261467607,288.220414941221 L 94.5109220221719,288.200050980559 L 94.5109220221719,283.200050980559 L 91.510922022172,283.200050980559 L 91.510922022172,267.700050980559 L 94.5109220221719,267.700050980559 L 94.510922022172,262.700050980559 L 94.7020740341892,262.676772957605 L 94.8731047817836,262.613155779173 L 95.0240142649551,262.513699445262 L 95.1548024837037,262.382903955873 L 95.2654694380295,262.225269311005 L 95.3560151279324,262.045295510659 L 95.4264395534124,261.847482554834 L 95.4767427144696,261.636330443531 L 95.5069246111039,261.416339176748 L 95.5169852433153,261.192008754488 L 95.5069246111039,260.967839176748 L 95.4767427144696,260.748330443531 L 95.4264395534124,260.537982554834 L 95.3560151279324,260.341295510659 L 95.2654694380295,260.162769311005 L 95.1548024837037,260.006903955873 L 95.0240142649551,259.878199445263 L 94.8731047817836,259.781155779173 L 94.7020740341892,259.720272957605 L 94.5109220221719,259.700050980559 L 94.5109220221719,260.700050980559 L 91.510922022172,260.700050980559 L 91.510922022172,258.700050980559 L 5.01092202217196,258.700050980559 L 5.01092202217194,260.700050980559 L 2.01092202217197,260.700050980559 L 2.01092202217197,259.700050980559 L 1.81884683795929,259.72129870764 L 1.64699009419006,259.783099305555 L 1.49535179086426,259.880952774303 L 1.36393192798192,260.010359113885 L 1.25273050554299,260.1668183243 L 1.16174752354753,260.345830405549 L 1.09098298199549,260.542895357632 L 1.04043688088687,260.753513180548 L 1.01010922022172,260.973183874298 L 1.0,261.197407438881 L 1.01010922022172,261.421683874298 L 1.04043688088689,261.641513180548 L 1.09098298199549,261.852395357632 L 1.16174752354753,262.049830405549 L 1.25273050554301,262.2293183243 L 1.3639319279819,262.386359113885 L 1.49535179086426,262.516452774303 L 1.64699009419004,262.615099305555 L 1.81884683795929,262.67779870764 L 2.01092202217197,262.700050980559 L 2.01092202217197,267.700050980559 L 4.01092202217196,267.700050980559 L 4.01092202217196,283.200050980559 L 2.01092202217197,283.200050980559 L 2.01092202217197,288.200050980559 L 1.82145695009113,288.222590965119 L 1.65193556980826,288.28554779341 L 1.50235788132338,288.384421465432 L 1.37272388463649,288.514711981184 L 1.26303357974759,288.671919340666 L 1.17328696665668,288.851543543879 L 1.10348404536371,289.049084590823 L 1.05362481586877,289.260042481496 L 1.02370927817177,289.479917215901 L 1.01373743227278,289.704208794036 L 1.02370927817177,289.9284172159 L 1.05362481586874,290.148042481496 L 1.10348404536371,290.358584590824 L 1.17328696665665,290.555543543881 L 1.26303357974759,290.734419340666 L 1.37272388463649,290.890711981184 L 1.50235788132336,291.019921465436 L 1.65189891867298,291.200050980559 L 1.82145458023041,291.200050980559 L 2.01092202217197,291.200050980559 L 2.01092202217197,290.200050980558 L 5.01092202217196,290.200050980559 L 5.01092202217196,292.200050980559 L 91.5109220221719,292.200050980559 L 91.5109220221719,290.200050980559 L 94.5109220221719,290.200050980559 L 94.5109220221719,291.200050980559 M 22.0591577595698,287.482893693033 L 22.0273740350502,287.441472336796 L 22.0073939505493,287.393236145817 L 22.0005791158071,287.341472336796 L 22.0073939505493,287.289708527775 L 22.0273740350502,287.241472336796 L 22.0591577595698,287.200050980559 L 22.1005791158071,287.168267256039 L 22.1488153067866,287.148287171538 L 22.2005791158071,287.141472336796 L 22.2523429248276,287.148287171538 L 22.3005791158071,287.168267256039 L 22.3420004720444,287.200050980559 L 31.7280793096973,287.200050980559 L 31.7695006659346,287.168267256039 L 31.8177368569141,287.148287171538 L 31.8695006659346,287.141472336796 L 31.9212644749551,287.148287171538 L 31.9695006659346,287.168267256039 L 32.0109220221719,287.200050980559 L 32.0427057466915,287.241472336796 L 32.0626858311924,287.289708527776 L 32.0695006659346,287.341472336796 L 32.0626858311924,287.393236145817 L 32.0427057466915,287.441472336796 L 32.010922022172,287.482893693033 L 32.010922022172,289.917208268084 L 32.0427057466915,289.958629624321 L 32.0626858311925,290.006865815301 L 32.0695006659346,290.058629624321 L 32.0626858311925,290.110393433342 L 32.0427057466915,290.158629624322 L 32.010922022172,290.200050980559 L 31.9695006659346,290.231834705078 L 31.9212644749551,290.251814789579 L 31.8695006659346,290.258629624321 L 31.8177368569141,290.251814789579 L 31.7695006659346,290.231834705078 L 31.7280793096973,290.200050980559 L 22.3420004720444,290.200050980559 L 22.3005791158071,290.231834705078 L 22.2523429248276,290.25181478958 L 22.2005791158071,290.258629624321 L 22.1488153067866,290.25181478958 L 22.1005791158071,290.231834705079 L 22.0591577595698,290.20005098056 L 22.0273740350502,290.158629624322 L 22.0073939505493,290.110393433342 L 22.0005791158071,290.058629624322 L 22.0073939505493,290.006865815301 L 22.0273740350502,289.958629624321 L 22.0591577595698,289.917208268084 L 22.0591577595698,287.482893693033 M 31.7280793096973,260.700050980559 L 31.7695006656305,260.668267256215 L 31.8177368562356,260.64828717172 L 31.869500664881,260.641472336796 L 31.9212644735981,260.648287171175 L 31.9695006644138,260.668267255161 L 32.0109220206819,260.700050979069 L 32.0427057454623,260.741472334667 L 32.0626858304652,260.789708525062 L 32.0695006659347,260.841472333635 L 32.0626858321015,260.893236142424 L 32.0427057486233,260.94147233345 L 32.010922022172,260.982893693033 L 32.010922022172,263.417208268084 L 32.0427057466916,263.458629624321 L 32.0626858311925,263.506865815301 L 32.0695006659347,263.558629624321 L 32.0626858311925,263.610393433342 L 32.0427057466915,263.658629624321 L 32.010922022172,263.700050980559 L 31.9695006659347,263.731834705078 L 31.9212644749552,263.751814789579 L 31.8695006659347,263.758629624321 L 31.8177368569142,263.751814789579 L 31.7695006659346,263.731834705078 L 31.7280793096973,263.700050980559 L 22.3937647346466,263.700050980559 L 22.3523433784093,263.731834705078 L 22.3041071874298,263.751814789579 L 22.2523433784093,263.758629624321 L 22.2005795693888,263.751814789579 L 22.1523433784093,263.731834705078 L 22.110922022172,263.700050980559 L 22.0791382976524,263.658629624321 L 22.0591582131515,263.610393433342 L 22.0523433784093,263.558629624321 L 22.0591582131515,263.506865815301 L 22.0791382976524,263.458629624321 L 22.110922022172,263.417208268084 L 22.110922022172,260.982893693033 L 22.079138297828,260.9414723371 L 22.0591582133333,260.893236146495 L 22.0523433784093,260.84147233785 L 22.0591582127878,260.789708529133 L 22.0791382967743,260.741472338317 L 22.1109220206819,260.700050982049 L 22.1523433762801,260.668267257268 L 22.2005795666747,260.648287172266 L 22.2523433752483,260.641472336796 L 22.3041071840372,260.648287170629 L 22.3523433750634,260.668267254107 L 22.3937647346466,260.700050980559 L 31.7280793096973,260.700050980559 M 74.410922022172,263.417208268084 L 74.4427057465159,263.458629624017 L 74.4626858310106,263.506865814622 L 74.4695006659346,263.558629623268 L 74.4626858315561,263.610393431985 L 74.4427057475696,263.658629622801 L 74.4109220236621,263.700050979069 L 74.3695006680638,263.731834703849 L 74.3212644776692,263.751814788852 L 74.2695006690956,263.758629624321 L 74.2177368603067,263.751814790488 L 74.1695006692805,263.73183470701 L 74.1280793096973,263.700050980559 L 64.7937647346466,263.700050980559 L 64.7523433787134,263.731834704903 L 64.7041071881083,263.751814789397 L 64.6523433794629,263.758629624321 L 64.6005795707458,263.751814789943 L 64.5523433799301,263.731834705956 L 64.5109220236621,263.700050982049 L 64.4791382988817,263.658629626451 L 64.4591582138787,263.610393436056 L 64.4523433784093,263.558629627483 L 64.4591582122424,263.506865818694 L 64.4791382957207,263.458629627667 L 64.5109220221719,263.417208268084 L 64.5109220221719,260.982893693033 L 64.4791382976524,260.941472336796 L 64.4591582131515,260.893236145817 L 64.4523433784093,260.841472336796 L 64.4591582131515,260.789708527776 L 64.4791382976524,260.741472336796 L 64.510922022172,260.700050980559 L 64.5523433784093,260.668267256039 L 64.6005795693888,260.648287171538 L 64.6523433784093,260.641472336796 L 64.7041071874298,260.648287171538 L 64.7523433784093,260.668267256039 L 64.7937647346466,260.700050980559 L 74.1280793096973,260.700050980559 L 74.1695006659346,260.668267256039 L 74.2177368569141,260.648287171538 L 74.2695006659346,260.641472336796 L 74.3212644749551,260.648287171538 L 74.3695006659346,260.668267256039 L 74.4109220221719,260.700050980559 L 74.4427057466915,260.741472336796 L 74.4626858311924,260.789708527776 L 74.4695006659346,260.841472336796 L 74.4626858311924,260.893236145817 L 74.4427057466915,260.941472336796 L 74.4109220221719,260.982893693033 L 74.410922022172,263.417208268084 M 74.1280793096973,287.200050980559 L 74.1695006659346,287.168267256039 L 74.2177368569141,287.148287171538 L 74.2695006659346,287.141472336796 L 74.3212644749551,287.148287171538 L 74.3695006659346,287.168267256039 L 74.4109220221719,287.200050980559 L 74.4427057466915,287.241472336796 L 74.4626858311924,287.289708527776 L 74.4695006659346,287.341472336796 L 74.4626858311924,287.393236145817 L 74.4427057466915,287.441472336796 L 74.4109220221719,287.482893693033 L 74.4109220221719,289.917208268084 L 74.4427057466915,289.958629624322 L 74.4626858311924,290.006865815301 L 74.4695006659346,290.058629624322 L 74.4626858311924,290.110393433342 L 74.4427057466915,290.158629624321 L 74.4109220221719,290.200050980559 L 74.3695006659346,290.231834705078 L 74.3212644749551,290.251814789579 L 74.2695006659346,290.258629624321 L 74.2177368569141,290.251814789579 L 74.1695006659346,290.231834705078 L 74.1280793096973,290.200050980559 L 64.7937647346465,290.200050980559 L 64.7523433784092,290.231834705078 L 64.7041071874297,290.251814789579 L 64.6523433784092,290.258629624321 L 64.6005795693887,290.251814789579 L 64.5523433784092,290.231834705078 L 64.5109220221719,290.200050980559 L 64.4791382976524,290.158629624321 L 64.4591582131515,290.110393433342 L 64.4523433784093,290.058629624322 L 64.4591582131515,290.006865815301 L 64.4791382976524,289.958629624321 L 64.5109220221719,289.917208268084 L 64.5109220221719,287.482893693033 L 64.4791382976524,287.441472336796 L 64.4591582131514,287.393236145817 L 64.4523433784093,287.341472336796 L 64.4591582131514,287.289708527776 L 64.4791382976524,287.241472336796 L 64.5109220221719,287.200050980559 L 64.5523433784093,287.168267256039 L 64.6005795693888,287.148287171538 L 64.6523433784093,287.141472336796 L 64.7041071874298,287.148287171538 L 64.7523433784093,287.168267256039 L 64.7937647346465,287.200050980559 L 74.1280793096973,287.200050980559 " />
  <path
     id="face13-cut"
     style="fill:none;stroke:rgb(0, 0, 255);stroke-width:0.28222224;stroke-miterlimit:4;stroke-dasharray:none;stroke-linejoin:round;stroke-linecap:round"
     d="M 94.7012261467607,294.223187019897 L 94.5109220221719,294.200050980559 L 94.5109220221719,295.200050980559 L 91.5109220221719,295.200050980559 L 91.5109220221719,293.200050980559 L 5.01092202217193,293.200050980559 L 5.01092202217193,295.200050980559 L 2.01092202217194,295.200050980559 L 2.01091913472695,294.223187019897 L 1.82145692460072,294.223187019897 L 1.65191663114757,294.223187019897 L 1.50235788132337,294.380180495685 L 1.37272388463646,294.509389979931 L 1.26303357974756,294.665682620451 L 1.17328696665665,294.84455841724 L 1.10348404536371,295.041517370295 L 1.05362481586873,295.25205947962 L 1.02370927817177,295.471684745217 L 1.01373743227279,295.695893167083 L 1.02370927817177,295.920184745217 L 1.05362481586874,296.140059479621 L 1.10348404536369,296.351017370295 L 1.17328696665665,296.548558417239 L 1.26303357974756,296.728182620452 L 1.37272388463647,296.885389979934 L 1.50235788132336,297.015680495685 L 1.65193556980824,297.114554167707 L 1.82145695009109,297.177510995998 L 2.01092202217195,297.20005098056 L 2.01092202217194,302.200050980559 L 4.01092202217194,302.200050980559 L 4.01092202217195,317.700050980559 L 2.01092202217195,317.700050980559 L 2.01092202217193,322.700050980559 L 1.81884683795927,322.722303253478 L 1.64699009419004,322.785002655563 L 1.49535179086423,322.883649186815 L 1.36393192798189,323.013742847233 L 1.25273050554298,323.170783636817 L 1.16174752354752,323.350271555569 L 1.09098298199547,323.547706603486 L 1.04043688088686,323.75858878057 L 1.0101092202217,323.97841808682 L 1.0,324.202694522237 L 1.01010922022172,324.42691808682 L 1.04043688088687,324.64658878057 L 1.09098298199545,324.857206603486 L 1.16174752354748,325.054271555568 L 1.25273050554298,325.233283636817 L 1.36393192798192,325.389742847233 L 1.49535179086425,325.519149186815 L 1.64699009419004,325.617002655563 L 1.81884683795927,325.678803253478 L 2.01092202217194,325.700050980559 L 2.01092202217194,324.700050980559 L 5.01092202217195,324.700050980559 L 5.01092202217194,326.700050980559 L 91.5109220221719,326.700050980559 L 91.5109220221719,324.700050980559 L 94.5109220221719,324.700050980559 L 94.5109220221719,325.700050980559 L 94.7020740341892,325.679829003513 L 94.8731047817836,325.618946181945 L 95.024014264955,325.521902515855 L 95.1548024837037,325.393198005244 L 95.2654694380295,325.237332650112 L 95.3560151279324,325.058806450459 L 95.4264395534124,324.862119406284 L 95.4767427144696,324.651771517587 L 95.5069246111039,324.432262784369 L 95.5169852433153,324.20809320663 L 95.5069246111039,323.983762784369 L 95.4767427144696,323.763771517587 L 95.4264395534124,323.552619406284 L 95.3560151279324,323.354806450459 L 95.2654694380295,323.174832650112 L 95.1548024837037,323.017198005245 L 95.0240142649551,322.886402515855 L 94.8731047817836,322.786946181945 L 94.7020740341892,322.723329003513 L 94.5109220221719,322.700050980559 L 94.5109220221719,317.700050980559 L 91.5109220221719,317.700050980559 L 91.5109220221719,302.200050980559 L 94.5109220221719,302.200050980559 L 94.5109220221719,297.200050980559 L 94.7012261467607,297.179687019897 L 94.8714982582348,297.118677160357 L 95.0217383565943,297.02152140194 L 95.1519464418393,296.892719744645 L 95.2621225139696,296.736772188472 L 95.3522665729853,296.558178733422 L 95.4223786188864,296.361439379494 L 95.472458651673,296.151054126688 L 95.5025066713449,295.931522975004 L 95.5125226779021,295.707345924443 L 95.5025066713449,295.483022975004 L 95.4724586516729,295.263054126688 L 95.4223786188864,295.051939379494 L 95.3522665729853,294.854178733422 L 95.2621225139696,294.674272188472 L 95.1519464418393,294.516719744645 L 95.0217383565943,294.38602140194 L 94.8714982582348,294.286677160357 L 94.7012261467607,294.223187019897 M 22.0273740350502,297.958629624322 L 22.0591577595698,297.917208268084 L 22.0591577595698,295.482893693034 L 22.0273740350502,295.441472336796 L 22.0073939505493,295.393236145816 L 22.0005791158071,295.341472336797 L 22.0073939505492,295.289708527775 L 22.0273740350502,295.241472336795 L 22.0591577595698,295.20005098056 L 22.1005791158071,295.16826725604 L 22.1488153067866,295.148287171539 L 22.2005791158071,295.141472336797 L 22.2523429248276,295.148287171538 L 22.3005791158071,295.168267256039 L 22.3420004720444,295.200050980558 L 31.7280793096973,295.200050980559 L 31.7695006659346,295.168267256039 L 31.8177368569141,295.148287171538 L 31.8695006659346,295.141472336796 L 31.9212644749551,295.148287171538 L 31.9695006659346,295.168267256039 L 32.0109220221719,295.200050980559 L 32.0427057466915,295.241472336796 L 32.0626858311924,295.289708527776 L 32.0695006659346,295.341472336796 L 32.0626858311925,295.393236145817 L 32.0427057466915,295.441472336797 L 32.0109220221719,295.482893693033 L 32.0109220221719,297.917208268084 L 32.0427057466915,297.958629624322 L 32.0626858311924,298.006865815301 L 32.0695006659346,298.058629624322 L 32.0626858311924,298.110393433342 L 32.0427057466915,298.158629624322 L 32.0109220221719,298.200050980559 L 31.9695006659346,298.231834705079 L 31.9212644749551,298.25181478958 L 31.8695006659346,298.258629624321 L 31.8177368569141,298.25181478958 L 31.7695006659346,298.231834705079 L 31.7280793096973,298.200050980559 L 22.3420004720444,298.200050980559 L 22.3005791158071,298.231834705078 L 22.2523429248276,298.251814789579 L 22.2005791158071,298.258629624322 L 22.1488153067866,298.25181478958 L 22.1005791158071,298.231834705078 L 22.0591577595698,298.200050980559 L 22.0273740350502,298.158629624322 L 22.0073939505493,298.110393433342 L 22.0005791158071,298.058629624322 L 22.0073939505493,298.006865815301 L 22.0273740350502,297.958629624322 M 31.7695006656305,324.731834704903 L 31.7280793096973,324.700050980559 L 22.3937647346466,324.700050980559 L 22.3523433750634,324.73183470701 L 22.3041071840372,324.751814790489 L 22.2523433752483,324.758629624322 L 22.2005795666747,324.751814788852 L 22.1523433762801,324.731834703849 L 22.1109220206818,324.700050979069 L 22.0791382967743,324.658629622801 L 22.0591582127878,324.610393431985 L 22.0523433784093,324.558629623268 L 22.0591582133333,324.506865814623 L 22.079138297828,324.458629624018 L 22.1109220221719,324.417208268084 L 22.1109220221719,321.982893693034 L 22.0791382976524,321.941472336796 L 22.0591582131514,321.893236145817 L 22.0523433784093,321.841472336796 L 22.0591582131514,321.789708527776 L 22.0791382976524,321.741472336796 L 22.1109220221719,321.700050980559 L 22.1523433784093,321.668267256039 L 22.2005795693888,321.648287171539 L 22.2523433784093,321.641472336796 L 22.3041071874298,321.648287171539 L 22.3523433784093,321.668267256039 L 22.3937647346466,321.700050980559 L 31.7280793096973,321.700050980559 L 31.7695006659346,321.668267256039 L 31.8177368569141,321.648287171538 L 31.8695006659346,321.641472336796 L 31.9212644749551,321.648287171538 L 31.9695006659347,321.668267256039 L 32.010922022172,321.700050980559 L 32.0427057466915,321.741472336796 L 32.0626858311925,321.789708527776 L 32.0695006659346,321.841472336796 L 32.0626858311925,321.893236145817 L 32.0427057466915,321.941472336796 L 32.0109220221719,321.982893693034 L 32.0109220221719,324.417208268084 L 32.0427057486233,324.458629627668 L 32.0626858321015,324.506865818694 L 32.0695006659347,324.558629627483 L 32.0626858304652,324.610393436056 L 32.0427057454622,324.658629626451 L 32.0109220206818,324.700050982049 L 31.9695006644138,324.731834705957 L 31.9212644735981,324.751814789943 L 31.869500664881,324.758629624322 L 31.8177368562356,324.751814789398 L 31.7695006656305,324.731834704903 M 74.4427057465159,321.9414723371 L 74.4109220221719,321.982893693034 L 74.4109220221719,324.417208268084 L 74.4427057466915,324.458629624322 L 74.4626858311924,324.506865815301 L 74.4695006659346,324.558629624322 L 74.4626858311924,324.610393433342 L 74.4427057466915,324.658629624322 L 74.4109220221719,324.700050980559 L 74.3695006659346,324.731834705079 L 74.3212644749551,324.75181478958 L 74.2695006659346,324.758629624322 L 74.2177368569141,324.75181478958 L 74.1695006659346,324.731834705079 L 74.1280793096973,324.700050980559 L 64.7937647346465,324.700050980559 L 64.7523433784093,324.731834705079 L 64.7041071874298,324.75181478958 L 64.6523433784093,324.758629624322 L 64.6005795693888,324.75181478958 L 64.5523433784093,324.731834705079 L 64.510922022172,324.700050980559 L 64.4791382976524,324.658629624322 L 64.4591582131515,324.610393433342 L 64.4523433784093,324.558629624322 L 64.4591582131514,324.506865815301 L 64.4791382976524,324.458629624322 L 64.5109220221719,324.417208268084 L 64.5109220221719,321.982893693034 L 64.4791382957206,321.94147233345 L 64.4591582122424,321.893236142424 L 64.4523433784093,321.841472333635 L 64.4591582138787,321.789708525062 L 64.4791382988817,321.741472334667 L 64.5109220236621,321.700050979069 L 64.5523433799301,321.668267255161 L 64.6005795707458,321.648287171175 L 64.6523433794629,321.641472336796 L 64.7041071881083,321.64828717172 L 64.7523433787134,321.668267256215 L 64.7937647346465,321.700050980559 L 74.1280793096973,321.700050980559 L 74.1695006692805,321.668267254108 L 74.2177368603067,321.648287170629 L 74.2695006690956,321.641472336796 L 74.3212644776692,321.648287172266 L 74.3695006680638,321.668267257269 L 74.410922023662,321.700050982049 L 74.4427057475696,321.741472338317 L 74.462685831556,321.789708529133 L 74.4695006659346,321.84147233785 L 74.4626858310106,321.893236146495 L 74.4427057465159,321.9414723371 M 74.1695006659346,298.231834705079 L 74.1280793096973,298.200050980559 L 64.7937647346465,298.200050980559 L 64.7523433784093,298.231834705079 L 64.7041071874298,298.25181478958 L 64.6523433784093,298.258629624322 L 64.6005795693887,298.25181478958 L 64.5523433784093,298.231834705079 L 64.5109220221719,298.200050980559 L 64.4791382976524,298.158629624322 L 64.4591582131514,298.110393433342 L 64.4523433784093,298.058629624322 L 64.4591582131514,298.006865815301 L 64.4791382976524,297.958629624322 L 64.5109220221719,297.917208268084 L 64.5109220221719,295.482893693034 L 64.4791382976524,295.441472336796 L 64.4591582131515,295.393236145817 L 64.4523433784093,295.341472336796 L 64.4591582131515,295.289708527776 L 64.4791382976524,295.241472336796 L 64.5109220221719,295.200050980559 L 64.5523433784092,295.168267256039 L 64.6005795693887,295.148287171539 L 64.6523433784092,295.141472336796 L 64.7041071874297,295.148287171539 L 64.7523433784092,295.168267256039 L 64.7937647346465,295.200050980559 L 74.1280793096973,295.200050980559 L 74.1695006659346,295.168267256039 L 74.2177368569141,295.148287171539 L 74.2695006659346,295.141472336796 L 74.3212644749551,295.148287171539 L 74.3695006659346,295.168267256039 L 74.4109220221719,295.200050980559 L 74.4427057466915,295.241472336796 L 74.4626858311924,295.289708527776 L 74.4695006659346,295.341472336796 L 74.4626858311924,295.393236145817 L 74.4427057466915,295.441472336796 L 74.4109220221719,295.482893693034 L 74.4109220221719,297.917208268084 L 74.4427057466915,297.958629624322 L 74.4626858311924,298.006865815301 L 74.4695006659346,298.058629624322 L 74.4626858311924,298.110393433342 L 74.4427057466915,298.158629624322 L 74.4109220221719,298.200050980559 L 74.3695006659346,298.231834705079 L 74.3212644749551,298.25181478958 L 74.2695006659346,298.258629624322 L 74.2177368569141,298.25181478958 L 74.1695006659346,298.231834705079 " />
</svg>
