solid push_button_lid_v2
facet normal 1.0 -0.0 -0.0
outer loop
vertex 32.0 39.6126531176223 0.4
vertex 32.0 1.5 2.4
vertex 32.0 1.5 0.4
endloop
endfacet
facet normal 1.0 -0.0 -0.0
outer loop
vertex 32.0 1.5 2.4
vertex 32.0 39.6126531176223 0.4
vertex 32.0 39.6126531176223 2.4
endloop
endfacet
facet normal -1.0 0.0 0.0
outer loop
vertex 0.0 39.6126531176223 2.4
vertex 0.0 1.5 0.4
vertex 0.0 1.5 2.4
endloop
endfacet
facet normal -1.0 0.0 0.0
outer loop
vertex 0.0 1.5 0.4
vertex 0.0 39.6126531176223 2.4
vertex 0.0 39.6126531176223 0.4
endloop
endfacet
facet normal 3.62965982902205e-17 1.18721954601191e-17 1.0
outer loop
vertex 30.5 3.0 4.4
vertex 22.5 19.4113323444514 4.39999999999999
vertex 22.5 3.0 4.4
endloop
endfacet
facet normal 3.62965982902205e-17 1.18721954601191e-17 1.0
outer loop
vertex 22.5 19.4113323444514 4.39999999999999
vertex 30.5 3.0 4.4
vertex 23.1874407509662 28.8843039271632 4.4
endloop
endfacet
facet normal 3.62965982902205e-17 1.18721954601191e-17 1.0
outer loop
vertex 23.1874407509662 28.8843039271632 4.4
vertex 30.5 3.0 4.4
vertex 23.4970779581344 30.8175574910851 4.4
endloop
endfacet
facet normal 3.62965982902205e-17 1.18721954601191e-17 1.0
outer loop
vertex 1.5 38.1126531176223 4.4
vertex 13.2164724927033 37.9235059368053 4.4
vertex 30.5 38.1126531176223 4.4
endloop
endfacet
facet normal 3.62965982902205e-17 1.18721954601191e-17 1.0
outer loop
vertex 13.2164724927033 37.9235059368053 4.4
vertex 1.5 38.1126531176223 4.4
vertex 12.4327524085972 37.6242233513913 4.4
endloop
endfacet
facet normal 3.62965982902205e-17 1.18721954601191e-17 1.0
outer loop
vertex 12.4327524085972 37.6242233513913 4.4
vertex 1.5 38.1126531176223 4.4
vertex 10.8467891348986 36.4761532154854 4.4
endloop
endfacet
facet normal 3.62965982902205e-17 1.18721954601191e-17 1.0
outer loop
vertex 10.8467891348986 36.4761532154854 4.4
vertex 1.5 38.1126531176223 4.4
vertex 9.61200866557302 34.9567251207563 4.4
endloop
endfacet
facet normal 3.62965982902205e-17 1.18721954601191e-17 1.0
outer loop
vertex 9.61200866557302 34.9567251207563 4.4
vertex 1.5 38.1126531176223 4.4
vertex 8.81255924903385 33.1694855808862 4.4
endloop
endfacet
facet normal 3.62965982902205e-17 1.18721954601191e-17 1.0
outer loop
vertex 8.81255924903385 33.1694855808862 4.4
vertex 1.5 38.1126531176223 4.4
vertex 8.50292204186558 31.2362320169643 4.4
endloop
endfacet
facet normal 3.62965982902205e-17 1.18721954601191e-17 1.0
outer loop
vertex 30.5 38.1126531176223 4.4
vertex 13.2164724927033 37.9235059368053 4.4
vertex 18.7927659259624 37.9235059368053 4.4
endloop
endfacet
facet normal 3.62965982902205e-17 1.18721954601191e-17 1.0
outer loop
vertex 30.5 38.1126531176223 4.4
vertex 18.7927659259624 37.9235059368053 4.4
vertex 19.9298303667316 37.4148860884517 4.4
endloop
endfacet
facet normal 3.62965982902205e-17 1.18721954601191e-17 1.0
outer loop
vertex 30.5 38.1126531176223 4.4
vertex 19.9298303667316 37.4148860884517 4.4
vertex 21.4492584614607 36.1801056191262 4.4
endloop
endfacet
facet normal 3.62965982902205e-17 1.18721954601191e-17 1.0
outer loop
vertex 30.5 38.1126531176223 4.4
vertex 21.4492584614607 36.1801056191262 4.4
vertex 22.5973285973666 34.5941423454276 4.4
endloop
endfacet
facet normal 3.62965982902205e-17 1.18721954601191e-17 1.0
outer loop
vertex 30.5 38.1126531176223 4.4
vertex 22.5973285973666 34.5941423454276 4.4
vertex 23.295801691963 32.7650770435302 4.4
endloop
endfacet
facet normal 3.62965982902205e-17 1.18721954601191e-17 1.0
outer loop
vertex 30.5 38.1126531176223 4.4
vertex 23.295801691963 32.7650770435302 4.4
vertex 23.4970779581344 30.8175574910851 4.4
endloop
endfacet
facet normal 3.62965982902205e-17 1.18721954601191e-17 1.0
outer loop
vertex 30.5 38.1126531176223 4.4
vertex 23.4970779581344 30.8175574910851 4.4
vertex 30.5 3.0 4.4
endloop
endfacet
facet normal 3.62965982902205e-17 1.18721954601191e-17 1.0
outer loop
vertex 9.5 3.0 4.4
vertex 1.5 38.1126531176223 4.4
vertex 1.5 3.0 4.4
endloop
endfacet
facet normal 3.62965982902205e-17 1.18721954601191e-17 1.0
outer loop
vertex 1.5 38.1126531176223 4.4
vertex 9.5 3.0 4.4
vertex 8.50292204186558 31.2362320169643 4.4
endloop
endfacet
facet normal 3.62965982902205e-17 1.18721954601191e-17 1.0
outer loop
vertex 8.50292204186558 31.2362320169643 4.4
vertex 9.5 3.0 4.4
vertex 8.70419830803705 29.2887124645192 4.4
endloop
endfacet
facet normal 3.62965982902205e-17 1.18721954601191e-17 1.0
outer loop
vertex 8.70419830803705 29.2887124645192 4.4
vertex 9.5 3.0 4.4
vertex 9.40267140263343 27.4596471626219 4.4
endloop
endfacet
facet normal 3.62965982902205e-17 1.18721954601191e-17 1.0
outer loop
vertex 9.40267140263343 27.4596471626219 4.4
vertex 9.5 3.0 4.4
vertex 9.5 19.4113323444514 4.4
endloop
endfacet
facet normal 3.62965982902205e-17 1.18721954601191e-17 1.0
outer loop
vertex 9.40267140263343 27.4596471626219 4.4
vertex 9.5 19.4113323444514 4.4
vertex 10.5507415385393 25.8736838889233 4.4
endloop
endfacet
facet normal 3.62965982902205e-17 1.18721954601191e-17 1.0
outer loop
vertex 10.5507415385393 25.8736838889233 4.4
vertex 9.5 19.4113323444514 4.4
vertex 12.0701696332684 24.6389034195977 4.4
endloop
endfacet
facet normal 3.62965982902205e-17 1.18721954601191e-17 1.0
outer loop
vertex 12.0701696332684 24.6389034195977 4.4
vertex 9.5 19.4113323444514 4.4
vertex 22.5 19.4113323444514 4.39999999999999
endloop
endfacet
facet normal 3.62965982902205e-17 1.18721954601191e-17 1.0
outer loop
vertex 12.0701696332684 24.6389034195977 4.4
vertex 22.5 19.4113323444514 4.39999999999999
vertex 13.8574091731385 23.8394540030586 4.4
endloop
endfacet
facet normal 3.62965982902205e-17 1.18721954601191e-17 1.0
outer loop
vertex 13.8574091731385 23.8394540030586 4.4
vertex 22.5 19.4113323444514 4.39999999999999
vertex 15.7906627370604 23.5298167958903 4.4
endloop
endfacet
facet normal 3.62965982902205e-17 1.18721954601191e-17 1.0
outer loop
vertex 15.7906627370604 23.5298167958903 4.4
vertex 22.5 19.4113323444514 4.39999999999999
vertex 17.7381822895055 23.7310930620618 4.4
endloop
endfacet
facet normal 3.62965982902205e-17 1.18721954601191e-17 1.0
outer loop
vertex 17.7381822895055 23.7310930620618 4.4
vertex 22.5 19.4113323444514 4.39999999999999
vertex 19.5672475914028 24.4295661566582 4.4
endloop
endfacet
facet normal 3.62965982902205e-17 1.18721954601191e-17 1.0
outer loop
vertex 19.5672475914028 24.4295661566582 4.4
vertex 22.5 19.4113323444514 4.39999999999999
vertex 21.1532108651014 25.5776362925641 4.4
endloop
endfacet
facet normal 3.62965982902205e-17 1.18721954601191e-17 1.0
outer loop
vertex 21.1532108651014 25.5776362925641 4.4
vertex 22.5 19.4113323444514 4.39999999999999
vertex 22.387991334427 27.0970643872931 4.4
endloop
endfacet
facet normal 3.62965982902205e-17 1.18721954601191e-17 1.0
outer loop
vertex 22.387991334427 27.0970643872931 4.4
vertex 22.5 19.4113323444514 4.39999999999999
vertex 23.1874407509662 28.8843039271632 4.4
endloop
endfacet
facet normal -3.98521990139003e-33 2.88286765251075e-17 1.0
outer loop
vertex 0.0 1.5 2.4
vertex 1.5 3.0 2.4
vertex 0.0 39.6126531176223 2.4
endloop
endfacet
facet normal -3.98521990139003e-33 2.88286765251075e-17 1.0
outer loop
vertex 1.5 3.0 2.4
vertex 0.0 1.5 2.4
vertex 9.5 1.5 2.4
endloop
endfacet
facet normal -3.98521990139003e-33 2.88286765251075e-17 1.0
outer loop
vertex 1.5 3.0 2.4
vertex 9.5 1.5 2.4
vertex 9.5 3.0 2.4
endloop
endfacet
facet normal -3.98521990139003e-33 2.88286765251075e-17 1.0
outer loop
vertex 32.0 1.5 2.4
vertex 22.5 3.0 2.4
vertex 22.5 1.5 2.4
endloop
endfacet
facet normal -3.98521990139003e-33 2.88286765251075e-17 1.0
outer loop
vertex 22.5 3.0 2.4
vertex 32.0 1.5 2.4
vertex 30.5 3.0 2.4
endloop
endfacet
facet normal -3.98521990139003e-33 2.88286765251075e-17 1.0
outer loop
vertex 30.5 3.0 2.4
vertex 32.0 1.5 2.4
vertex 30.5 38.1126531176223 2.4
endloop
endfacet
facet normal -3.98521990139003e-33 2.88286765251075e-17 1.0
outer loop
vertex 0.0 39.6126531176223 2.4
vertex 1.5 38.1126531176223 2.4
vertex 32.0 39.6126531176223 2.4
endloop
endfacet
facet normal -3.98521990139003e-33 2.88286765251075e-17 1.0
outer loop
vertex 1.5 38.1126531176223 2.4
vertex 0.0 39.6126531176223 2.4
vertex 1.5 3.0 2.4
endloop
endfacet
facet normal -3.98521990139003e-33 2.88286765251075e-17 1.0
outer loop
vertex 32.0 39.6126531176223 2.4
vertex 1.5 38.1126531176223 2.4
vertex 30.5 38.1126531176223 2.4
endloop
endfacet
facet normal -3.98521990139003e-33 2.88286765251075e-17 1.0
outer loop
vertex 32.0 39.6126531176223 2.4
vertex 30.5 38.1126531176223 2.4
vertex 32.0 1.5 2.4
endloop
endfacet
facet normal -0.0 1.0 -0.0
outer loop
vertex 1.5 38.1126531176223 4.4
vertex 30.5 38.1126531176223 2.4
vertex 1.5 38.1126531176223 2.4
endloop
endfacet
facet normal -0.0 1.0 -0.0
outer loop
vertex 30.5 38.1126531176223 2.4
vertex 1.5 38.1126531176223 4.4
vertex 30.5 38.1126531176223 4.4
endloop
endfacet
facet normal 0.0 -1.0 0.0
outer loop
vertex 22.5 19.4113323444514 4.39999999999999
vertex 9.5 19.4113323444514 2.4
vertex 22.5 19.4113323444514 2.4
endloop
endfacet
facet normal 0.0 -1.0 0.0
outer loop
vertex 9.5 19.4113323444514 2.4
vertex 22.5 19.4113323444514 4.39999999999999
vertex 9.5 19.4113323444514 4.4
endloop
endfacet
facet normal 1.0 -0.0 -0.0
outer loop
vertex 30.5 38.1126531176223 2.4
vertex 30.5 3.0 4.4
vertex 30.5 3.0 2.4
endloop
endfacet
facet normal 1.0 -0.0 -0.0
outer loop
vertex 30.5 3.0 4.4
vertex 30.5 38.1126531176223 2.4
vertex 30.5 38.1126531176223 4.4
endloop
endfacet
facet normal 0.0 -1.0 0.0
outer loop
vertex 32.0 1.5 2.4
vertex 0.0 1.5 0.4
vertex 32.0 1.5 0.4
endloop
endfacet
facet normal 0.0 -1.0 0.0
outer loop
vertex 0.0 1.5 0.4
vertex 32.0 1.5 2.4
vertex 0.0 1.5 2.4
endloop
endfacet
facet normal 0.0 -1.0 0.0
outer loop
vertex 0.0 1.5 2.4
vertex 32.0 1.5 2.4
vertex 22.5 1.5 2.4
endloop
endfacet
facet normal 0.0 -1.0 0.0
outer loop
vertex 0.0 1.5 2.4
vertex 22.5 1.5 2.4
vertex 9.5 1.5 2.4
endloop
endfacet
facet normal 0.0 0.0 -1.0
outer loop
vertex 0.0 39.6126531176223 0.4
vertex 8.81255924903385 33.1694855808862 0.399999999999996
vertex 0.0 1.5 0.4
endloop
endfacet
facet normal 0.0 0.0 -1.0
outer loop
vertex 8.81255924903385 33.1694855808862 0.399999999999996
vertex 0.0 39.6126531176223 0.4
vertex 9.61200866557302 34.9567251207563 0.399999999999996
endloop
endfacet
facet normal 0.0 0.0 -1.0
outer loop
vertex 9.61200866557302 34.9567251207563 0.399999999999996
vertex 0.0 39.6126531176223 0.4
vertex 10.8467891348986 36.4761532154854 0.399999999999996
endloop
endfacet
facet normal 0.0 0.0 -1.0
outer loop
vertex 10.8467891348986 36.4761532154854 0.399999999999996
vertex 0.0 39.6126531176223 0.4
vertex 12.4327524085972 37.6242233513913 0.399999999999996
endloop
endfacet
facet normal 0.0 0.0 -1.0
outer loop
vertex 12.4327524085972 37.6242233513913 0.399999999999996
vertex 0.0 39.6126531176223 0.4
vertex 13.2164724927033 37.9235059368053 0.399999999999996
endloop
endfacet
facet normal 0.0 0.0 -1.0
outer loop
vertex 13.2164724927033 37.9235059368053 0.399999999999996
vertex 0.0 39.6126531176223 0.4
vertex 32.0 39.6126531176223 0.4
endloop
endfacet
facet normal 0.0 0.0 -1.0
outer loop
vertex 0.0 1.5 0.4
vertex 8.81255924903385 33.1694855808862 0.399999999999996
vertex 8.50292204186558 31.2362320169643 0.399999999999996
endloop
endfacet
facet normal 0.0 0.0 -1.0
outer loop
vertex 13.2164724927033 37.9235059368053 0.399999999999996
vertex 32.0 39.6126531176223 0.4
vertex 18.7927659259624 37.9235059368053 0.399999999999996
endloop
endfacet
facet normal 0.0 0.0 -1.0
outer loop
vertex 18.7927659259624 37.9235059368053 0.399999999999996
vertex 32.0 39.6126531176223 0.4
vertex 19.9298303667316 37.4148860884517 0.399999999999996
endloop
endfacet
facet normal 0.0 0.0 -1.0
outer loop
vertex 19.9298303667316 37.4148860884517 0.399999999999996
vertex 32.0 39.6126531176223 0.4
vertex 21.4492584614607 36.1801056191262 0.399999999999996
endloop
endfacet
facet normal 0.0 0.0 -1.0
outer loop
vertex 21.4492584614607 36.1801056191262 0.399999999999996
vertex 32.0 39.6126531176223 0.4
vertex 22.5973285973666 34.5941423454276 0.399999999999996
endloop
endfacet
facet normal 0.0 0.0 -1.0
outer loop
vertex 22.5973285973666 34.5941423454276 0.399999999999996
vertex 32.0 39.6126531176223 0.4
vertex 23.295801691963 32.7650770435302 0.399999999999996
endloop
endfacet
facet normal 0.0 0.0 -1.0
outer loop
vertex 23.295801691963 32.7650770435302 0.399999999999996
vertex 32.0 39.6126531176223 0.4
vertex 23.4970779581344 30.8175574910851 0.399999999999996
endloop
endfacet
facet normal 0.0 0.0 -1.0
outer loop
vertex 0.0 1.5 0.4
vertex 10.5507415385393 25.8736838889233 0.399999999999996
vertex 32.0 1.5 0.4
endloop
endfacet
facet normal 0.0 0.0 -1.0
outer loop
vertex 10.5507415385393 25.8736838889233 0.399999999999996
vertex 0.0 1.5 0.4
vertex 9.40267140263343 27.4596471626219 0.399999999999996
endloop
endfacet
facet normal 0.0 0.0 -1.0
outer loop
vertex 9.40267140263343 27.4596471626219 0.399999999999996
vertex 0.0 1.5 0.4
vertex 8.70419830803705 29.2887124645192 0.399999999999996
endloop
endfacet
facet normal 0.0 0.0 -1.0
outer loop
vertex 8.70419830803705 29.2887124645192 0.399999999999996
vertex 0.0 1.5 0.4
vertex 8.50292204186558 31.2362320169643 0.399999999999996
endloop
endfacet
facet normal 0.0 0.0 -1.0
outer loop
vertex 32.0 1.5 0.4
vertex 10.5507415385393 25.8736838889233 0.399999999999996
vertex 12.0701696332684 24.6389034195977 0.399999999999996
endloop
endfacet
facet normal 0.0 0.0 -1.0
outer loop
vertex 32.0 1.5 0.4
vertex 12.0701696332684 24.6389034195977 0.399999999999996
vertex 13.8574091731385 23.8394540030586 0.399999999999996
endloop
endfacet
facet normal 0.0 0.0 -1.0
outer loop
vertex 32.0 1.5 0.4
vertex 13.8574091731385 23.8394540030586 0.399999999999996
vertex 15.7906627370604 23.5298167958903 0.399999999999996
endloop
endfacet
facet normal 0.0 0.0 -1.0
outer loop
vertex 32.0 1.5 0.4
vertex 15.7906627370604 23.5298167958903 0.399999999999996
vertex 17.7381822895055 23.7310930620618 0.399999999999996
endloop
endfacet
facet normal 0.0 0.0 -1.0
outer loop
vertex 32.0 1.5 0.4
vertex 17.7381822895055 23.7310930620618 0.399999999999996
vertex 19.5672475914028 24.4295661566582 0.399999999999996
endloop
endfacet
facet normal 0.0 0.0 -1.0
outer loop
vertex 32.0 1.5 0.4
vertex 19.5672475914028 24.4295661566582 0.399999999999996
vertex 21.1532108651014 25.5776362925641 0.399999999999996
endloop
endfacet
facet normal 0.0 0.0 -1.0
outer loop
vertex 32.0 1.5 0.4
vertex 21.1532108651014 25.5776362925641 0.399999999999996
vertex 22.387991334427 27.0970643872931 0.399999999999996
endloop
endfacet
facet normal 0.0 0.0 -1.0
outer loop
vertex 32.0 1.5 0.4
vertex 22.387991334427 27.0970643872931 0.399999999999996
vertex 23.1874407509662 28.8843039271632 0.399999999999996
endloop
endfacet
facet normal 0.0 0.0 -1.0
outer loop
vertex 32.0 1.5 0.4
vertex 23.1874407509662 28.8843039271632 0.399999999999996
vertex 23.4970779581344 30.8175574910851 0.399999999999996
endloop
endfacet
facet normal 0.0 0.0 -1.0
outer loop
vertex 32.0 1.5 0.4
vertex 23.4970779581344 30.8175574910851 0.399999999999996
vertex 32.0 39.6126531176223 0.4
endloop
endfacet
facet normal -0.0 1.0 -0.0
outer loop
vertex 0.0 39.6126531176223 2.4
vertex 32.0 39.6126531176223 0.4
vertex 0.0 39.6126531176223 0.4
endloop
endfacet
facet normal -0.0 1.0 -0.0
outer loop
vertex 32.0 39.6126531176223 0.4
vertex 0.0 39.6126531176223 2.4
vertex 32.0 39.6126531176223 2.4
endloop
endfacet
facet normal 4.40619762898109e-17 -1.0 1.76247905159244e-16
outer loop
vertex 30.5 3.0 4.4
vertex 22.5 3.0 2.4
vertex 30.5 3.0 2.4
endloop
endfacet
facet normal 4.40619762898109e-17 -1.0 1.76247905159244e-16
outer loop
vertex 22.5 3.0 2.4
vertex 30.5 3.0 4.4
vertex 22.5 3.0 4.4
endloop
endfacet
facet normal 0.0 -1.0 0.0
outer loop
vertex 9.5 3.0 2.4
vertex 1.5 3.0 4.4
vertex 1.5 3.0 2.4
endloop
endfacet
facet normal 0.0 -1.0 0.0
outer loop
vertex 1.5 3.0 4.4
vertex 9.5 3.0 2.4
vertex 9.5 3.0 4.4
endloop
endfacet
facet normal -1.0 0.0 0.0
outer loop
vertex 22.5 3.0 4.4
vertex 22.5 19.4113323444514 2.4
vertex 22.5 3.0 2.4
endloop
endfacet
facet normal -1.0 0.0 0.0
outer loop
vertex 22.5 19.4113323444514 2.4
vertex 22.5 3.0 4.4
vertex 22.5 19.4113323444514 4.39999999999999
endloop
endfacet
facet normal 1.44613665771687e-16 1.63384785688269e-16 1.0
outer loop
vertex 22.5 1.5 2.4
vertex 9.5 3.0 2.4
vertex 9.5 1.5 2.4
endloop
endfacet
facet normal 1.44613665771687e-16 1.63384785688269e-16 1.0
outer loop
vertex 9.5 3.0 2.4
vertex 22.5 1.5 2.4
vertex 9.5 19.4113323444514 2.4
endloop
endfacet
facet normal 1.44613665771687e-16 1.63384785688269e-16 1.0
outer loop
vertex 9.5 19.4113323444514 2.4
vertex 22.5 1.5 2.4
vertex 22.5 19.4113323444514 2.4
endloop
endfacet
facet normal 1.44613665771687e-16 1.63384785688269e-16 1.0
outer loop
vertex 22.5 19.4113323444514 2.4
vertex 22.5 1.5 2.4
vertex 22.5 3.0 2.4
endloop
endfacet
facet normal 1.0 -0.0 -0.0
outer loop
vertex 9.5 19.4113323444514 2.4
vertex 9.5 3.0 4.4
vertex 9.5 3.0 2.4
endloop
endfacet
facet normal 1.0 -0.0 -0.0
outer loop
vertex 9.5 3.0 4.4
vertex 9.5 19.4113323444514 2.4
vertex 9.5 19.4113323444514 4.4
endloop
endfacet
facet normal -1.0 0.0 0.0
outer loop
vertex 1.5 38.1126531176223 4.4
vertex 1.5 3.0 2.4
vertex 1.5 3.0 4.4
endloop
endfacet
facet normal -1.0 0.0 0.0
outer loop
vertex 1.5 3.0 2.4
vertex 1.5 38.1126531176223 4.4
vertex 1.5 38.1126531176223 2.4
endloop
endfacet
facet normal 0.0 -1.0 0.0
outer loop
vertex 18.7927659259624 37.9235059368053 4.4
vertex 13.2164724927033 37.9235059368053 0.399999999999996
vertex 18.7927659259624 37.9235059368053 0.399999999999996
endloop
endfacet
facet normal 0.0 -1.0 0.0
outer loop
vertex 13.2164724927033 37.9235059368053 0.399999999999996
vertex 18.7927659259624 37.9235059368053 4.4
vertex 13.2164724927033 37.9235059368053 4.4
endloop
endfacet
facet normal -0.408321325113248 -0.912838263581102 0.0
outer loop
vertex 19.9298303667316 37.4148860884517 4.4
vertex 18.7927659259624 37.9235059368053 0.399999999999996
vertex 19.9298303667316 37.4148860884517 0.399999999999996
endloop
endfacet
facet normal -0.408321325113248 -0.912838263581102 0.0
outer loop
vertex 18.7927659259624 37.9235059368053 0.399999999999996
vertex 19.9298303667316 37.4148860884517 4.4
vertex 18.7927659259624 37.9235059368053 4.4
endloop
endfacet
facet normal 0.987415389478661 -0.158148185638357 -0.0
outer loop
vertex 8.81255924903385 33.1694855808862 0.399999999999996
vertex 8.50292204186558 31.2362320169643 4.4
vertex 8.50292204186558 31.2362320169643 0.399999999999996
endloop
endfacet
facet normal 0.987415389478661 -0.158148185638357 -0.0
outer loop
vertex 8.50292204186558 31.2362320169643 4.4
vertex 8.81255924903385 33.1694855808862 0.399999999999996
vertex 8.81255924903385 33.1694855808862 4.4
endloop
endfacet
facet normal -0.776052718557048 0.630668041064565 0.0
outer loop
vertex 22.387991334427 27.0970643872931 4.4
vertex 21.1532108651014 25.5776362925641 0.399999999999996
vertex 21.1532108651014 25.5776362925641 4.4
endloop
endfacet
facet normal -0.776052718557048 0.630668041064565 0.0
outer loop
vertex 21.1532108651014 25.5776362925641 0.399999999999996
vertex 22.387991334427 27.0970643872931 4.4
vertex 22.387991334427 27.0970643872931 0.399999999999996
endloop
endfacet
facet normal 0.934200904195405 0.356747348414096 -0.0
outer loop
vertex 8.70419830803705 29.2887124645192 0.399999999999996
vertex 9.40267140263343 27.4596471626219 4.4
vertex 9.40267140263343 27.4596471626219 0.399999999999996
endloop
endfacet
facet normal 0.934200904195405 0.356747348414096 -0.0
outer loop
vertex 9.40267140263343 27.4596471626219 4.4
vertex 8.70419830803705 29.2887124645192 0.399999999999996
vertex 8.70419830803705 29.2887124645192 4.4
endloop
endfacet
facet normal -0.630668041064565 -0.776052718557047 0.0
outer loop
vertex 21.4492584614607 36.1801056191262 4.4
vertex 19.9298303667316 37.4148860884517 0.399999999999996
vertex 21.4492584614607 36.1801056191262 0.399999999999996
endloop
endfacet
facet normal -0.630668041064565 -0.776052718557047 0.0
outer loop
vertex 19.9298303667316 37.4148860884517 0.399999999999996
vertex 21.4492584614607 36.1801056191262 4.4
vertex 19.9298303667316 37.4148860884517 4.4
endloop
endfacet
facet normal -0.934200904195405 -0.356747348414096 0.0
outer loop
vertex 22.5973285973666 34.5941423454276 4.4
vertex 23.295801691963 32.7650770435302 0.399999999999996
vertex 23.295801691963 32.7650770435302 4.4
endloop
endfacet
facet normal -0.934200904195405 -0.356747348414096 0.0
outer loop
vertex 23.295801691963 32.7650770435302 0.399999999999996
vertex 22.5973285973666 34.5941423454276 4.4
vertex 22.5973285973666 34.5941423454276 0.399999999999996
endloop
endfacet
facet normal 0.994701788364334 0.102802491335554 -0.0
outer loop
vertex 8.50292204186558 31.2362320169643 0.399999999999996
vertex 8.70419830803705 29.2887124645192 4.4
vertex 8.70419830803705 29.2887124645192 0.399999999999996
endloop
endfacet
facet normal 0.994701788364334 0.102802491335554 -0.0
outer loop
vertex 8.70419830803705 29.2887124645192 4.4
vertex 8.50292204186558 31.2362320169643 0.399999999999996
vertex 8.50292204186558 31.2362320169643 4.4
endloop
endfacet
facet normal 0.630668041064565 0.776052718557048 -0.0
outer loop
vertex 10.5507415385393 25.8736838889233 4.4
vertex 12.0701696332684 24.6389034195977 0.399999999999996
vertex 10.5507415385393 25.8736838889233 0.399999999999996
endloop
endfacet
facet normal 0.630668041064565 0.776052718557048 -0.0
outer loop
vertex 12.0701696332684 24.6389034195977 0.399999999999996
vertex 10.5507415385393 25.8736838889233 4.4
vertex 12.0701696332684 24.6389034195977 4.4
endloop
endfacet
facet normal 0.912838263581102 -0.408321325113249 -0.0
outer loop
vertex 9.61200866557302 34.9567251207563 0.399999999999996
vertex 8.81255924903385 33.1694855808862 4.4
vertex 8.81255924903385 33.1694855808862 0.399999999999996
endloop
endfacet
facet normal 0.912838263581102 -0.408321325113249 -0.0
outer loop
vertex 8.81255924903385 33.1694855808862 4.4
vertex 9.61200866557302 34.9567251207563 0.399999999999996
vertex 9.61200866557302 34.9567251207563 4.4
endloop
endfacet
facet normal 0.408321325113248 0.912838263581102 -0.0
outer loop
vertex 12.0701696332684 24.6389034195977 4.4
vertex 13.8574091731385 23.8394540030586 0.399999999999996
vertex 12.0701696332684 24.6389034195977 0.399999999999996
endloop
endfacet
facet normal 0.408321325113248 0.912838263581102 -0.0
outer loop
vertex 13.8574091731385 23.8394540030586 0.399999999999996
vertex 12.0701696332684 24.6389034195977 4.4
vertex 13.8574091731385 23.8394540030586 4.4
endloop
endfacet
facet normal -0.810035772245547 -0.586380463251087 0.0
outer loop
vertex 21.4492584614607 36.1801056191262 4.4
vertex 22.5973285973666 34.5941423454276 0.399999999999996
vertex 22.5973285973666 34.5941423454276 4.4
endloop
endfacet
facet normal -0.810035772245547 -0.586380463251087 0.0
outer loop
vertex 22.5973285973666 34.5941423454276 0.399999999999996
vertex 21.4492584614607 36.1801056191262 4.4
vertex 21.4492584614607 36.1801056191262 0.399999999999996
endloop
endfacet
facet normal 0.810035772245548 0.586380463251086 -0.0
outer loop
vertex 9.40267140263343 27.4596471626219 0.399999999999996
vertex 10.5507415385393 25.8736838889233 4.4
vertex 10.5507415385393 25.8736838889233 0.399999999999996
endloop
endfacet
facet normal 0.810035772245548 0.586380463251086 -0.0
outer loop
vertex 10.5507415385393 25.8736838889233 4.4
vertex 9.40267140263343 27.4596471626219 0.399999999999996
vertex 9.40267140263343 27.4596471626219 4.4
endloop
endfacet
facet normal 0.586380463251087 -0.810035772245547 0.0
outer loop
vertex 12.4327524085972 37.6242233513913 4.4
vertex 10.8467891348986 36.4761532154854 0.399999999999996
vertex 12.4327524085972 37.6242233513913 0.399999999999996
endloop
endfacet
facet normal 0.586380463251087 -0.810035772245547 0.0
outer loop
vertex 10.8467891348986 36.4761532154854 0.399999999999996
vertex 12.4327524085972 37.6242233513913 4.4
vertex 10.8467891348986 36.4761532154854 4.4
endloop
endfacet
facet normal -0.912838263581102 0.408321325113247 0.0
outer loop
vertex 23.1874407509662 28.8843039271632 4.4
vertex 22.387991334427 27.0970643872931 0.399999999999996
vertex 22.387991334427 27.0970643872931 4.4
endloop
endfacet
facet normal -0.912838263581102 0.408321325113247 0.0
outer loop
vertex 22.387991334427 27.0970643872931 0.399999999999996
vertex 23.1874407509662 28.8843039271632 4.4
vertex 23.1874407509662 28.8843039271632 0.399999999999996
endloop
endfacet
facet normal -0.987415389478661 0.158148185638357 0.0
outer loop
vertex 23.4970779581344 30.8175574910851 4.4
vertex 23.1874407509662 28.8843039271632 0.399999999999996
vertex 23.1874407509662 28.8843039271632 4.4
endloop
endfacet
facet normal -0.987415389478661 0.158148185638357 0.0
outer loop
vertex 23.1874407509662 28.8843039271632 0.399999999999996
vertex 23.4970779581344 30.8175574910851 4.4
vertex 23.4970779581344 30.8175574910851 0.399999999999996
endloop
endfacet
facet normal -0.102802491335554 0.994701788364334 -0.0
outer loop
vertex 15.7906627370604 23.5298167958903 4.4
vertex 17.7381822895055 23.7310930620618 0.399999999999996
vertex 15.7906627370604 23.5298167958903 0.399999999999996
endloop
endfacet
facet normal -0.102802491335554 0.994701788364334 -0.0
outer loop
vertex 17.7381822895055 23.7310930620618 0.399999999999996
vertex 15.7906627370604 23.5298167958903 4.4
vertex 17.7381822895055 23.7310930620618 4.4
endloop
endfacet
facet normal -0.586380463251086 0.810035772245548 -0.0
outer loop
vertex 19.5672475914028 24.4295661566582 4.4
vertex 21.1532108651014 25.5776362925641 0.399999999999996
vertex 19.5672475914028 24.4295661566582 0.399999999999996
endloop
endfacet
facet normal -0.586380463251086 0.810035772245548 -0.0
outer loop
vertex 21.1532108651014 25.5776362925641 0.399999999999996
vertex 19.5672475914028 24.4295661566582 4.4
vertex 21.1532108651014 25.5776362925641 4.4
endloop
endfacet
facet normal 0.158148185638357 0.987415389478661 -0.0
outer loop
vertex 13.8574091731385 23.8394540030586 4.4
vertex 15.7906627370604 23.5298167958903 0.399999999999996
vertex 13.8574091731385 23.8394540030586 0.399999999999996
endloop
endfacet
facet normal 0.158148185638357 0.987415389478661 -0.0
outer loop
vertex 15.7906627370604 23.5298167958903 0.399999999999996
vertex 13.8574091731385 23.8394540030586 4.4
vertex 15.7906627370604 23.5298167958903 4.4
endloop
endfacet
facet normal 0.776052718557047 -0.630668041064565 -0.0
outer loop
vertex 10.8467891348986 36.4761532154854 0.399999999999996
vertex 9.61200866557302 34.9567251207563 4.4
vertex 9.61200866557302 34.9567251207563 0.399999999999996
endloop
endfacet
facet normal 0.776052718557047 -0.630668041064565 -0.0
outer loop
vertex 9.61200866557302 34.9567251207563 4.4
vertex 10.8467891348986 36.4761532154854 0.399999999999996
vertex 10.8467891348986 36.4761532154854 4.4
endloop
endfacet
facet normal 0.356747348414098 -0.934200904195404 0.0
outer loop
vertex 13.2164724927033 37.9235059368053 4.4
vertex 12.4327524085972 37.6242233513913 0.399999999999996
vertex 13.2164724927033 37.9235059368053 0.399999999999996
endloop
endfacet
facet normal 0.356747348414098 -0.934200904195404 0.0
outer loop
vertex 12.4327524085972 37.6242233513913 0.399999999999996
vertex 13.2164724927033 37.9235059368053 4.4
vertex 12.4327524085972 37.6242233513913 4.4
endloop
endfacet
facet normal -0.994701788364333 -0.102802491335555 0.0
outer loop
vertex 23.295801691963 32.7650770435302 4.4
vertex 23.4970779581344 30.8175574910851 0.399999999999996
vertex 23.4970779581344 30.8175574910851 4.4
endloop
endfacet
facet normal -0.994701788364333 -0.102802491335555 0.0
outer loop
vertex 23.4970779581344 30.8175574910851 0.399999999999996
vertex 23.295801691963 32.7650770435302 4.4
vertex 23.295801691963 32.7650770435302 0.399999999999996
endloop
endfacet
facet normal -0.356747348414096 0.934200904195405 -0.0
outer loop
vertex 17.7381822895055 23.7310930620618 4.4
vertex 19.5672475914028 24.4295661566582 0.399999999999996
vertex 17.7381822895055 23.7310930620618 0.399999999999996
endloop
endfacet
facet normal -0.356747348414096 0.934200904195405 -0.0
outer loop
vertex 19.5672475914028 24.4295661566582 0.399999999999996
vertex 17.7381822895055 23.7310930620618 4.4
vertex 19.5672475914028 24.4295661566582 4.4
endloop
endfacet
endsolid push_button_lid_v2
